<?xml version="1.0" encoding="UTF-8"?>
<svg id="a" data-name="Layer 1" xmlns="http://www.w3.org/2000/svg" xmlns:xlink="http://www.w3.org/1999/xlink" viewBox="0 0 8.86233 32">
  <defs>
    <linearGradient id="b" x1="-2.40849" y1="2.51849" x2="10.47275" y2="2.51849" gradientUnits="userSpaceOnUse">
      <stop offset=".11025" stop-color="#f9d30d"/>
      <stop offset=".89667" stop-color="#e7ba28"/>
    </linearGradient>
    <linearGradient id="c" x1="-4.39665" y1="5.84295" x2="12.65415" y2="5.84295" gradientUnits="userSpaceOnUse">
      <stop offset="0" stop-color="#3a190d"/>
      <stop offset="1" stop-color="#701c0a"/>
    </linearGradient>
    <linearGradient id="d" x1="1.90245" y1="8.6686" x2="6.96009" y2="8.6686" gradientUnits="userSpaceOnUse">
      <stop offset="0" stop-color="#d1d3d4"/>
      <stop offset="1" stop-color="#e6e7e8"/>
    </linearGradient>
    <linearGradient id="e" x1=".01059" y1="20.95119" x2="8.85195" y2="20.95119" xlink:href="#d"/>
  </defs>
  <path d="m6.79915.19448c.11914.07018.22221.16237.22221.30064v4.40137c0,.06127-.03592.11621-.0919.1405H1.93308c-.05598-.02429-.0919-.07922-.0919-.1405V.49512c0-.13827.10308-.23045.22221-.30064C2.50354-.06483,6.359-.06483,6.79915.19448Z" style="fill: url(#b);"/>
  <path d="m7.23157,5.64965c0,.05809-.02324.11091-.06127.14787-.03803.03804-.08978.06127-.14788.06127h-.07394c-.08662,0-.15634.07288-.15317.1595l.02218.63062H2.04505l.02218-.63062c.00317-.08663-.06655-.1595-.15317-.1595h-.07394c-.0581,0-.10985-.02324-.14788-.06127-.03803-.03697-.06127-.08978-.06127-.14787,0-.06656.03169-.12888.08556-.16902l.24612-.17957c.04226-.03064.06232-.07711.06232-.12359,0-.05703-.03169-.11408-.0919-.14049h4.99638c-.06021.02641-.0919.08345-.0919.14049,0,.04648.02006.09296.06232.12359l.24612.17957c.05387.04014.08556.10246.08556.16902Z" style="fill: url(#c);"/>
  <polygon points="6.96009 10.68828 1.90245 10.68828 2.04505 6.64892 6.81749 6.64892 6.96009 10.68828" style="fill: url(#d);"/>
  <path d="m7.10375,11.23017H1.75879c.07077-.00317.12676-.0602.12887-.131l.01479-.4109h5.05765l.01479.4109c.00211.07079.0581.12782.12887.131Z" style="fill: #300505;"/>
  <path d="m8.79492,30.38013c-.02747.20176-.06655.40141-.11619.59894-.05176.2081-.16796.38767-.32429.51971-.15634.13098-.35281.21444-.56724.23027-2.23728.36127-4.47456.36127-6.71184,0-.21443-.01583-.4109-.09929-.56724-.23027-.15633-.13204-.27253-.31161-.32429-.51971-.04859-.19542-.08767-.39295-.11513-.59153,2.92071.38027,5.82981.38133,8.72623-.0074Z" style="fill: #300505;"/>
  <path d="m8.85195,11.4372v18.13274c0,.27147-.01901.54189-.05704.81019-2.89642.38873-5.80552.38767-8.72623.0074-.03908-.27042-.0581-.54401-.0581-.81759V11.4372c0-.07184.05704-.13098.12992-.1352l1.61828-.07184h5.34496l1.61828.07184c.07289.00422.12992.06336.12992.1352Z" style="fill: url(#e);"/>
  <path d="m4.4126,29.89527c-1.4807,0-2.9547-.07334-4.4126-.22024l.02125-.21023c2.90126.29234,5.86885.29224,8.82025,0l.02084.21023c-1.48245.14679-2.96945.22024-4.44974.22024Z" style="fill: #252120;"/>
  <path d="m4.4126,27.58706c-1.4807,0-2.9547-.07334-4.4126-.22024l.02125-.21023c2.90126.29234,5.86885.29224,8.82025,0l.02084.21023c-1.48245.14679-2.96945.22024-4.44974.22024Z" style="fill: #252120;"/>
  <g>
    <rect x="7.85791" y="12.67586" width=".21126" height="14.22211" style="fill: #252120;"/>
    <rect x=".99937" y="12.67586" width=".21126" height="14.22211" style="fill: #252120;"/>
  </g>
  <path d="m8.56751,12.10273c-2.85959-.16711-5.66563-.16711-8.33954,0l-.0132-.21085c2.68247-.16773,5.49677-.16773,8.36512,0l-.01238.21085Z" style="fill: #252120;"/>
  <path d="m6.81443,21.53107c-1.59585-.72575-3.18376-.6627-4.76526,0v-1.07298c1.71519-.76123,3.30934-.79564,4.76526,0v1.07298Z" style="fill: #252120;"/>
</svg>