<svg width="800" height="800" viewBox="0 0 1024 1024" class="icon" xmlns="http://www.w3.org/2000/svg"><path d="M746.67 234.67C768 234.67 896 213.33 896 405.33S618.67 938.67 234.67 938.67c-42.67 0-85.34-21.34-85.34-21.34l-21.33-64S149.33 768 277.33 704s218.95-117.63 273.35-172.01c42.66-42.65 110.65-126.66 110.65-190.66C661.33 299.56 704 256 704 256" fill="#FFE082"/><path d="M170.67 874.67S320 832 448 768s405.33-256 320-533.33c0 0 128-21.34 128 170.66S618.67 938.67 234.67 938.67c-42.67 0-85.34-21.34-85.34-21.34l21.34-42.66z" fill="#FFCA28"/><path d="M876.01 297.34c-40-85.78-129.34-41.34-129.34-212C682.67 85.33 640 128 640 128s64 64 64 128c42.67 0 77.06-3.35 80.87 101.33 28.85-122.22 91.14-59.99 91.14-59.99z" fill="#C0CA33"/><path d="M661.33 341.33S660 302.66 704 256s86-8.66 86-8.66l-5.13 110s-18.66-69.34-48-71.11c-61.86-3.73-75.54 55.1-75.54 55.1z" fill="#C0CA33"/><path d="m128 874.67 21.33 42.66h21.34v-42.66L128 853.33z" fill="#5D4037"/><path d="M746.67 85.33C682.67 85.33 640 128 640 128h64l42.67-42.67z" fill="#827717"/></svg>