<?xml version="1.0" encoding="UTF-8"?>
<svg id="a" data-name="Layer 1" xmlns="http://www.w3.org/2000/svg" viewBox="0 0 31.97147 32">
  <path d="m4.08142,26.8491c-1.34804-.62308-2.17569-1.70472-2.86448-3.19451C.46039,22.01826.10179,20.22563.04732,18.42369c-.04473-1.4796-.15168-3.03102.24623-4.48267.22649-.82627.61088-1.59918.99293-2.36603.59031-1.18487,1.18062-2.36975,1.77093-3.55462.30438-.61095.61627-1.23264,1.09268-1.72145.61638-.63242,1.5067-1.04714,1.84981-1.86087.17988-.42661.25268-.56623.39511-1.00676.25621-.79246.16683-.28004.25757-1.46602.04137-.54067.35133-1.04504.72238-1.44046s.95061-.63597,1.4679-.47337c.8793.27639,1.15761.7606,1.0765,1.67874s-.31696,1.13117.32672,1.7909c.19428.19912.44202.33541.6736.48956,1.10795.7375,1.85865,1.89538,2.50742,3.05752,1.62141,2.90441,2.82156,6.1196,2.90086,9.445.07931,3.3254-1.07263,6.77367-3.54468,8.99935-.72307.65101-1.5692,1.15883-2.28212,1.81879-.45729.42332-.76256,1.06995-1.25915,1.4301-.63339.45937-1.49589.41569-2.20811.17377-.32839-.11154-.68173-.25264-.93009-.50552-.00079-.0008-.00166-.00172-.00262-.00273-.59038-.62613-1.2386-1.21676-2.01977-1.57782Z" style="fill: #8ea84f;"/>
  <g style="opacity: .45;">
    <path d="m5.63509,24.69215c-4.71151-4.285-1.36987-11.40125.69721-16.25061-.13914,1.27725-.74454,2.84063-1.15071,4.17388-.61455,2.05294-1.74796,3.98976-1.76543,6.1639.0274,1.44574.69231,2.72546,1.20663,4.05233.26954.66353.50304,1.33483,1.04037,1.81911.02256.01675-.00315.05622-.02806.04138h0Z" style="fill: #4d7c0f;"/>
  </g>
  <g style="opacity: .45;">
    <path d="m8.13925,22.26103c-1.39223-2.09705-1.2001-4.72883-.58726-7.05492.21863-1.4019.13169-2.91549.51779-4.28078.17145.9493.15103,1.94693.14993,2.91599.07553,1.51592-.9521,2.76044-.95974,4.22502.08717,1.40163.82949,2.87967.87928,4.19469h0Z" style="fill: #4d7c0f;"/>
  </g>
  <g style="opacity: .45;">
    <path d="m11.98116,20.53608l.08741-2.93018c.31476-2.98369-1.23711-5.69136-1.69942-8.60849,1.34896,1.94019,1.71781,4.71117,1.90972,7.12419.25605,1.40585.38132,3.21904-.29771,4.41447h0Z" style="fill: #4d7c0f;"/>
  </g>
  <path d="m7.08153,25.3204c-.24974-1.46393.17315-2.75857,1.01109-4.16987.92036-1.55013,2.19487-2.86075,3.64926-3.92598,1.19422-.87467,2.41241-1.84129,3.83424-2.3353.8093-.28118,1.66401-.40199,2.51242-.52131,1.31088-.18436,2.62176-.36871,3.93264-.55307.67592-.09506,1.36495-.19001,2.03761-.07411.87028.14995,1.71625.64896,2.58124.471.45349-.0933.60979-.11235,1.05354-.2444.79825-.23754.32529-.02106,1.3542-.61781.46906-.27205,1.06031-.30216,1.59633-.22022s1.06246.42342,1.22135.94187c.27008.88126.02856,1.38483-.77414,1.83786-.8027.45303-1.11183.37926-1.29114,1.28337-.05412.27288-.02617.55425-.0221.83242.01949,1.33082-.50982,2.60521-1.10035,3.798-1.47584,2.98102-3.44637,5.79078-6.14241,7.73911-2.69604,1.94833-6.19052,2.95138-9.42478,2.17407-.94602-.22737-1.84369-.63724-2.79134-.85116-.60785-.13722-1.31368-.0227-1.89172-.22807-.73728-.26196-1.18966-.9976-1.39354-1.72163-.09401-.33383-.17778-.70496-.10998-1.05286.00022-.00111.00047-.00234.00077-.00371.18179-.84115.30156-1.70988.15685-2.5582Z" style="fill: #abbc62;"/>
  <g style="opacity: .45;">
    <path d="m8.70552,27.15309c.28214-1.44214.8421-2.82855,1.65701-4.06946.86149-1.26164,2.34636-1.76181,3.53315-2.6271,2.47382-1.48005,4.85646-3.51065,7.81654-3.84536.02848-.00216.03648.04308.00772.04958-2.74791.91302-5.02952,2.85763-7.6866,4.03222-1.2729.66169-2.69881,1.30896-3.32309,2.61579-.75139,1.1748-1.34338,2.72882-2.00473,3.84433h0Z" style="fill: #4d7c0f;"/>
  </g>
  <g style="opacity: .45;">
    <path d="m10.7194,28.87596c1.41035.00787,2.98122.20244,4.31691-.14305.64814-.23782,1.21211-.85343,1.89464-1.08717,1.37029-.5163,2.93979-.49509,4.26088-1.06598,1.33795-.59873,1.99164-1.99426,2.91966-3.08808.29935-.37022,1.495-1.46818,1.70832-1.45824-1.65856,1.5234-2.26231,4.04824-4.44548,4.97994-1.42826.57974-2.98945.17936-4.37639.79192-.69918.257-1.04677.94163-1.80817,1.31229-1.26864.42913-3.38466.2036-4.47037-.24164h0Z" style="fill: #4d7c0f;"/>
  </g>
  <g style="opacity: .45;">
    <path d="m12.08132,25.34287c.5808-.44318,1.29288-.6683,1.78782-1.08453.44763-.47745,1.06248-.9902,1.669-1.33643,3.64606-2.10916,7.44457-4.75856,11.53055-5.53454-1.91639.91578-5.77543,2.73177-7.70117,3.62445-1.62327.69593-3.13953,1.66613-4.44598,2.8528-.76956.88785-1.73951,1.25525-2.81656,1.52214-.02486.00999-.04692-.02771-.02365-.04389h0Z" style="fill: #4d7c0f;"/>
  </g>
  <g style="opacity: .45;">
    <path d="m12.26587,28.10554c1.56519-.92909,2.5327-1.74665,3.98676-2.73157,1.70725-1.33867,3.31608-2.96641,5.4931-3.51706.5227-.11837,1.24645-.19194,1.66799.16821-2.04967-.1741-3.96293,1.62976-5.73829,2.54103-1.86199,1.03631-3.2279,3.36007-5.40956,3.53939h0Z" style="fill: #4d7c0f;"/>
  </g>
  <path d="m8.30736,1.1331c-.33493.48799-.07542,1.12078-.19924,1.69291-.23775-.46146-.41537-1.47087.19924-1.69291h0Z" style="fill: #699327;"/>
  <path d="m8.93091.9087c.13585.84611-.1673,1.6906-.36421,2.50208-.13724-.84624.16878-1.69025.36421-2.50208h0Z" style="fill: #699327;"/>
  <g style="opacity: .45;">
    <path d="m31.18491,14.01661c-.55357.6191-1.41356.70355-2.17848.84617.66576-.46393,1.44044-.51844,2.17848-.84617h0Z" style="fill: #4d7c0f;"/>
  </g>
  <g style="opacity: .45;">
    <path d="m31.34087,15.04777c-.54561.31596-1.19176.2141-1.69604.58499.25044-.62491,1.12049-.6244,1.69604-.58499h0Z" style="fill: #4d7c0f;"/>
  </g>
</svg>