<?xml version="1.0" encoding="UTF-8"?>
<svg id="a" data-name="Layer 1" xmlns="http://www.w3.org/2000/svg" xmlns:xlink="http://www.w3.org/1999/xlink" viewBox="0 0 13.69171 32">
  <defs>
    <linearGradient id="b" x1="-1.98817" y1="21.18497" x2="15.71449" y2="21.18497" gradientUnits="userSpaceOnUse">
      <stop offset=".00529" stop-color="#766644"/>
      <stop offset=".55934" stop-color="#9e8957"/>
      <stop offset="1" stop-color="#baa265"/>
    </linearGradient>
  </defs>
  <path d="m9.62211.73102v1.64016c0,.09134-.03154.18071-.08937.25234-2.55948-.55527-5.37326,0-5.37326,0-.05783-.07163-.08937-.161-.08937-.25234V.73102c0-.22473.18752-.34556.3739-.47115.50756-.34203,4.11448-.35094,4.80419,0,.2003.10192.3739.24642.3739.47115Z" style="fill: #a1866f;"/>
  <path d="m13.10813,10.66862c-.48758-.84833-1.26298-1.49494-2.1698-1.86227l-1.04614-.4245c-.35747-.14522-.58812-.49678-.57695-.88316l.1288-4.634c.00197-.08805.03351-.17282.08871-.24116-2.55948-.55527-5.37326,0-5.37326,0,.0552.06833.08608.15311.08871.24116l.12879,4.634c.01052.38639-.21948.73794-.57761.88316l-1.04613.4245c-.90683.36733-1.68157,1.01394-2.16915,1.86227C.17801,11.37568-.03161,12.19576.00387,13.04279l.64792,15.22675.07031.68603c.16231,1.59154,1.46537,2.82495,3.06349,2.90051l3.0602.14391,3.0602-.14391c1.59877-.07556,2.90118-1.30897,3.06414-2.90051l.07031-.68603.64726-15.22675c.03614-.84703-.17348-1.66711-.57958-2.37417Zm-1.06453,16.88334c-.00329.27665-.21291.50664-.48824.53622-3.41504.36863-6.59944.3831-9.44082-.12683-.25693-.046-.44421-.2681-.44816-.52898l-.18202-12.90186c-.00394-.3187.26482-.57169.58286-.55132,3.18308.20699,6.36287.20765,9.53873,0,.31739-.02037.58615.23196.58286.55001l-.14522,13.02277Z" style="fill: #1f1c1e;"/>
  <path d="m12.18882,14.52919l-.14522,13.02277c-.00329.27665-.21291.50664-.48824.53622-3.41504.36863-6.59944.3831-9.44082-.12683-.25693-.046-.44421-.2681-.44816-.52898l-.18202-12.90186c-.00394-.3187.26482-.57169.58286-.55132,3.18308.20699,6.36287.20765,9.53873,0,.31739-.02037.58615.23196.58286.55001Z" style="fill: #e4e4e4;"/>
  <path d="m6.92544,27.50642h0c-1.48486,0-2.88086-.10059-4.1499-.29688-.15283-.02441-.26465-.1543-.2666-.30957l-.16504-11.71582c-.00146-.08691.0332-.1709.0957-.23047.06201-.06055.14697-.09766.23438-.08691,2.76416.15625,5.57715.15527,8.32764.00098.08447-.01855.17139.02637.2334.08594s.09717.14355.09619.22949l-.13184,11.80469c-.00195.16211-.12549.29688-.28809.31152-1.39893.13574-2.73975.20605-3.98584.20703ZM2.65787,15.1656l.15088,11.73047c2.33203.38867,5.03271.40234,8.07422.10449l.14844-11.82129c-2.78857.13086-5.60059.14453-8.37354-.01367Z" style="fill: url(#b);"/>
  <g>
    <ellipse cx="6.01595" cy="21.47399" rx="1.97305" ry="2.73867" transform="translate(-11.81879 8.08571) rotate(-37.45475)" style="fill: #59320f;"/>
    <path d="m4.58606,19.48494c.10898.99789,1.49205.55799,1.71888,1.52124.10184.30584.12353.67443.20737.90381.2229.48293,1.27433.79171,1.01455,1.49099-.13576-.45792-.63455-.44473-1.00413-.63748-.22249-.08472-.48492-.2511-.64905-.54297-.1966-.36058-.20559-.90037-.31551-1.13795-.2486-.27085-.82729-.41774-1.00294-.86548-.09381-.265-.07561-.52306.03084-.73216h0Z" style="fill: #936037;"/>
    <ellipse cx="7.98899" cy="21.15432" rx="1.97305" ry="2.73867" style="fill: #683c11;"/>
    <path d="m8.06349,18.70576c-.5203.85851.84509,1.35033.4394,2.25294-.10521.30479-.31203.61045-.38503.84361-.11676.51888.53016,1.40345-.10133,1.80054.17067-.44605-.23328-.7389-.40949-1.1167-.12509-.20251-.23225-.49414-.18503-.82568.06324-.40585.38433-.83979.4416-1.09533-.03269-.36607-.40268-.83474-.26983-1.29688.08665-.26745.25802-.46118.46969-.5625h0Z" style="fill: #936037;"/>
  </g>
</svg>