<svg width="68" height="140" viewBox="0 0 68 140" fill="none" xmlns="http://www.w3.org/2000/svg">
<path d="M22.3103 4.5C22.3103 3.39543 23.2057 2.5 24.3103 2.5H42.8103C43.9149 2.5 44.8103 3.39543 44.8103 4.5V42.5L63.5603 58.75V133.5C63.5603 135.709 61.7694 137.5 59.5603 137.5H7.5603C5.35116 137.5 3.5603 135.709 3.5603 133.5V58.75L22.3103 42.5V4.5Z" fill="url(#paint0_linear_402_5279)"/>
<path fill-rule="evenodd" clip-rule="evenodd" d="M21.8646 7.35848C21.9415 3.96272 24.7163 1.25 28.113 1.25H39.0076C42.4043 1.25 45.1791 3.96272 45.256 7.35848L45.5423 20L45.542 31.5555L45.6954 39.2868C45.7531 42.1975 47.2548 44.8889 49.7014 46.4668L60.9074 53.6934C64.1196 55.7649 66.0603 59.3257 66.0603 63.1479V127.613C66.0603 133.764 61.0741 138.75 54.9233 138.75H12.1973C6.04651 138.75 1.0603 133.764 1.0603 127.613V63.1479C1.0603 59.3257 3.00097 55.7649 6.21317 53.6934L17.4192 46.4668C19.8658 44.8889 21.3675 42.1975 21.4252 39.2868L21.5786 31.5554V19.9717L21.8646 7.35848ZM28.113 3.75C26.075 3.75 24.4101 5.37763 24.3639 7.41509L24.0786 20.0142V21.8432H43.042V20.0142L42.7567 7.41509C42.7105 5.37763 41.0456 3.75 39.0076 3.75H28.113ZM43.042 24.3432H24.0786V31.5926L23.9248 39.3364C23.8505 43.0787 21.9198 46.5391 18.7741 48.5678L7.56808 55.7944C5.06971 57.4056 3.5603 60.1751 3.5603 63.1479V127.613C3.5603 132.383 7.42723 136.25 12.1973 136.25H54.9233C59.6934 136.25 63.5603 132.383 63.5603 127.613V63.1479C63.5603 60.1751 62.0509 57.4056 59.5525 55.7944L48.3465 48.5678C45.2008 46.5391 43.2701 43.0787 43.1959 39.3364L43.0418 31.5678L43.042 24.3432Z" fill="#78350F"/>
<rect x="12.3103" y="62.5" width="42.5" height="65" rx="1" fill="white"/>
<path d="M8.08439 78.9294L58.5852 62.3188L58.5618 75.0025L8.11402 92.9734L8.08439 78.9294Z" fill="#B45309"/>
<rect x="27.3103" y="30" width="12.5" height="32.5" rx="0.5" fill="url(#paint1_linear_402_5279)"/>
<circle cx="33.5603" cy="48.75" r="8.25" fill="#7F1D1D" stroke="white"/>
<defs>
<linearGradient id="paint0_linear_402_5279" x1="-2.86827" y1="90.7813" x2="67.846" y2="90.7812" gradientUnits="userSpaceOnUse">
<stop stop-color="#78350F"/>
<stop offset="0.526042" stop-color="#3E0F0F"/>
<stop offset="1" stop-color="#78350F"/>
</linearGradient>
<linearGradient id="paint1_linear_402_5279" x1="33.5603" y1="30" x2="33.5603" y2="62.5" gradientUnits="userSpaceOnUse">
<stop stop-color="#DC2626"/>
<stop offset="0.510417" stop-color="#FCA5A5"/>
<stop offset="1" stop-color="#B91C1C"/>
</linearGradient>
</defs>
</svg>
