<?xml version="1.0" encoding="UTF-8"?>
<svg id="a" data-name="Layer 1" xmlns="http://www.w3.org/2000/svg" xmlns:xlink="http://www.w3.org/1999/xlink" viewBox="0 0 9.95914 32">
  <defs>
    <radialGradient id="b" cx="4.94112" cy="12.47589" fx="4.94112" fy="12.47589" r="10.34474" gradientUnits="userSpaceOnUse">
      <stop offset=".0118" stop-color="#e18440"/>
      <stop offset=".01528" stop-color="#e0833f"/>
      <stop offset=".15087" stop-color="#cd672a"/>
      <stop offset=".29609" stop-color="#bf5119"/>
      <stop offset=".45599" stop-color="#b4410e"/>
      <stop offset=".63996" stop-color="#ae3807"/>
      <stop offset=".90286" stop-color="#ad3605"/>
    </radialGradient>
    <radialGradient id="c" cx="4.94866" cy="23.65045" fx="4.94866" fy="23.65045" r="5.23793" gradientUnits="userSpaceOnUse">
      <stop offset="0" stop-color="#f4dbb8"/>
      <stop offset="1" stop-color="#ffcd93"/>
    </radialGradient>
    <radialGradient id="d" cx="1.67926" cy="12.27352" fx="1.67926" fy="12.27352" r="5.8439" gradientUnits="userSpaceOnUse">
      <stop offset="0" stop-color="#fdcf99"/>
      <stop offset="1" stop-color="#ffcd93"/>
    </radialGradient>
  </defs>
  <path d="m6.43023.5091c.17294.11839.2619.32716.2619.53674v2.55195l-.31549.14633h-2.80529l-.30421-.14633V1.04564c0-.20947.08896-.41801.26167-.53654.24292-.16671.51547-.29682.81764-.40316.3979-.14003.84007-.14067,1.23957-.0053.31671.10732.5966.23897.8442.40847Z" style="fill: #2b2b2b;"/>
  <path d="m8.69749,17.0722l1.23933,13.51952c.04504.4731-.25917.90136-.72106,1.02513-1.04775.28166-2.6701.31549-4.23613.38315-1.56603-.06766-3.18837-.1015-4.2474-.38315-.45061-.12377-.75482-.55204-.70978-1.02513l1.23933-13.51952c.01128-.11277-.03383-.22527-.12391-.30421l-1.02527-.9576c-.09015-.09008-.13519-.23669-.10136-.36046L1.97156,7.2255c.03376-.14647.14647-.2591.28166-.31549l.63091-.21399c.41685-.1466.68723-.52962.68723-.95774v-1.25054h2.80529v1.25054c0,.42812.27038.82242.68723.95774l.63091.21399c.14647.05639.24789.16902.28166.31549l1.9716,8.22443c.03383.12377-.01121.27038-.11264.36046l-1.0252.9576c-.07887.07894-.12398.19144-.1127.30421Z" style="fill: url(#b);"/>
  <rect x="3.57135" y="3.74412" width="2.80529" height=".74361" style="fill: #231f20;"/>
  <path d="m1.96128,17.58058c1.99485.22259,4.00416.20232,6.03174-.00138.066-.00663.12453.04108.13059.10713l1.06767,11.63351c.00598.06516-.04013.12442-.10494.13341-2.60115.36085-5.35983.35713-8.2719-.00136-.0657-.00809-.11472-.06802-.10835-.13391l1.12427-11.63153c.00639-.06609.06494-.11323.13092-.10587Z" style="fill: url(#c);"/>
  <path d="m1.76006,18.4137c2.15099.25931,4.29842.25893,6.44231,0" style="fill: none; stroke: #891506; stroke-miterlimit: 10; stroke-width: .5px;"/>
  <path d="m6.076,9.31707c-.65386.09021-.64259.28183-1.12738.36069-.48472-.07886-.47345-.27048-1.12731-.36069-.65386-.09006-.7891.36069-.7891.36069v4.08104c.42834.92434,1.91641.87924,1.91641.87924,0,0,1.48814.0451,1.91648-.87924v-4.08104s-.13524-.45075-.7891-.36069Z" style="fill: url(#d);"/>
</svg>