<?xml version="1.0" encoding="UTF-8"?>
<svg id="a" data-name="Layer 1" xmlns="http://www.w3.org/2000/svg" xmlns:xlink="http://www.w3.org/1999/xlink" viewBox="0 0 7.65958 32">
  <defs>
    <linearGradient id="b" x1="-.51487" y1=".42378" x2="8.33826" y2=".42378" gradientUnits="userSpaceOnUse">
      <stop offset="0" stop-color="#db2726"/>
      <stop offset="1" stop-color="#f37160"/>
    </linearGradient>
    <linearGradient id="c" x1=".86316" y1="3.79146" x2="6.91306" y2="3.79146" gradientUnits="userSpaceOnUse">
      <stop offset="0" stop-color="#d1d3d4"/>
      <stop offset="1" stop-color="#e6e7e8"/>
    </linearGradient>
    <linearGradient id="d" x1="2.13989" y1="6.38645" x2="5.4597" y2="6.38645" xlink:href="#b"/>
    <linearGradient id="e" x1="2.03992" y1="7.24642" x2="5.5297" y2="7.24642" xlink:href="#b"/>
    <linearGradient id="f" x1="-9.26073" y1="19.95445" x2="17.34748" y2="19.95445" gradientUnits="userSpaceOnUse">
      <stop offset=".10551" stop-color="#ee2346"/>
      <stop offset=".24531" stop-color="#db2640"/>
      <stop offset=".50928" stop-color="#bd2c38"/>
      <stop offset=".73632" stop-color="#ab3032"/>
      <stop offset=".89866" stop-color="#a53231"/>
    </linearGradient>
    <linearGradient id="g" x1="122.51605" y1="28.21854" x2="125.55018" y2="31.10001" gradientTransform="translate(-103.82705 -43.69034) rotate(18.13978)" gradientUnits="userSpaceOnUse">
      <stop offset="0" stop-color="#f27581"/>
      <stop offset=".97739" stop-color="#ef4444"/>
    </linearGradient>
    <linearGradient id="h" x1="-63.99451" y1="1.02719" x2="-63.07493" y2="1.79125" gradientTransform="translate(64.74395 9.30171) rotate(-10.51794)" gradientUnits="userSpaceOnUse">
      <stop offset="0" stop-color="#93aa59"/>
      <stop offset=".07595" stop-color="#8fa655"/>
      <stop offset=".4225" stop-color="#859c4b"/>
      <stop offset=".83704" stop-color="#829948"/>
    </linearGradient>
    <linearGradient id="i" x1="359.44747" y1="1.3124" x2="360.17824" y2="1.91958" gradientTransform="translate(357.01055 -44.96138) rotate(169.48206) scale(1 -1)" xlink:href="#h"/>
    <linearGradient id="j" x1="-62.40421" y1="2.73078" x2="-63.44549" y2="2.98096" gradientTransform="translate(64.74395 9.30171) rotate(-10.51794)" gradientUnits="userSpaceOnUse">
      <stop offset=".04972" stop-color="#332532"/>
      <stop offset=".32726" stop-color="#2f212d"/>
      <stop offset=".62324" stop-color="#241720"/>
      <stop offset=".82081" stop-color="#1a0d14"/>
    </linearGradient>
    <linearGradient id="k" x1="-62.14621" y1="1.88054" x2="-62.88999" y2="2.6784" xlink:href="#j"/>
    <linearGradient id="l" x1="-63.74095" y1="1.99713" x2="-62.99013" y2="2.70391" xlink:href="#j"/>
  </defs>
  <path d="m5.39989.21751v.63004c-1.04004-.17005-2.09015-.17005-3.1402,0V.21751c0-.07001.04999-.12.12-.12C3.34978-.0325,4.3098-.0325,5.27989.09751c.07001,0,.12.04999.12.12Z" style="fill: url(#b);"/>
  <path d="m5.39989.84755v1.48007c0,.06-.02002.09998-.07001.13001l-.03003.02997c-.04999.03003-.07996.08002-.06995.14002-.93011-.19001-1.87011-.19001-2.80022,0,.01001-.06-.01996-.10999-.06-.14002l-.03998-.02997c-.04999-.03003-.07001-.07001-.07001-.13001V.84755c1.05005-.17005,2.10016-.17005,3.1402,0Z" style="fill: #e9eaf4;"/>
  <path d="m5.36986,5.09781c-1.02002-.09003-2.05011-.09003-3.08014,0,.04999-.8001.09998-1.6301.13996-2.47018.93011-.19001,1.87011-.19001,2.80022,0,.03998.84008.08997,1.67008.13996,2.47018Z" style="fill: url(#c);"/>
  <path d="m5.43968,5.89149v.05005c-.38999.20995-.98993.30998-1.63992.34996-.65993.08996-1.2199.21996-1.63986.40995,0-.02997.01001-.07.01001-.09997.04998-.48996.07995-.97992.11999-1.49991,1.02991-.09002,2.05988-.09002,3.07978,0,.02002.25999.04004.53995.07.78993Z" style="fill: #e9eaf4;"/>
  <path d="m5.64969,8.02137c-1.21996-.14995-2.42985-.14995-3.6398,0,.01001-.05999.01001-.10998.02002-.16997.42997-.23998,1.02991-.37998,1.76985-.47995.16002-.01001.31999-.03003.48001-.05005h.03998c.11999-.00995.22997-.02997.34001-.04998.11999-.01996.23998-.04998.33995-.07995.04998-.01001.09002-.03003.13-.04004.11999-.02997.22002-.08001.30998-.13h.02002c.02002-.01996.04998-.03998.07-.04998v.02002c.02997.34996.08001.69997.11999,1.02991Z" style="fill: #e9eaf4;"/>
  <path d="m5.5297,6.97144c-.03003.02002-.05999.03998-.09002.04998-.01996.02002-.04998.03003-.07995.03003-.07.03998-.15002.07-.23003.09997-.03998.01001-.08001.03003-.13.04004-.10998.02997-.21996.05999-.33995.07995-.11004.02002-.22002.03003-.34001.04998h-.03998c-.15002.02002-.30998.04004-.48001.05005-.73995.09997-1.33989.23998-1.76985.47995,0-.02002.01001-.03998.01001-.05999v-.01001c.00995-.09997.01996-.17998.02997-.27995.03003-.2.04998-.41001.07-.62002.01001-.05999.01001-.11999.02002-.17998.41996-.18999.97992-.31999,1.63986-.40995.64999-.03998,1.24993-.14001,1.63992-.34996,0,.06994.01001.13995.02002.20995.01001.18999.02002.37998.03998.55996.01001.09002.02002.17998.03003.25999Z" style="fill: #e9eaf4;"/>
  <g>
    <path d="m5.30557,7.37159c.04625.0284.0925.0568.13886.08525.02285-.03394.04559-.06793.06832-.10194.01954.10574.03909.2115.05864.31726-.00129.01054-.00068.02154-.00424.03152-.01162.03257-.02476.06476-.03731.0971-.01356-.02841-.03395-.05596-.03941-.0854-.01696-.09138-.12824-.04734-.17873-.08878-.00204-.08501-.00409-.17001-.00613-.25502Z" style="fill: #633115;"/>
    <path d="m3.21526,6.16095c.00031-.00817.00062-.01634.001-.02448-.01079-.07378-.02164-.14759-.03249-.22139,0,0,.00682.00379.00684.00381.1237-.01042.18402.03106.16508.13749.03021.05638.06041.11276.09592.17904.0009-.00049-.0253.01394-.0515.02836-.0514.00889-.1028.01779-.15421.02669-.01874-.03008-.03745-.06016-.0562-.09023-.00003.00002.00161-.00175.00159-.00172.01403-.00293.02808-.00589.04213-.00886-.00605-.00957-.01211-.01915-.01816-.02872Z" style="fill: #be2c34;"/>
    <path d="m3.62513,7.75746c.05563-.06084.12283-.04606.19173-.02003.00802.03625.01606.07251.0241.10877-.01945.00845-.03889.01691-.05834.02536-.05058-.00961-.10115-.01922-.15171-.02883-.0006-.01326-.00122-.02651-.00184-.03977-.00131-.01517-.00263-.03034-.00394-.04551Z" style="fill: #7d9730;"/>
    <path d="m3.42505,7.46408c.01117.06981.02233.13961.03355.20942-.01604.00922-.03212.01843-.04821.02764-.01852-.07048-.03864-.14075-.05236-.21186-.00103-.00532.04361-.01666.06702-.0252Z" style="fill: #c6c4c3;"/>
    <path d="m4.99573,7.65348c-.03521-.1257-.07043-.25139-.1057-.37712.05363-.00905.10731-.01807.161-.0271.0235.08118.05025.16184.06938.24372.01354.05792.01676.11749.02459.17632-.01106.0032-.02212.0064-.03318.0096-.01878-.03192-.03756-.06385-.05958-.10127-.02015.02705-.03833.05145-.05651.07586Z" style="fill: #655959;"/>
    <path d="m4.69255,7.35419c.11539.09284.1304.21014.11763.3336-.00242.02343-.01182.04637-.018.06955-.02101-.04826-.05019-.09529-.06119-.14507-.01881-.08512-.02623-.17196-.03844-.25808Z" style="fill: #655959;"/>
    <path d="m2.28972,6.41529c.00775-.08661.00956-.17402.02633-.25943.00625-.03182.04747-.05895.07275-.08822.01647.00475.03294.00949.04941.01424,0,.07432-.00289.14875.00163.22288.0015.02454.02209.04829.03397.0724-.03808.08942-.11521.05019-.18409.03812Z" style="fill: #be2c34;"/>
    <path d="m5.07706,5.4346c-.00055.09619-.00684.19274.00201.28833.00249.0269.04939.051.07591.07639.03468.00654.06935.01308.10403.01962-.00043.00721-.00086.01442-.00129.02163-.04273.00564-.08547.01127-.1282.01691-.00924.00084-.01848.00168-.02772.00253-.04148-.04882-.08295-.09763-.12442-.14645l-.00187-.10873c.00065-.01321.00129-.02641.00194-.03962-.00266-.01392-.00533-.02785-.00799-.04177.01534-.02361.02673-.05007.0475-.06977.01245-.01181.03957-.01306.0601-.01906Z" style="fill: #e9e9e7;"/>
    <path d="m5.25901,5.81894c-.03468-.00654-.06935-.01308-.10403-.01962.00007-.12118.00013-.24235.0002-.36353.02759-.00694.05517-.01387.08282-.02081.00046.04136.00084.08271.0013.12405.00661.09329.01316.1866.0197.27991Z" style="fill: #e7e4e2;"/>
    <path d="m4.97551,5.60482c.00062.03624.00125.07249.00185.10872-.01721.0077-.0344.01542-.05158.02314-.03573-.02108-.07145-.04216-.10717-.06325-.00532-.01593-.01066-.03184-.01599-.04776.03722-.05522.02307-.14507.14283-.14466.00799.01412.01599.02825.02401.0424.00268.01394.00534.02787.008.04176-.00065.0132-.0013.02642-.00194.03965Z" style="fill: #655959;"/>
    <path d="m2.65593,7.86362c-.01239-.07629-.02478-.15258-.03718-.22887l.05435-.01287c.03708.07479.07416.14957.11123.22439-.04281.0058-.08561.01157-.1284.01734Z" style="fill: #f4f1ef;"/>
    <path d="m4.43241,7.8848c-.00998-.01345-.01996-.0269-.02994-.04035-.01175-.0012-.02351-.00239-.03526-.00358-.03659-.14153-.07318-.28306-.10978-.42459.04635-.00937.0927-.01875.14154-.02862.03421.04938.07098.10244.10775.15551.01682.05023.03364.10046.05045.15068-.01616.05935-.03232.11871-.05091.187-.01596.00085-.0449.0024-.07384.00395Z" style="fill: #633115;"/>
    <path d="m4.55717,7.69384c-.01682-.05023-.03363-.10046-.05045-.15067-.00635-.05637-.01271-.11276-.01906-.16915.02515.00066.05029.00132.07545.00199.03285.16031.06569.3206.09854.4809-.07294.0144-.1107-.0023-.10019-.07106.00459-.03004-.0025-.06131-.00429-.09202Z" style="fill: #dbdbd9;"/>
    <path d="m4.76504,5.32517c-.01164.0326-.02328.0652-.03584.10039-.02918.0077-.06142.01573-.09326.02471-.09303.02623-.13703-.00944-.1514-.0818-.0157-.07913-.03056-.15837-.05215-.27065.10346.02088.19411.03918.28477.05748.01596.05663.03192.11325.04788.16988Z" style="fill: #7d9730;"/>
    <path d="m4.25265,5.8403c-.02683-.02319-.05365-.04637-.08049-.06948.00411-.00504.00318-.0095-.0028-.01331-.01068-.03579-.02136-.07157-.03199-.10732.00317-.02915.00629-.05834.00942-.08753.01771-.00387.03543-.00774.05308-.01155.01885.00073.03776.00141.05667.00208,0,0,.00807.00679.00799.0068.00562.02077.01133.04153.01705.0623.00639.03846.01278.07693.01916.11533-.00167.02631-.00334.05269-.00501.07907-.01436.00787-.02872.01574-.04307.02361Z" style="fill: #7d9730;"/>
    <path d="m4.51964,5.53332c.14233-.0124.16273.02476.13527.23161-.11861-.00335-.15137-.05742-.13527-.23161Z" style="fill: #7d9730;"/>
    <path d="m4.35716,5.4692l-.04543-.219.05547-.00663c.01496.07289.02993.14578.04489.21867-.01831.00232-.03662.00464-.05493.00696Z" style="fill: #af9ea1;"/>
    <path d="m3.11688,5.45506c-.0002.03885.01133.08124-.00382.11559-.01612.03654-.0498.07806-.0897.09475-.05912.02473-.12201.00788-.13615-.05498-.03679-.16353-.06858-.32782-.10237-.4918,0,0,.00057-.00055.00056-.00055.08404,0,.16809,0,.25214,0,.02543.08596.05087.17192.0763.25788.00102.02637.00203.05274.00305.07911Z" style="fill: #be2c34;"/>
    <path d="m2.8091,6.18434c-.02625.00518-.0525.01035-.07875.01553-.05507-.04489-.11641-.08596-.16179-.13676-.01571-.01759.00487-.08515.0145-.08598.08413-.00734.16953-.00494.25455-.00489.01543,0,.03287.00704.04595.00309.07731-.02333.10787-.01768.06201.05555-.01457.02326-.00958.05488-.03262.06947-.03461.028-.06923.056-.10384.084Z" style="fill: #e7e4e2;"/>
    <path d="m2.51286,5.46186c.01363.09417.02694.18611.04043.27931-.07222.02251-.13012.043-.13123-.04734-.00046-.03728-.00758-.07763-.02621-.11104-.05865-.10518.00966-.12158.11701-.12093Z" style="fill: #7d9730;"/>
    <path d="m4.04438,6.07799c-.05889.0119-.11779.0238-.17664.03568-.00542-.01633-.0188-.03411-.01483-.04865.01046-.03834.01615-.09688.0459-.10844.07028-.0273.12073.00185.12228.07356.00035.01606.01515.03191.02329.04785Z" style="fill: #7d9730;"/>
    <path d="m4.10054,7.45909c-.00259.01368-.00518.02736-.00778.04105-.03129.00709-.06258.01417-.09386.02125-.00899-.04062-.01798-.08125-.02696-.12188.06153-.00762.11631-.00531.1286.05958Z" style="fill: #7d9730;"/>
  </g>
  <path d="m5.4597,6.15148c-.38999.16997-.93995.28001-1.64993.31999-.71993.09997-1.26988.22997-1.66988.40995.01001-.05999.01001-.11999.02002-.17998,0-.02997.01001-.07.01001-.09997.40995-.15996.9499-.28001,1.60989-.37998.74996-.04998,1.29991-.15996,1.65988-.33v.05005c0,.06994.01001.13995.02002.20995Z" style="fill: url(#d);"/>
  <path d="m5.5297,6.97144v.02002c-.02002.01001-.04998.01996-.07.02997h-.02002c-.01996.02002-.04998.03003-.07995.03003-.36003.14001-.86.22997-1.54996.27995-.80995.10003-1.36991.24999-1.76985.44999.00995-.09997.01996-.17998.02997-.27995.41001-.18999.94996-.31999,1.70992-.42002.53995-.03998,1.27989-.11999,1.71987-.36997.01001.09002.02002.17998.03003.25999Z" style="fill: url(#e);"/>
  <path d="m7.49956,15.72093v13.77922c0,.01996,0,.03998.01001.05999l.14001.25993c.01001.02002.01001.04004.01001.05999v1.24993c0,.48001-.38999.87001-.86.87001H.86c-.47,0-.86-.38999-.86-.87001v-1.24993c0-.01996,0-.03998.01001-.05999l.14001-.25993c.01001-.02002.01001-.04004.01001-.05999v-13.77922c0-.09002-.03003-.17998-.08001-.24999s-.08001-.15996-.08001-.24999v-2.09985c0-.18999.09002-.36997.24999-.47.93995-.57998,1.44993-2.33983,1.75991-4.62973,1.20995-.14995,2.41984-.14995,3.6398,0,.30998,2.2899.81996,4.04975,1.75991,4.62973.15996.10003.24999.28001.24999.47v2.09985c0,.09002-.03003.17998-.08001.24999s-.08001.15996-.08001.24999Z" style="fill: url(#f);"/>
  <path d="m7.1489,17.04942v11.27319c0,.16026-.12324.29682-.28271.3128-2.08467.20892-4.14528.21064-6.17667-.01356-.15829-.01747-.27882-.15377-.27882-.31302v-11.24701c0-.16141.12431-.29815.28509-.31242,2.05527-.18243,4.11159-.1873,6.16685-.01255.16128.01371.28626.15071.28626.31256Z" style="fill: #e9eaf4;"/>
  <path d="m3.80435,28.33822c-.91074,0-1.82104-.03266-2.71845-.09799-.16307-.01187-.28887-.14975-.28887-.31325v-10.47007c0-.16482.12923-.30291.29376-.31267.92782-.05508,1.85833-.08227,2.77902-.08227.8623,0,1.73208.02365,2.59827.07165.16492.00914.2945.14726.2945.31244v10.48851c0,.16399-.12924.302-.29286.31301-.89829.06043-1.79048.09064-2.66536.09064Z" style="fill: none; stroke: #8d0c0f; stroke-miterlimit: 10; stroke-width: .3px;"/>
  <path d="m.40844,15.52093c.54286-.18517,1.10453-.2863,1.67156-.31474.57113.01111,1.1356.02832,1.70064-.0473,1.12886-.11761,2.29688-.04309,3.37126.36222l-.00601.02936c-1.13911-.04547-2.2356-.13787-3.36321-.22734-.56373-.06158-1.12724.01825-1.68035.13061-.55729.07293-1.1163.11181-1.68937.09686l-.00453-.02966Z" style="fill: #782e47;"/>
  <g>
    <path d="m5.1954,22.05977l-.11469.0857c-.04815-.01578-.10127-.02651-.14745-.04831-.08029-.03965-.13073-.10947-.1482-.19849-.01442-.07802-.00582-.15518.01282-.23237.00388-.02203.01287-.0291.03589-.02822.08316.01059.16036.02921.23268.0729.08539.05464.12585.13454.13239.23663.00217.03404-.00364.07212-.00344.11217Z" style="fill: #4ade80;"/>
    <path d="m5.57771,22.02176c-.12903.02768-.24893.07837-.35164.15799-.05785.04436-.1046.10569-.15839.15802-.00597.00805-.00893.01707-.00789.02408-.03326-.04087-.09846-.06557-.09846-.06557.03881-.04726.0786-.09753.11939-.15081l.11469-.0857c.008-.00405.01599-.0081.02495-.01515.1018-.0666.21776-.10526.33376-.13388.036-.0082.06915.01265.07531.04467.00617.032-.01271.05914-.05172.06636Z" style="fill: #7c2d12;"/>
    <path d="m5.5874,23.29794c-.01263.01276-.02778.0268-.04232.03894-.03099.02365-.04796.05611-.04839.0961-.00116.02285-.00484.04699-.00789.06922-.00303.02858-.02198.04772-.04729.06054-.01328.00832-.02658.01664-.04115.02243-.04308.01545-.0702.04669-.07952.088-.01421.07561-.05782.11201-.13142.11747-.04186.00529-.07222.02703-.09297.06459-.00691.01463-.01763.02801-.02644.04203-.01889.03183-.04674.04594-.08229.04485-.01714.00073-.03428.00144-.05269-.00036-.03683-.00362-.07042.00862-.0963.03604-.012.01086-.02401.02171-.03601.03256-.03473.03509-.07659.04038-.11859.02028-.05283-.02575-.10426-.02993-.15681-.0049-.00253.00127-.00444.00065-.00444.00065-.06906.02385-.09259.01826-.12971-.04249-.0301-.04998-.07088-.08024-.12869-.09074-.04956-.0099-.08018-.03894-.08616-.09159q-.00191-.00063-.00128-.00253c-.00352-.06663-.03424-.11471-.09344-.14678-.04646-.02578-.06063-.06634-.05456-.11715.00247-.01396.0024-.02666.00487-.04064.00175-.03112-.00601-.059-.02772-.08302-.01213-.01453-.02427-.02907-.03703-.04171-.02937-.03285-.03653-.06899-.02088-.11034.00375-.01144.0056-.02351.01125-.03433.01757-.04071.01355-.08004-.01075-.11546-.04094-.062-.04124-.11912.00925-.17651.02523-.03187.03199-.07188.01973-.11182-.0052-.02282-.00848-.04503-.0105-.06469-.00395-.02664.00546-.0489.02378-.06614.01454-.01212.02717-.02489.04108-.03512.02782-.02046.0391-.04844.03957-.08209-.00072-.01712-.00082-.03617.00036-.05269.00046-.03364.01431-.05656.04408-.07004.01266-.00641.02594-.01473.03989-.01862.03802-.01289.05818-.04219.07006-.07843l.01312-.04006c.00937-.02861.0296-.04522.06006-.04792.01966-.002.0368-.00273.05521-.00092.03365.00047.06088-.01174.08423-.03788.01325-.01467.02841-.02871.04105-.04147.02401-.02171.0494-.02183.07738-.01055.01717.00563.03433.01125.05279.0194.02926.01382.05972.01112.08691-.00743.05947-.03965.1109-.03547.1607.01886.0268.02778.0611.03269.0985.02171.01838-.00455.03614-.00718.05453-.01171.00634-.00004.01141-.0026.01519-.00769,0,0,.04133.01566.06242.04157.00319.00316.00576.00823.00704.01075.02815.04303.06637.06822.1209.05651.01141-.00259.02157-.00138.03173-.00016.03237-.00207.05529.01177.07002.03773.00386.00759.01023.01391.01217.02089.01746.06274.06772.08343.12553.09393.03749.00806.06045.02825.06445.06758.00264.01777.00526.03553.00789.05328.00332.02855.01487.05135.03908.06772.01528.01135.02867.02207.04335.03532.03058.0227.03519.05377.02394.08811l-.01562.04769c-.00875.02671-.00418.05144.00927.07486.00769.01519.0173.03101.02499.04621.01858.03355.01683.06466-.00714.09271-.01009.01148-.01638.02421-.02585.03378-.02398.02805-.03015.05981-.01855.0953.00389.01395.00776.02789.01102.04374.00651.03171-.00223.0584-.02496.08265Z" style="fill: url(#g);"/>
  </g>
  <g>
    <path d="m3.3272,22.7468c-.00608-.01544-.01208-.03092-.01855-.04619-.0634-.14969-.14854-.28622-.25191-.41129-.20944-.25343-.4626-.44894-.76785-.57417-.13179-.05406-.26848-.08904-.41111-.09891-.02183-.00151-.04388.00032-.06553-.00408l-.00272.00051-.00817.00152c-.0025.00467.00244.00945-.00019.01413l.00101.00545c.00342.00594.0046.01229.00354.01906l.01315.07081c.00324.00504.00425.01048.00303.01634l.00506.02724c.0048.00125.004.00571.00491.00898.02991.10753.07238.20991.12605.30768.09996.18211.2295.34074.38186.4813.04954.0457.10203.08784.15495.12948.01373.01763.03303.02758.05208.03788.02401.01544.04815.0307.07087.04805.09369-.05398.19451-.0794.30263-.07512.08616.00341.16672.0272.24257.0677.03196.01936.06346.03943.09155.06426.0063.00557.00784.0016.01099-.00295.02025-.02919.04213-.05705.0679-.08168-.00437.00035-.00493-.00297-.00613-.00602Z" style="fill: url(#h);"/>
    <path d="m3.0817,22.87765c.00011-.01319.00014-.02638.00058-.03955.00433-.12911.02853-.25467.06952-.37692.08305-.24772.21506-.46495.40574-.6449.08233-.07769.17374-.14263.27671-.19063.01576-.00735.03264-.01228.04744-.02171l.00216-.0004.00649-.00121c.00319.00275.00089.0077.00417.01042l.0008.00433c-.00084.00538.0001.01043.00281.01515l.01045.05628c-.00097.00466-.00016.00899.00241.01299l.00402.02165c-.0032.0023-.00134.00538-.00108.00807.00849.08829.00619.17634-.00573.26417-.02219.16359-.07303.3182-.14594.46592-.02371.04803-.05062.09426-.07799.14024-.00515.01699-.01663.02988-.02782.04295-.01341.0183-.02696.03651-.03886.05586-.08489-.01331-.16692-.00341-.24589.03061-.06294.02711-.1159.06773-.16061.11941-.01819.02348-.03582.04735-.04957.07378-.00308.00593-.00536.00342-.00899.00095-.02334-.01587-.04752-.03029-.07366-.04122.00334-.00099.00281-.00361.00283-.00622Z" style="fill: url(#i);"/>
    <circle cx="3.30904" cy="23.63564" r=".42792" style="fill: url(#j);"/>
    <circle cx="3.67227" cy="22.98677" r=".46767" style="fill: url(#k);"/>
    <circle cx="2.87217" cy="23.17969" r=".51557" style="fill: url(#l);"/>
  </g>
</svg>