<?xml version="1.0" encoding="UTF-8"?>
<svg id="a" data-name="Layer 1" xmlns="http://www.w3.org/2000/svg" xmlns:xlink="http://www.w3.org/1999/xlink" viewBox="0 0 9.03319 32.00088">
  <defs>
    <linearGradient id="b" x1="311.54979" y1="2.67227" x2="321.01875" y2="2.67227" gradientUnits="userSpaceOnUse">
      <stop offset="0" stop-color="#edac64"/>
      <stop offset=".39527" stop-color="#f1933e"/>
      <stop offset=".98817" stop-color="#f8700a"/>
    </linearGradient>
    <linearGradient id="c" x1="2.74085" y1="5.6932" x2="6.29087" y2="5.6932" gradientUnits="userSpaceOnUse">
      <stop offset="0" stop-color="#f97917"/>
      <stop offset=".62838" stop-color="#f8710c"/>
      <stop offset=".73739" stop-color="#f8700a"/>
    </linearGradient>
    <linearGradient id="d" x1="-3.98548" y1="21.1161" x2="12.42652" y2="21.1161" gradientUnits="userSpaceOnUse">
      <stop offset="0" stop-color="#edaa62"/>
      <stop offset=".65455" stop-color="#f48429"/>
      <stop offset="1" stop-color="#f8700a"/>
    </linearGradient>
    <linearGradient id="e" x1="-56.31743" y1="11.72267" x2="-37.55734" y2="11.72267" gradientUnits="userSpaceOnUse">
      <stop offset="0" stop-color="#e0e0e0"/>
      <stop offset="1" stop-color="#d0d0d0"/>
    </linearGradient>
    <linearGradient id="f" y1="29.41386" y2="29.41386" xlink:href="#e"/>
    <linearGradient id="g" x1="2.79847" y1="20.12138" x2="5.775" y2="22.75087" gradientUnits="userSpaceOnUse">
      <stop offset="0" stop-color="#fdba74"/>
      <stop offset=".05386" stop-color="#fcb66f"/>
      <stop offset=".41952" stop-color="#fba253"/>
      <stop offset=".73967" stop-color="#fb9642"/>
      <stop offset=".97739" stop-color="#fb923c"/>
    </linearGradient>
  </defs>
  <path d="m6.34454.46705l-.05288,4.87749c-.14104-.04405-.26438-.08816-.40541-.12339v-.01764c-.23791-.0617-.4847-.10575-.72266-.13216-.2115-.02646-.43182-.04411-.64332-.04411s-.43182.01764-.64332.04411c-.24679.02641-.4847.07046-.73148.13216v.01764c-.14098.03523-.26438.07934-.40541.12339l-.05288-4.87749c-.00882-.25555.19391-.46705.44064-.46705h2.77608c.24673,0,.44947.2115.44064.46705Z" style="fill: url(#b);"/>
  <path d="m6.29087,5.23497v1.17173c-1.18712-.1972-2.36289-.1972-3.55001,0v-1.17173c.03428-.01161.06849-.01161.10276-.02323.27395-.0696.55932-.13921.84469-.17398.27395-.03484.55932-.05806.83326-.05806s.55932.02323.83326.05806c.27402.03477.54796.10437.83333.17398.03421.01161.06849.01161.1027.02323Z" style="fill: url(#c);"/>
  <path d="m6.52155,8.12591c-1.33957-.11457-2.67033-.11457-4.00985,0,.11452-.22909.16739-.47588.16739-.73143l-.01759-.97827.4847-.35248c.91652-.1498,1.82427-.1498,2.74079,0l.49352.35248-.01759.97827c-.00882.25555.05288.51111.15863.73143Z" style="fill: #e1e0e3;"/>
  <path d="m9.03319,15.0881v11.73875c-3.30483.423-6.31881.423-9.03319,0v-11.73875c2.71438.423,5.72837.423,9.03319,0Z" style="fill: url(#d);"/>
  <path d="m8.03084,16.2104v9.73004c-1.28998.13-2.54999.20001-3.73999.20001-1.13995,0-2.23999-.06006-3.28998-.19v-9.72003c1.06.12,2.15997.17999,3.28998.17999,1.20001,0,2.45001-.07001,3.73999-.20001Z" style="fill: #fff;"/>
  <path d="m9.03319,10.75218v4.33592c-3.30483.423-6.31881.423-9.03319,0v-4.33592c0-.33489.16745-.64338.44064-.82841.66097-.44064,1.31311-.89011,1.75375-1.33957.13221-.13221.23796-.29084.3173-.45829,1.33952-.11457,2.67027-.11457,4.00985,0,.07929.16745.18504.32607.31725.45829.44064.44947,1.09279.89893,1.75375,1.33957.2732.18504.44064.49352.44064.82841Z" style="fill: url(#e);"/>
  <path d="m9.03319,26.82685v4.40057c0,.22914-.1498.43188-.37895.48475-1.38363.35248-2.76725.27901-4.13324.28783-1.37481-.00882-2.75843.06465-4.14206-.28783-.22032-.05288-.37895-.25561-.37895-.48475v-4.40057c2.71438.423,5.72837.423,9.03319,0Z" style="fill: url(#f);"/>
  <g>
    <path d="m5.8012,20.05796c.23827.1936.4248.42842.55573.706.1804.38248.23665.78378.17136,1.20139-.05758.36832-.20624.69798-.44781.98036-.42361.49517-.96565.74034-1.61791.72938-.4211-.00708-.80314-.13969-1.14356-.3883-.40434-.29529-.66781-.68786-.78248-1.17384-.12425-.52659-.05485-1.03194.22216-1.49832.33521-.56436.83422-.894,1.48412-.99314.00404-.00062.00801-.00171.01201-.00259.01678.00354.01925.01838.02304.03102.00985.03282.01946.06576.02899.09864.01137.03923.00458.06437-.03283.08441-.03178.01702-.06201.04176-.05711.08306.00479.04032.03879.06112.07265.07113.12124.03585.23965.02831.34747-.04272.06436-.0424.05757-.11453-.016-.13647-.06156-.01836-.08751-.05236-.09407-.11149-.00254-.02292-.01376-.04458-.01851-.06739-.00248-.0119-.01284-.02665.00595-.03563.02734.00545.04385.02716.06381.04329.1627.13147.3355.24679.52921.32787.13974.05849.28746.07868.43758.08592.07132.00344.1425-.00181.21376-.00166.01475.00003.03047-.00407.04244.00909Z" style="fill: url(#g);"/>
    <path d="m5.8012,20.05796c-.11799.00405-.23587.00842-.3539-.00241-.20343-.01866-.38971-.08439-.56371-.19125-.13137-.08068-.25556-.17039-.37409-.26848-.02967-.00259-.0412-.02849-.05936-.04598-.03555-.03423-.06622-.07218-.08879-.11621-.02816-.05494-.02173-.08962.02412-.13478.00487.00187.00919.00606.01513.00218.14408-.09422.3068-.11409.47306-.11488.22407-.00107.4358.04578.62408.1743.13797.09417.2581.20844.37091.33089.08277.08984.15919.1848.23207.28279.01839.02473.01877.03351-.01482.04036-.09426.01924-.1896.0304-.28471.04347Z" style="fill: #5c903b;"/>
    <path d="m4.38547,19.29885c-.00018.00269.00069.00627-.00071.00795-.0599.07165-.01695.12884.02772.18372.03007.03695.06454.07032.09703.10529.01377.05147.02872.10266.04072.15454.00439.01899.01247.02803.03119.03158.02703.00513.05279.01438.07503.03159.04652.03599.04933.08602.00614.12602-.02864.02653-.0634.04345-.09998.05525-.07977.02573-.16122.03072-.2434.01273-.01724-.00377-.03459-.00939-.05035-.01724-.08437-.04201-.08947-.11343-.00827-.16175.03754-.02234.05065-.04175.03468-.08512-.01499-.04074-.02376-.084-.04047-.12452-.0725-.20738-.18584-.39259-.31031-.57178-.03675-.0529-.07605-.10378-.11701-.15351-.05169-.06275-.05318-.13591-.00567-.182.05541-.05375.13708-.04738.19141.01773.0421.05046.08295.10223.12078.15595.09305.13215.17985.2683.25146.41357Z" style="fill: #662113;"/>
  </g>
</svg>