<?xml version="1.0" encoding="UTF-8"?>
<svg id="a" data-name="Layer 1" xmlns="http://www.w3.org/2000/svg" xmlns:xlink="http://www.w3.org/1999/xlink" viewBox="0 0 7.45369 32">
  <defs>
    <linearGradient id="b" x1="2.19527" y1="4.70042" x2="5.25843" y2="4.70042" gradientUnits="userSpaceOnUse">
      <stop offset="0" stop-color="#d1d3d4"/>
      <stop offset="1" stop-color="#e6e7e8"/>
    </linearGradient>
  </defs>
  <path d="m5.2419,4.41493c-1.00866-.26871-2.01731-.26871-3.03011-.00414l.03308-1.53366c0-.06199.03305-.11987.08679-.15709l.08268-.05374c.03308-.02066.02894-.07027-.00414-.09093l-.10335-.05788c-.03719-.03719-.06199-.08679-.06199-.14054V.32243c.30176-.21494.86396-.2811,1.47989-.32243.62008.04133,1.1823.10748,1.48406.32243v2.05453c0,.05374-.0248.10335-.06202.14054l-.10335.05788c-.03305.02066-.03719.07027-.00411.09093l.08266.05374c.05374.03722.08682.0951.08682.15709l.03308,1.5378Z" style="fill: #2a2b46;"/>
  <path d="m5.25843,5.18796c-1.02104-.27696-2.03798-.27285-3.06316-.00414l.01653-.77302c1.01279-.26457,2.02145-.26457,3.03011.00414l.01653.77302Z" style="fill: url(#b);"/>
  <path d="m5.34111,9.05308c-1.07481-.29349-2.15374-.28937-3.22852-.00414l.08268-3.86512c1.02518-.26871,2.04212-.27282,3.06316.00414l.08268,3.86512Z" style="fill: #dbdd8b;"/>
  <path d="m7.15173,28.82936v2.02556c0,.19844-.0951.38447-.25216.5002-.63249.4506-1.90572.54567-3.17481.64488-1.26495-.09921-2.53816-.19428-3.17064-.64488-.16123-.11573-.25216-.30176-.25216-.5002v-2.02556C.30196,28.75081.0002,12.47177.0002,12.47177c-.00828-.52914.23974-1.02932.66968-1.33936l1.16574-.83918c.1612-.11573.2563-.30176.26041-.50018l.01655-.74411c1.07479-.28524,2.15371-.28935,3.22852.00414l.01653.73997c.00414.19842.09921.38444.26043.50018l1.16574.83918c.42991.31004.67795.81022.66968,1.33936,0,0-.30176,16.27904-.30176,16.35759Z" style="fill: #20b059;"/>
  <path d="m5.74928,26.6839c-.13229.11987-.2811.22736-.44232.31418-.20255.1116-.42163.20669-.65727.28524-.70276.23974-1.42618.28935-2.07933.16948-.95078-.24802-1.46494-.8729-1.7874-1.71208-.57872-1.49645.22896-3.17825,2.12637-3.79419.59527-.19428,1.20296-.2563,1.77341-.20255.27793.02507.5474.08923.79989.18714.53204.2063.96208.6387,1.16446,1.17224.00113.00297.00225.00594.00336.00892.00414.00414.00414.00828.00828.01241.46713,1.27734.07027,2.64978-.90945,3.55923Z" style="fill: #f2f2f2;"/>
  <path d="m4.27087,22.30995c.1192,0,.23715.00519.35458.0155.23669.01984.46878.07037.68982.15015.42784.15448.77927.48236.94324.88483l.02478.06091.00304.00287c.35756.97833.05052,2.03967-.80711,2.78088-.11331.09558-.23605.17682-.3674.24268-.17783.09125-.3736.17029-.58379.23547-.40347.12817-.81766.19318-1.23105.19318-.21106,0-.4198-.0174-.60014-.04749-.72957-.17719-1.1942-.59375-1.50681-1.35126-.21419-.51562-.20209-1.07458.03406-1.57385.30653-.64807.95062-1.14862,1.81403-1.40955.40248-.12231.81723-.18433,1.23276-.18433m0-.29999c-.43248,0-.87979.06354-1.31998.19727-1.81848.54956-2.59258,2.05023-2.03792,3.3855.30904.74884.80182,1.3064,1.71304,1.52771.21678.03705.44164.05597.67096.05597.43285,0,.88159-.06738,1.32187-.20721.22583-.07007.43581-.15491.62993-.25452.15453-.07745.29715-.17334.42392-.28033.93896-.81146,1.31932-2.03607.87163-3.17584-.00397-.00372-.00397-.00739-.00793-.01111-.00107-.00262-.00214-.00531-.00322-.00793-.19395-.47607-.60612-.86194-1.11603-1.04602-.24197-.08734-.50024-.14459-.76662-.16693-.12489-.01099-.2516-.01654-.37965-.01654h0Z" style="fill: #d6b372;"/>
  <path d="m.52103,12.03948c.86045.08059,1.58765.34265,2.38478.58191,1.36022.11676,2.72214-.47231,4.02686-.53725-1.09941,1.07376-2.6724.92078-4.04478.69823-.79812.03878-1.89018-.07545-2.36686-.74289h0Z" style="fill: #5fc090;"/>
  <g>
    <path d="m2.48748,26.44091c-.03294-.06789-.06713-.1352-.09816-.20395-.01156-.02561-.02626-.03757-.05453-.04058-.03718-.00396-.08764.00402-.10761-.02141-.02197-.02798.0034-.0745.00769-.11293.00581-.05198.01283-.10395.02259-.15531.00554-.0292-.00386-.04057-.03183-.04054-.00288,0-.00581-.00053-.00862-.00123-.03317-.00817-.08446.00402-.09595-.02204-.01096-.02484.02723-.05943.04408-.08949.04327-.07717.08639-.15454.13338-.22945.01901-.0303.01232-.04403-.0151-.06031-.02985-.01773-.05657-.04066-.08608-.05903-.01951-.01215-.01768-.02116-.00365-.03643.04913-.05346.09614-.1089.14609-.16157.01889-.01991.01888-.0324.00177-.05377-.05077-.06342-.04909-.06355.01497-.11433.1072-.08498.22784-.14374.35692-.1866.00866-.01358.02316-.01731.03719-.02053.11709-.02691.23549-.03992.35528-.02529.08762.01071.07823.01237.09052-.06983.03266-.20032.11423-.38155.21685-.55453.01499.02332.02054.00127.02604-.00663.06353-.09126.14014-.17033.22422-.2425.01729-.01484.03323-.03188.06339-.04273-.00592.04112-.01014.07779-.01675.11402-.00498.02728.00195.03242.02914.02558.11088-.0279.22232-.05356.33357-.08.00975-.00232.0196-.00425.03367-.00727l-.02035.14142c.01734.00962.02773-.00166.03854-.00613.11533-.04769.23065-.09544.34533-.14467.02911-.0125.03923-.01056.03299.02426-.00769.0429-.01174.08646-.01736.12973.00199.04067.02777.04312.05905.03678.11335-.02213.22628-.04486.34262-.0485.14473-.00453.28649.01722.42861.03817.01067.00157.02722.00078.0132.01964-.29676.28862-.62042.53814-1.01075.68917-.24277.09394-.49417.15142-.75426.1687-.02618.00174-.05186.00603-.07776.00938q-.06213-.0376-.12098.01408c-.3187.27789-.55561.61502-.72084,1.00273-.05002.11738-.09133.2385-.12121.36319-.0053.02209-.00269.05329-.03591.06072Z" style="fill: #2d6628;"/>
    <path d="m3.48959,24.99675c.01085-.01998.0312-.01392.04711-.0148.22997-.01269.45383-.05779.67167-.1308.16934-.05675.3292-.13507.48358-.22514.11453-.06682.21999-.14625.32306-.22848.09944-.07934.1934-.16556.28929-.2493.00775-.00677.01358-.01498.02489-.0153-.0959.17533-.19096.35113-.28841.52561-.01961.03512-.01452.04499.02482.04864.05762.00534.11477.01575.18334.02562-.08778.06676-.16861.12824-.24945.18973-.00382.00189-.00807.00321-.01138.00577-.02753.02129-.06779.0377-.07884.06562-.01228.03104.03628.05311.04834.09063-.08267.00879-.16402.01745-.24537.02611-.01008.00107-.02027.00373-.03021.00299-.03262-.00245-.03619.01092-.02527.03844.01389.03498.02384.07152.0369.10686.00693.01875.0013.02487-.01748.02783-.05294.00836-.10562.0184-.15838.02789q-.05904.01062-.04107.06599c.00898.02756.01837.05498.02723.08257.00345.01075.00942.02198-.0017.03211-.14861.03083-.29894.04842-.45026.05829-.13081-.00544-.26186-.00764-.39159-.02815-.01464.01676-.00284.04157-.01773.05826-.0084.02821-.00201.05984-.01988.08586-.01478-.01857-.00615-.03903-.00423-.05869.00745-.07645.02881-.15135.0247-.22913-.00621-.11781-.04135-.22479-.1148-.3185-.01576-.02011-.03655-.03818-.03888-.06651Z" style="fill: #40863c;"/>
    <path d="m3.48959,24.99675c.13053.14208.18858.3069.15782.50002-.00915.05745-.01646.1152-.02461.17281-.0005.00251-.00122.00497-.00213.00736-.03888-.00549-.07799-.00974-.11657-.01689-.02491-.00461-.03334.00425-.03639.02812-.00942.07356-.0207.14689-.03129.2203q-.00804.05575-.06443.04886c-.00718-.00087-.01447-.00082-.02171-.0012q-.07659-.01721-.11911.04445c-.04601.06669-.09272.13292-.13771.20029-.01477.02212-.02292.02273-.03962.00101-.04704-.06116-.04798-.06039-.10116-.00093-.03573.03996-.07219.07929-.10707.11998-.01709.01994-.02761.02292-.04547-.00112-.04454-.05996-.0458-.059-.1053-.01458-.05814.04341-.11596.08727-.17484.12966-.00812.00585-.01744.0289-.03251.00601.03093-.04078.03159-.09198.04492-.13827.06811-.23649.16845-.45826.29601-.66805.12415-.20418.27377-.38813.44601-.55364.03751-.03605.07801-.06904.11471-.10587.03043-.03053.05594-.02975.08231.00318.00537.00671.01206.01235.01815.01848Z" style="fill: #6db469;"/>
    <path d="m3.20897,24.7362c-.01278.09442-.0126.09295-.1079.08179-.13131-.01538-.2601.00343-.38763.03395-.0688-.03939-.13759-.07877-.21555-.1234.0269-.01815.0474-.03333.06922-.04631.02175-.01295.0198-.02212.00138-.03791-.05615-.04814-.11021-.09872-.16606-.14721-.01606-.01394-.01758-.0214.00056-.03532.02182-.01674.06051-.02704.0598-.05373-.00061-.02271-.02928-.04469-.04561-.06694-.0086-.01172-.01735-.02334-.02603-.035-.04935-.06633-.04992-.06703.01532-.12027.01738-.01418.01439-.01965.00024-.0344-.12471-.13003-.17331-.28423-.14419-.46275.011-.06743.01915-.13533.02988-.20281.00195-.01227-.00523-.03098.01632-.03487.04093.04896.07917.10014.11516.15265.11807.17222.24021.34155.36027.51234.12174.17318.24227.3472.36542.51941.02251.03148.04576.06359.05941.10079Z" style="fill: #2d6628;"/>
    <path d="m3.20897,24.7362c-.05286-.07262-.1101-.14252-.15735-.21863-.04679-.07536-.10371-.14304-.15159-.21758-.06343-.09877-.13675-.19115-.20469-.28707-.12321-.17393-.2457-.34837-.36804-.52292-.00815-.01163-.01248-.02593-.01859-.039.20076.01407.38415.07541.54052.20494.03121.02585.05395.03368.08271.00191.01167-.0129.02478-.02451.04509-.0444.01451.08239.02758.14998.03783.21799.00412.02734.01293.03328.0387.02236.02929-.01242.06152-.01811.09033-.03137.03686-.01698.04634-.00221.05117.03207.00748.0531.02163.10532.02791.15851.00423.03576.01791.03759.04627.02566.02668-.01122.05618-.01616.08207-.02873.03881-.01885.04868-.00385.05163.03323.00367.04617.01359.09185.01033.13856.00115.027-.01113.04816-.02459.07111-.06959.11856-.12473.24336-.15606.37805-.00815.03504-.02058.06909-.02365.10528Z" style="fill: #6db469;"/>
  </g>
</svg>