<?xml version="1.0" encoding="UTF-8"?>
<svg id="a" data-name="Layer 1" xmlns="http://www.w3.org/2000/svg" xmlns:xlink="http://www.w3.org/1999/xlink" viewBox="0 0 13.18425 32">
  <defs>
    <linearGradient id="b" x1="3.9227" y1="2.13194" x2="9.26155" y2="2.13194" gradientUnits="userSpaceOnUse">
      <stop offset=".05866" stop-color="#fcd553"/>
      <stop offset="1" stop-color="#fcd34d"/>
    </linearGradient>
    <linearGradient id="c" x1="6.59213" y1="4.5918" x2="6.59213" y2="7.43662" gradientUnits="userSpaceOnUse">
      <stop offset=".04881" stop-color="#d1d3d4"/>
      <stop offset=".9855" stop-color="#bcbec0"/>
    </linearGradient>
    <linearGradient id="d" x1="-7.35606" y1="20.52303" x2="19.3183" y2="20.52303" gradientUnits="userSpaceOnUse">
      <stop offset="0" stop-color="#eadaa7"/>
      <stop offset=".30728" stop-color="#efd88d"/>
      <stop offset=".95995" stop-color="#fcd34d"/>
    </linearGradient>
    <linearGradient id="e" x1="-3.92037" y1="10.6175" x2="16.99263" y2="10.6175" gradientUnits="userSpaceOnUse">
      <stop offset="0" stop-color="#e6e7e8"/>
      <stop offset=".97983" stop-color="#d1d3d4"/>
    </linearGradient>
    <linearGradient id="f" x1="-4.74195" y1="29.27224" x2="16.84311" y2="29.27224" xlink:href="#e"/>
    <linearGradient id="g" x1="-.18593" y1="4.53692" x2="11.86214" y2="4.53692" gradientUnits="userSpaceOnUse">
      <stop offset="0" stop-color="#d3b144"/>
      <stop offset=".33428" stop-color="#ddb946"/>
      <stop offset=".9096" stop-color="#f9d04c"/>
      <stop offset=".95995" stop-color="#fcd34d"/>
    </linearGradient>
  </defs>
  <path d="m9.26115.49246l-.07717,3.77141c-.20585-.04645-.38586-.09296-.59171-.13011v-.0186c-.34724-.06505-.70743-.1115-1.05475-.13935-.30869-.0279-.63026-.04651-.93895-.04651s-.63026.0186-.93895.04651c-.36019.02785-.70743.0743-1.06762.13935v.0186c-.20577.03715-.38586.08366-.59171.13011l-.07717-3.77141c-.01288-.26946.28302-.49246.64313-.49246h4.05178c.36011,0,.65601.22301.64313.49246Z" style="fill: url(#b);"/>
  <path d="m9.51776,6.82303c-1.95044-.11818-3.88906-.11818-5.85126,0,.16551-.23643.24826-.49645.24826-.76837l-.02366-1.0284.11818-.05909v.04733c1.72585-.21284,3.43987-.21284,5.17747,0v-.05916l.13008.07092-.02366,1.0284c-.01183.27193.07092.54378.2246.76837Z" style="fill: url(#c);"/>
  <path d="m13.18425,14.16707v12.3774c-4.82351.44601-9.22252.44601-13.18425,0v-12.3774c3.96173.44601,8.36075.44601,13.18425,0Z" style="fill: url(#d);"/>
  <path d="m13.18215,12.56378v1.59994c-4.82287.44919-9.22013.44919-13.18004,0v-1.45764c0-.74119.12374-1.48755.41552-2.16889.61379-1.43327,1.43594-2.28175,2.0313-2.74485.27193-.15367.52011-.30735.73295-.47286.01176-.01183.02359-.01183.02359-.01183.18917-.14184.34285-.30728.46102-.48462,1.9622-.11818,3.90082-.11818,5.85126,0,.11818.17734.27185.34277.47278.48462.34285.24826.75654.49652,1.2294.74471.94763.83005,1.45811,2.00818,1.71857,2.84281.16861.54031.24364,1.1026.24364,1.66861Z" style="fill: url(#e);"/>
  <path d="m13.18425,26.54448v4.63998c0,.24161-.21864.45537-.55309.51112-2.01945.37166-4.0389.29419-6.0326.30349-2.00658-.0093-4.02603.06817-6.04548-.30349-.32157-.05575-.55309-.26951-.55309-.51112v-4.63998c3.96173.44601,8.36075.44601,13.18425,0Z" style="fill: url(#f);"/>
  <path d="m13.18217,11.90595s-.3428-2.43506-1.96224-3.85355c-.3428-.30734-.75652-.56739-1.22935-.7447H3.2055s-.01182,0-.02364.01182c-.08274.03546-.36644.17731-.73288.47283C1.70427,8.37156.60494,9.55363.00208,11.72864" style="fill: none;"/>
  <path d="m9.18086,4.19385v.94615c-1.73763-.38043-3.45164-.37986-5.17747,0v-.94615c.04732-.01183.09458-.01183.14184-.02359.40194-.07092.81563-.14184,1.24123-.17734.39003-.03542.81563-.05909,1.20566-.05909.40194,0,.81563.02366,1.21757.05909.40186.0355.8038.10642,1.21749.17734.04733.01176.10642.01176.15367.02359Z" style="fill: url(#g);"/>
  <g>
    <path d="m7.4821,20.53708v2.32621c0,.78085-.63038,1.41527-1.4112,1.41527h-1.04518c-.77675,0-1.41118-.63442-1.41118-1.41527v-2.32621c0-.62224.40261-1.15092.95977-1.33798.14233-.05287.29282-.07727.45141-.07727h1.04518c.15861,0,.31315.0244.45141.07727.56122.18706.95979.71574.95979,1.33798Z" style="fill: #e59d48;"/>
    <g>
      <path d="m3.76019,21.62226c.53765-.65493,1.73083-1.84807,2.38561-2.38552-.5376.655-1.73075,1.84812-2.38561,2.38552h0Z" style="fill: #fecb8b;"/>
      <path d="m4.06544,22.3006c.53765-.65493,1.73083-1.84807,2.38561-2.38552-.5376.655-1.73075,1.84812-2.38561,2.38552h0Z" style="fill: #fecb8b;"/>
      <path d="m4.37076,22.97894c.53761-.65495,1.73075-1.84808,2.38554-2.38552-.5376.65498-1.73071,1.84811-2.38554,2.38552h0Z" style="fill: #fecb8b;"/>
      <path d="m4.676,23.65728c.59841-.71575,1.91679-2.03412,2.63241-2.63232-.5985.71567-1.91688,2.03405-2.63241,2.63232h0Z" style="fill: #fecb8b;"/>
      <path d="m5.25822,24.05857c.47178-.58928,1.51946-1.63692,2.10856-2.10847-.47319.59087-1.51789,1.63554-2.10856,2.10847h0Z" style="fill: #fecb8b;"/>
      <path d="m5.32645,19.58205c.58038.46171,1.5206,1.40202,1.98187,1.98188-.58033-.46176-1.52056-1.40207-1.98187-1.98188h0Z" style="fill: #fecb8b;"/>
      <path d="m4.45878,19.69788c.8012.68393,2.2921,2.17487,2.97577,2.97594-.80115-.68398-2.29206-2.17492-2.97577-2.97594h0Z" style="fill: #fecb8b;"/>
      <path d="m4.37076,20.59337c.65493.53765,1.84804,1.7308,2.38545,2.38561-.65497-.53762-1.84805-1.73078-2.38545-2.38561h0Z" style="fill: #fecb8b;"/>
      <path d="m3.69242,20.89869c.78285.66552,2.23674,2.11942,2.90203,2.90213-.78285-.66554-2.23673-2.11943-2.90203-2.90213h0Z" style="fill: #fecb8b;"/>
      <path d="m3.76019,21.95005c.5815.46277,1.50494,1.38628,1.9672,1.96721-.58241-.46357-1.50414-1.38539-1.9672-1.96721h0Z" style="fill: #fecb8b;"/>
    </g>
    <path d="m7.21459,17.61289l-.69228,1.58621c-.13826-.05287-.2928-.07727-.45141-.07727h-1.04518c-.15859,0-.30908.0244-.45141.07727l-.69229-1.58622c-.023-.05271.04739-.09553.08362-.05086l1.02757,1.26699-.0938-2.00978c-.00274-.05866.08092-.07223.09686-.01571l.55409,1.9645.54984-1.96139c.01586-.05659.09962-.04308.09688.01563l-.09364,2.00674,1.02754-1.26697c.03622-.04467.10662-.00185.08362.05086Z" style="fill: #51b542;"/>
    <g>
      <path d="m9.61526,21.75262c0,1.27905-1.03841,2.31326-2.31324,2.31326-1.27905,0-2.31324-1.03421-2.31324-2.31326h.477c.18574,1.26215.93711,1.89114,1.83624,1.89114s1.6505-.62899,1.85314-1.89114h.4601Z" style="fill: #fdba61;"/>
      <path d="m9.15625,21.7506c-.20264,1.26218-.95401,1.89114-1.85314,1.89114s-1.65052-.62896-1.83626-1.89114h3.6894Z" style="fill: #ffecc2;"/>
      <path d="m7.73367,21.7506c0,.23639-.18994.42635-.42213.42635-.23639,0-.42633-.18996-.42633-.42635h.84845Z" style="fill: #ffc226;"/>
      <ellipse cx="6.13491" cy="21.842" rx=".16289" ry=".03586" style="fill: #ff9824;"/>
      <ellipse cx="8.41019" cy="21.87785" rx=".16289" ry=".03586" style="fill: #ff9824;"/>
      <ellipse cx="8.14244" cy="22.5547" rx=".03586" ry=".16289" transform="translate(-15.50757 18.59352) rotate(-60.64168)" style="fill: #ff9824;"/>
      <ellipse cx="8.32772" cy="22.22533" rx=".03586" ry=".16289" transform="translate(-15.12605 18.58711) rotate(-60.64168)" style="fill: #ff9824;"/>
      <ellipse cx="7.76805" cy="22.83664" rx=".03586" ry=".16289" transform="translate(-10.729 7.35395) rotate(-31.28335)" style="fill: #ff9824;"/>
      <ellipse cx="7.23329" cy="22.92495" rx=".16289" ry=".03586" transform="translate(-16.06773 28.83567) rotate(-86.7223)" style="fill: #ff9824;"/>
      <ellipse cx="6.63007" cy="22.69617" rx=".16289" ry=".03586" transform="translate(-14.76709 12.63457) rotate(-48.53135)" style="fill: #ff9824;"/>
      <ellipse cx="6.27263" cy="22.27111" rx=".16289" ry=".03586" transform="translate(-11.17315 7.07265) rotate(-33.20838)" style="fill: #ff9824;"/>
    </g>
  </g>
</svg>