<?xml version="1.0" encoding="UTF-8"?>
<svg id="a" data-name="Layer 1" xmlns="http://www.w3.org/2000/svg" viewBox="0 0 7.98329 32">
  <path d="m7.98329,24.05486v6.37476c0,.60623-.42063,1.13505-1.01349,1.26314-.22407.04834-.45555.09086-.6934.12835-1.51328.23853-3.05631.23852-4.5696.00001-.23789-.03749-.46944-.08001-.69362-.12836-.59286-.12809-1.01318-.65691-1.01318-1.26314v-6.37476c.00373.21141,1.92035.43431,3.99149.43027,1.45837-.00311,2.99354-.11845,3.9918-.43027Z" style="fill: #1c1c1c;"/>
  <path d="m7.98329,17.92105v6.13381c-.99826.31182-2.53342.42716-3.9918.43027-2.07113.00404-3.98776-.21887-3.99149-.43027v-6.13381s1.91756.07461,3.99149.09264c1.45682.01244,2.99105-.00311,3.9918-.09264Z" style="fill: #eaebe6;"/>
  <path d="m6.18138,9.47516c-.57608-.24778-.34073-1.67196-.42747-3.12069-.0656-.38768-.12994-.77255-.18872-1.14743-.62906-.56372-3.17719-.31311-3.14743,0-.05875.37488-.1231.75975-.18869,1.14743-.08674,1.44874.1486,2.87291-.42747,3.12069,0,0-1.80159,1.24448-1.80159,3.19499v5.2509s1.91756.07461,3.99149.09264c1.45682.01244,2.99105-.00311,3.9918-.09264v-5.2509c0-1.95051-1.8019-3.19499-1.8019-3.19499Zm.25835,6.03091c.1256.53659.01679.93173-.29037,1.20749-.19493.17471-.44612.27327-.70696.29099-.32705.02176-.67027.01554-1.0337-.02487.06342.09886.08581.20208.08239.30778-.00156.05627-.03824.10539-.09078.12498-.0687.02549-.23938.03824-.40882.03793-.1657-.00031-.33047-.01305-.39794-.03793-.05254-.01959-.08923-.0687-.09109-.12498-.00311-.1057.01928-.20892.0827-.30778-.36343.04041-.70696.04663-1.0337.02487-.26084-.01772-.51234-.11627-.70696-.29099-.30716-.27576-.41628-.6709-.29037-1.20749-.19337-.56271-.39856-1.13754-.30343-1.40552-.10663-.50613-.02145-.78872.32208-.771-.00031-.07897.0087-.15638.02736-.23192.04539-.18467.21047-.31462.40042-.32705.15793-.01026.30871-.00497.44519.02953.22757-.56177.70603-.59441.70603-.59441.10663-.19959.44581-.23223.44581-.23223.01865-.04166.05285-.07834.09358-.10943.08798-.06715.19399-.10135.30032-.10259.10974-.00124.22011.03296.31089.10228.04104.0314.07523.06808.09389.10974,0,0,.33918.03264.44581.23223,0,0,.47846.03264.70603.59441.13648-.0345.28726-.03979.44519-.02953.18964.01244.35503.14239.40042.32705.01865.07554.02767.15295.02736.23192.34322-.01772.42872.26488.32208.771.09513.26799-.11006.84282-.30343,1.40552Z" style="fill: #232323;"/>
  <path d="m5.56534,5.20704c-1.17126-.53198-2.965-.29285-3.1474,0,.1716-1.09753.29502-2.1085.26455-2.84499.00062-.00497.00093-.00995.00093-.01492,0-.05161-.03047-.09855-.07865-.11969-.04757-.02052-.07834-.06777-.07834-.11969V.41682c0-.13088.07399-.2512.19213-.3084C3.0167-.03614,4.9669-.03614,5.26504.10842c.11783.0572.19182.17752.19182.3084v1.69092c0,.05192-.03078.09917-.07834.11969-.04819.02114-.07866.06808-.07866.11969,0,.00497.00031.00995.00093.01492-.03047.73649.09295,1.74746.26455,2.84499Z" style="fill: #373030;"/>
  <path d="m6.43447,15.50607c.1256.53659.01679.93173-.29037,1.20749-.19493.17471-.44612.27327-.70696.29099-.32705.02176-.67027.01554-1.0337-.02487.06342.09886.08581.20208.08239.30778-.00156.05627-.03824.10539-.09078.12498-.0687.02549-.23938.03824-.40882.03793-.1657-.00031-.33047-.01305-.39794-.03793-.05254-.01959-.08923-.0687-.09109-.12498-.00311-.1057.01928-.20892.0827-.30778-.36343.04041-.70696.04663-1.0337.02487-.26084-.01772-.51234-.11627-.70696-.29099-.30716-.27576-.41628-.6709-.29037-1.20749-.19337-.56271-.39856-1.13754-.30343-1.40552-.10663-.50613-.02145-.78872.32208-.771-.00031-.07897.0087-.15638.02736-.23192.04539-.18467.21047-.31462.40042-.32705.15793-.01026.30871-.00497.44519.02953.22757-.56177.70603-.59441.70603-.59441.10663-.19959.44581-.23223.44581-.23223.01865-.04166.05285-.07834.09358-.10943.08798-.06715.19399-.10135.30032-.10259.10974-.00124.22011.03296.31089.10228.04104.0314.07523.06808.09389.10974,0,0,.33918.03264.44581.23223,0,0,.47846.03264.70603.59441.13648-.0345.28726-.03979.44519-.02953.18964.01244.35503.14239.40042.32705.01865.07554.02767.15295.02736.23192.34322-.01772.42872.26488.32208.771.09513.26799-.11006.84282-.30343,1.40552Z" style="fill: #cac9c2;"/>
  <ellipse cx="3.99164" cy="14.60588" rx="1.02167" ry="1.39921" style="fill: #b14a5b;"/>
</svg>