<?xml version="1.0" encoding="UTF-8"?>
<svg id="a" data-name="Layer 1" xmlns="http://www.w3.org/2000/svg" xmlns:xlink="http://www.w3.org/1999/xlink" viewBox="0 0 7.45369 32">
  <defs>
    <linearGradient id="b" x1="2.19527" y1="4.70042" x2="5.25843" y2="4.70042" gradientUnits="userSpaceOnUse">
      <stop offset="0" stop-color="#d1d3d4"/>
      <stop offset="1" stop-color="#e6e7e8"/>
    </linearGradient>
    <linearGradient id="c" x1="-6.25241" y1="20.417" x2="14.46344" y2="20.417" gradientUnits="userSpaceOnUse">
      <stop offset=".15" stop-color="#91262e"/>
      <stop offset=".34227" stop-color="#731b24"/>
      <stop offset=".55572" stop-color="#59111c"/>
      <stop offset=".74781" stop-color="#490c17"/>
      <stop offset=".89866" stop-color="#440a16"/>
    </linearGradient>
    <linearGradient id="d" x1="4.03172" y1="23.43074" x2="4.72705" y2="23.8915" gradientUnits="userSpaceOnUse">
      <stop offset="0" stop-color="#bbf7d0"/>
      <stop offset=".20045" stop-color="#93e8bd"/>
      <stop offset=".58384" stop-color="#4dcf9d"/>
      <stop offset=".86031" stop-color="#20bf88"/>
      <stop offset="1" stop-color="#10b981"/>
    </linearGradient>
    <linearGradient id="e" x1="3.49311" y1="23.32917" x2="4.11789" y2="23.74318" xlink:href="#d"/>
    <linearGradient id="f" x1="2.3718" y1="23.30215" x2="3.47318" y2="24.03198" xlink:href="#d"/>
    <linearGradient id="g" x1="4.04655" y1="23.97022" x2="4.86064" y2="24.50968" gradientUnits="userSpaceOnUse">
      <stop offset="0" stop-color="#fb7185"/>
      <stop offset=".05965" stop-color="#f86a80"/>
      <stop offset=".46665" stop-color="#eb4061"/>
      <stop offset=".78639" stop-color="#e3264e"/>
      <stop offset=".97739" stop-color="#e11d48"/>
    </linearGradient>
    <linearGradient id="h" x1="4.46243" y1="23.90314" x2="5.27652" y2="24.4426" xlink:href="#g"/>
    <linearGradient id="i" x1="2.63793" y1="23.97022" x2="3.45202" y2="24.50968" xlink:href="#g"/>
    <linearGradient id="j" x1="2.17717" y1="23.87479" x2="2.99126" y2="24.41425" xlink:href="#g"/>
    <linearGradient id="k" x1="3.36237" y1="25.61286" x2="4.17645" y2="26.15232" xlink:href="#g"/>
    <linearGradient id="l" x1="3.32883" y1="24.07084" x2="4.14291" y2="24.61029" xlink:href="#g"/>
    <linearGradient id="m" y1="24.61341" x2="4.86064" y2="25.15287" xlink:href="#g"/>
    <linearGradient id="n" x1="2.57964" y1="24.5791" x2="3.39372" y2="25.11856" xlink:href="#g"/>
    <linearGradient id="o" x1="3.75141" y1="25.2104" x2="4.5655" y2="25.74986" xlink:href="#g"/>
    <linearGradient id="p" x1="3.32883" y1="24.67378" x2="4.14291" y2="25.21324" xlink:href="#g"/>
    <linearGradient id="q" x1="2.91295" y1="25.2104" x2="3.72704" y2="25.74986" xlink:href="#g"/>
  </defs>
  <path d="m5.2419,4.41493c-1.00866-.26871-2.01731-.26871-3.03011-.00414l.03308-1.53366c0-.06199.03305-.11987.08679-.15709l.08268-.05374c.03308-.02066.02894-.07027-.00414-.09093l-.10335-.05788c-.03719-.03719-.06199-.08679-.06199-.14054V.32243c.30176-.21494.86396-.2811,1.47989-.32243.62008.04133,1.1823.10748,1.48406.32243v2.05453c0,.05374-.0248.10335-.06202.14054l-.10335.05788c-.03305.02066-.03719.07027-.00411.09093l.08266.05374c.05374.03722.08682.0951.08682.15709l.03308,1.5378Z" style="fill: #2a2b46;"/>
  <path d="m5.25843,5.18796c-1.02104-.27696-2.03798-.27285-3.06316-.00414l.01653-.77302c1.01279-.26457,2.02145-.26457,3.03011.00414l.01653.77302Z" style="fill: url(#b);"/>
  <path d="m5.34111,9.05308c-1.07481-.29349-2.15374-.28937-3.22852-.00414l.08268-3.86512c1.02518-.26871,2.04212-.27282,3.06316.00414l.08268,3.86512Z" style="fill: #cec8ca;"/>
  <path d="m7.15173,28.82936v2.02556c0,.19844-.0951.38447-.25216.5002-.63249.4506-1.90572.54567-3.17481.64488-1.26495-.09921-2.53816-.19428-3.17064-.64488-.16123-.11573-.25216-.30176-.25216-.5002v-2.02556C.30196,28.75081.0002,12.47177.0002,12.47177c-.00828-.52914.23974-1.02932.66968-1.33936l1.16574-.83918c.1612-.11573.2563-.30176.26041-.50018l.01655-.74411c1.07479-.28524,2.15371-.28935,3.22852.00414l.01653.73997c.00414.19842.09921.38444.26043.50018l1.16574.83918c.42991.31004.67795.81022.66968,1.33936,0,0-.30176,16.27904-.30176,16.35759Z" style="fill: url(#c);"/>
  <path d="m5.74928,26.6839c-.13229.11987-.2811.22736-.44232.31418-.20255.1116-.42163.20669-.65727.28524-.70276.23974-1.42618.28935-2.07933.16948-.95078-.24802-1.46494-.8729-1.7874-1.71208-.57872-1.49645.22896-3.17825,2.12637-3.79419.59527-.19428,1.20296-.2563,1.77341-.20255.27793.02507.5474.08923.79989.18714.53204.2063.96208.6387,1.16446,1.17224.00113.00297.00225.00594.00336.00892.00414.00414.00414.00828.00828.01241.46713,1.27734.07027,2.64978-.90945,3.55923Z" style="fill: #f2f2f2;"/>
  <path d="m4.2707,22.30997h0c.11928,0,.23727.00525.35475.0155.23663.0199.46875.07031.68976.15002.42792.15466.77937.48254.94423.88721l.02429.05835.00223.00208c.35808.97864.05115,2.04053-.8067,2.78186-.11345.0957-.23627.177-.36731.2428-.17792.09119-.37378.17029-.58391.2356-.40341.12805-.81754.19299-1.23083.19299-.21117,0-.41997-.01733-.60039-.04749-.72957-.17725-1.1942-.59375-1.50679-1.3512-.21419-.51562-.20209-1.07458.03407-1.57385.30655-.64819.95064-1.14868,1.81401-1.40967.40233-.12219.81703-.1842,1.23259-.1842m0-.29993c-.43242,0-.8797.06348-1.31981.19714-1.81848.54956-2.59258,2.05029-2.03792,3.38562.30904.74878.80182,1.30627,1.71304,1.52759.21686.03711.44179.05603.67119.05603.43279,0,.88145-.06738,1.32164-.20715.22583-.07019.43581-.15503.62993-.25452.15453-.07751.29715-.17346.42392-.2804.93896-.81152,1.31932-2.03613.87163-3.1759-.00397-.00366-.00397-.00732-.00793-.01111-.00107-.00256-.00214-.00525-.00322-.00793-.19395-.47607-.60612-.86182-1.11603-1.04602-.24197-.08728-.50024-.14453-.76662-.16687-.12497-.01099-.25169-.01648-.37982-.01648h0Z" style="fill: #d6b372;"/>
  <path d="m.53219,12.03948c.86045.08059,1.58765.34265,2.38478.58191,1.36022.11676,2.72214-.47231,4.02686-.53725-1.09941,1.07376-2.6724.92078-4.04478.69823-.79812.03878-1.89018-.07545-2.36686-.74289h0Z" style="fill: #9d2e24;"/>
  <g>
    <path d="m3.77971,23.98499s-.06084-.44942.54492-.53662.53869-.18782.53869-.18782c0,0,.10892.51202-.24515.69313s-.83846.0313-.83846.0313Z" style="fill: url(#d);"/>
    <path d="m3.30713,23.9358s-.16099-.29961.28172-.65288.3199-.43377.3199-.43377c0,0,.47321.40917.28683.75574s-.45469.64394-.45469.64394l-.43377-.31303Z" style="fill: url(#e);"/>
    <path d="m2.7258,23.93133s-.45612-.04919-.32644-.67077c.16915.0738.42397.12952.79167.18781.17315.03697.26514.12507.25537.27725l-.1169.5232-.60369-.3175Z" style="fill: url(#f);"/>
    <ellipse cx="4.4536" cy="24.23995" rx=".50228" ry=".45461" style="fill: url(#g);"/>
    <ellipse cx="4.86947" cy="24.17287" rx=".50228" ry=".45461" style="fill: url(#h);"/>
    <ellipse cx="3.04498" cy="24.23995" rx=".50228" ry=".45461" style="fill: url(#i);"/>
    <ellipse cx="2.58422" cy="24.14452" rx=".50228" ry=".45461" style="fill: url(#j);"/>
    <ellipse cx="3.76941" cy="25.88259" rx=".50228" ry=".45461" style="fill: url(#k);"/>
    <ellipse cx="3.73587" cy="24.34056" rx=".50228" ry=".45461" style="fill: url(#l);"/>
    <ellipse cx="4.4536" cy="24.88314" rx=".50228" ry=".45461" style="fill: url(#m);"/>
    <ellipse cx="2.98668" cy="24.84883" rx=".50228" ry=".45461" style="fill: url(#n);"/>
    <ellipse cx="4.15846" cy="25.48013" rx=".50228" ry=".45461" style="fill: url(#o);"/>
    <ellipse cx="3.73587" cy="24.94351" rx=".50228" ry=".45461" style="fill: url(#p);"/>
    <ellipse cx="3.31999" cy="25.48013" rx=".50228" ry=".45461" style="fill: url(#q);"/>
  </g>
</svg>