<?xml version="1.0" encoding="UTF-8"?>
<svg id="a" data-name="Layer 1" xmlns="http://www.w3.org/2000/svg" xmlns:xlink="http://www.w3.org/1999/xlink" viewBox="0 0 8.99702 32">
  <defs>
    <linearGradient id="b" x1="2.93032" y1="2.5998" x2="6.0667" y2="2.5998" gradientUnits="userSpaceOnUse">
      <stop offset="0" stop-color="#48121b"/>
      <stop offset="1" stop-color="#2b1019"/>
    </linearGradient>
    <linearGradient id="c" x1="-4.88354" y1="19.00309" x2="12.42926" y2="19.00309" xlink:href="#b"/>
    <linearGradient id="d" x1="-1.33497" y1="16.65419" x2="10.44768" y2="16.65419" gradientUnits="userSpaceOnUse">
      <stop offset="0" stop-color="#efecde"/>
      <stop offset="1" stop-color="#bdb5ba"/>
    </linearGradient>
    <linearGradient id="e" x1="-1.7651" y1="24.49488" x2="10.97749" y2="24.49488" xlink:href="#d"/>
  </defs>
  <path d="m6.12924.61594v1.93465c0,.06614-.02205.13048-.06254.18267,0-.53765-3.13638-.53765-3.13638,0-.04049-.05219-.06254-.11653-.06254-.18267V.61594c0-.13587.06479-.26455.17682-.34193C3.41533.01979,3.95523.0072,4.49829,0c.5435.0072,1.0834.01979,1.45414.274.11203.07738.17682.20606.17682.34193Z" style="fill: #d83a48;"/>
  <path d="m6.0667,2.73325c-.03104.04004-.05129.08639-.05894.13588-.51471-.2452-2.5047-.2452-3.0185.00045-.00765-.04949-.02789-.09628-.05894-.13633,0-.53765,3.13638-.53765,3.13638,0Z" style="fill: url(#b);"/>
  <path d="m6.00776,2.86913v.00045c-.00225.01305-.0036.02565-.00405.03914,0,.0009.00045.00135,0,.0018v3.25471c-.12373-.04454-.30144-.07964-.51021-.10528-.04319-.00539-.08819-.01035-.13407-.01484h-.0009c-.04364-.0045-.08819-.00855-.13363-.01215h-.00045c-.04409-.0036-.08864-.00676-.13408-.00945h-.00045c-.04409-.0027-.08863-.00495-.13407-.0072h-.00045c-.04454-.00225-.08908-.00405-.13453-.00539-.16377-.00495-.33114-.00585-.49671-.0036-.04499.0009-.08953.0018-.13408.0036h-.0009c-.04499.00135-.08953.0027-.13363.00494h-.00045c-.04499.0018-.08953.0045-.13362.0072h-.0009c-.04544.0027-.08998.00585-.13407.009-.04589.0036-.09088.00765-.13498.0117-.2731.02699-.50661.06749-.65868.12193v-3.24976c0-.01575-.00135-.03105-.0036-.04634.13588-.06479.37478-.11248.66228-.14352.04364-.0045.08908-.009.13498-.0126.04364-.0036.08863-.0072.13407-.01035h.0009c.04364-.0027.08819-.0054.13362-.0072h.00045c.04409-.00225.08864-.00405.13363-.00585h.0009c.04454-.00135.08909-.0027.13408-.00315.16512-.00315.33339-.0018.49671.0036.04544.0018.09043.0036.13453.00585h.00045c.04544.00225.08998.00495.13407.00765h.00045c.04544.00315.09043.00674.13408.0108h.00045c.04589.0036.09043.0081.13363.01259h.0009c.04634.0054.09088.0108.13407.01665.22091.03015.40223.07199.51426.12508Z" style="fill: #d83a48;"/>
  <path d="m8.99702,30.79827v.62494c0,.31854-.25825.57679-.5768.57679H.5768c-.31854,0-.5768-.25825-.5768-.57679v-.62494c0-.2947.05309-.5876.15747-.86339.36444-.96553.59164-1.90496.58625-2.80074L.01665,12.18515c-.02115-.43012.03374-.86159.17772-1.26697.36489-1.02716,1.16619-1.67954,2.08402-2.2325.44407-.2677.71447-.74957.71447-1.26832v-1.25168c.59209-.21236,2.41786-.21281,3.01085-.00045v1.25213c0,.51875.27085,1.00062.71492,1.26832.91738.55295,1.71914,1.20533,2.08357,2.2325.14442.40538.19931.83685.17817,1.26697l-.72707,14.94899c-.0054.89578.22181,1.83521.58625,2.80074.10438.27579.15747.56869.15747.86339Z" style="fill: url(#c);"/>
  <ellipse cx="4.49873" cy="16.65419" rx="3.79052" ry="3.92157" style="fill: url(#d);"/>
  <path d="m.96506,22.37509l.21693,4.24927c.00266.05216.04573.09308.09795.09308h6.36129c.05155,0,.0943-.0399.09785-.09132l.29321-4.24514c.00469-.06787-.05934-.11925-.1248-.10074-2.16008.61066-4.43247.61359-6.81966-.00469-.06419-.01662-.12615.03333-.12277.09954Z" style="fill: url(#e);"/>
  <circle cx="4.49873" cy="16.65419" r="1.69363" style="fill: #c0010b;"/>
  <rect x="1.21004" y="15.97089" width="6.5774" height="1.3666" rx=".10278" ry=".10278" style="fill: #372e3c;"/>
  <g>
    <path d="m3.78652,2.71346v3.3186c-.04589.0036-.09088.00765-.13498.0117v-3.3177c.04364-.0045.08908-.009.13498-.0126Z" style="fill: #43439e;"/>
    <path d="m3.92059,6.02306v-3.31995h.0009c.04364-.0027.08818-.0054.13363-.0072h.00045v3.31995h-.00045c-.04499.0018-.08953.0045-.13363.0072h-.0009Z" style="fill: #43439e;"/>
    <path d="m4.19009,6.01091c.04454-.0018.08908-.0027.13408-.0036v-3.3204c-.04499.00045-.08953.0018-.13408.00315h-.0009v3.32085h.0009Z" style="fill: #43439e;"/>
    <path d="m4.95585,2.69636v3.31994h-.00045c-.04454-.00225-.08908-.00405-.13453-.00539v-3.3204c.04544.0018.09043.0036.13453.00585h.00045Z" style="fill: #43439e;"/>
    <path d="m5.2249,2.71481v3.31815h-.00045c-.04409-.0036-.08864-.00676-.13408-.00945h-.00045v-3.31949h.00045c.04544.00315.09043.00674.13408.0108h.00045Z" style="fill: #43439e;"/>
    <path d="m5.35943,6.04511c.04589.0045.09088.00945.13408.01485v-3.3159c-.04319-.00585-.08773-.01125-.13408-.01665h-.0009v3.3177h.0009Z" style="fill: #43439e;"/>
  </g>
  <path d="m3.92149,6.02306v-3.31995h-.0009c-.04544.00315-.09043.00675-.13408.01035v3.3186c.04409-.00315.08863-.0063.13408-.009h.0009Z" style="fill: #fff;"/>
  <path d="m4.05512,6.01586v-3.31995h.00045c.04409-.00225.08863-.00405.13363-.00585h.0009v3.32085h-.0009c-.04499.00135-.08953.0027-.13363.00495h-.00045Z" style="fill: #fff;"/>
  <path d="m5.09038,2.70401v3.31949h-.00045c-.04409-.0027-.08863-.00495-.13407-.0072h-.00045v-3.31994h.00045c.04544.00225.08998.00495.13407.00765h.00045Z" style="fill: #fff;"/>
  <path d="m5.35943,6.04511v-3.3177h-.0009c-.04319-.0045-.08773-.009-.13363-.0126h-.00045v3.31815h.00045c.04544.0036.08998.00765.13363.01215h.0009Z" style="fill: #fff;"/>
</svg>