<?xml version="1.0" encoding="iso-8859-1"?>
<!-- Uploaded to: SVG Repo, www.svgrepo.com, Generator: SVG Repo Mixer Tools -->
<svg version="1.1" id="Layer_1" xmlns="http://www.w3.org/2000/svg" xmlns:xlink="http://www.w3.org/1999/xlink" 
	 viewBox="0 0 512 512" xml:space="preserve">
<polygon style="fill:#FF772B;" points="277.787,8.17 277.787,106.213 234.213,106.213 256,8.17 "/>
<rect x="234.213" y="8.17" style="fill:#FF973E;" width="21.787" height="98.043"/>
<path style="fill:#4DA081;" d="M283.234,181.706V73.532h-32.681v108.174l54.468,137.292l32.681-13.072v-47.202
	C337.702,223.156,314.956,192.926,283.234,181.706z"/>
<path style="fill:#5DC09A;" d="M305.021,258.723v60.274L256,338.606l-81.702-32.681v-47.202c0-35.568,22.746-65.797,54.468-77.018
	V73.532h43.574v108.174C291.372,192.926,305.021,223.156,305.021,258.723z"/>
<polygon style="fill:#4DA081;" points="337.702,447.542 337.702,503.83 305.021,503.83 261.447,401.789 "/>
<polygon style="fill:#5DC09A;" points="305.021,393.074 305.021,503.83 174.298,503.83 174.298,447.542 "/>
<polygon style="fill:#FFE29E;" points="137.347,204.255 139.743,258.727 64.893,301.971 106.801,204.255 "/>
<path style="fill:#FFF1CF;" d="M107.999,258.727c0,0.076,0.24,10.977,0.468,21.457c-16.025,11.003-32.212,22.114-32.212,22.114
	l-63.488-43.571l2.397-54.471h91.637L107.999,258.727z"/>
<path style="fill:#CB2E3E;" d="M141.541,299.367c0,0-1.797-40.641-1.808-40.641c0,0-13.519,0-31.733,0L76.255,367.66
	c36.101,0,65.362-29.26,65.362-65.362C141.617,301.317,141.584,300.337,141.541,299.367z"/>
<path style="fill:#FF3B3B;" d="M108.893,299.367c0.022,0.97,0.044,1.95,0.044,2.93c0,36.101-14.63,65.362-32.681,65.362
	c-36.101,0-65.362-29.26-65.362-65.362c0-0.98,0.033-1.961,0.076-2.93l1.787-40.641c0.011,0,57.638,0,95.243,0
	C107.999,258.879,108.893,299.367,108.893,299.367z"/>
<polygon style="fill:#FFE29E;" points="337.702,305.925 337.702,447.542 305.021,447.542 261.447,376.734 305.021,305.925 "/>
<rect x="174.298" y="305.925" style="fill:#FFF1CF;" width="130.723" height="141.617"/>
<polygon style="fill:#FFE29E;" points="496.836,204.255 499.233,258.727 424.383,301.971 466.29,204.255 "/>
<path style="fill:#FFF1CF;" d="M467.489,258.727c0,0.076,0.24,10.977,0.468,21.457c-16.025,11.003-32.212,22.114-32.212,22.114
	l-63.488-43.571l2.397-54.471h91.637L467.489,258.727z"/>
<path style="fill:#CB2E3E;" d="M501.03,299.367c0,0-1.797-40.641-1.808-40.641c0,0-13.519,0-31.733,0L435.745,367.66
	c36.101,0,65.362-29.26,65.362-65.362C501.106,301.317,501.074,300.337,501.03,299.367z"/>
<path style="fill:#FF3B3B;" d="M468.382,299.367c0.022,0.97,0.044,1.95,0.044,2.93c0,36.101-14.63,65.362-32.681,65.362
	c-36.101,0-65.362-29.26-65.362-65.362c0-0.98,0.033-1.961,0.076-2.93l1.787-40.641c0.011,0,57.638,0,95.243,0
	C467.489,258.879,468.382,299.367,468.382,299.367z"/>
<path d="M474.727,258.723c0-4.513-3.657-8.17-8.17-8.17H404.95c-4.513,0-8.17,3.657-8.17,8.17c0,4.513,3.657,8.17,8.17,8.17h61.608
	C471.07,266.894,474.727,263.237,474.727,258.723z"/>
<path d="M496.836,495.66h-52.921V375.365c36.714-4.079,65.362-35.284,65.362-73.067c0-0.992-0.026-2.04-0.082-3.292l-4.196-95.11
	c-0.194-4.368-3.79-7.811-8.163-7.811H374.653c-4.373,0-7.969,3.442-8.163,7.811l-4.195,95.103
	c-0.057,1.258-0.083,2.306-0.083,3.299c0,37.783,28.648,68.988,65.362,73.067V495.66h-52.921c-4.513,0-8.17,3.657-8.17,8.17
	s3.657,8.17,8.17,8.17h122.183c4.513,0,8.17-3.657,8.17-8.17S501.349,495.66,496.836,495.66z M378.553,302.298
	c0-0.861,0.027-1.715,0.068-2.573l3.851-87.299h106.547l3.852,87.306c0.038,0.852,0.066,1.706,0.066,2.567
	c0,31.535-25.657,57.191-57.191,57.191S378.553,333.833,378.553,302.298z"/>
<path d="M149.787,302.298c0-0.992-0.026-2.04-0.082-3.292l-4.196-95.11c-0.194-4.368-3.79-7.811-8.163-7.811H15.164
	c-4.373,0-7.969,3.442-8.163,7.811l-4.195,95.103c-0.057,1.258-0.083,2.306-0.083,3.299c0,37.783,28.648,68.988,65.362,73.067
	V495.66H15.164c-4.513,0-8.17,3.657-8.17,8.17s3.657,8.17,8.17,8.17h122.183c4.513,0,8.17-3.657,8.17-8.17s-3.657-8.17-8.17-8.17
	H84.426V375.365C121.139,371.286,149.787,340.081,149.787,302.298z M19.064,302.298c0-0.862,0.027-1.715,0.068-2.573l3.851-87.299
	h106.547l3.852,87.306c0.038,0.852,0.066,1.705,0.066,2.567c0,31.535-25.657,57.191-57.191,57.191S19.064,333.833,19.064,302.298z"
	/>
<path d="M115.221,258.723c0-4.513-3.657-8.17-8.17-8.17H45.443c-4.513,0-8.17,3.657-8.17,8.17c0,4.513,3.657,8.17,8.17,8.17h61.608
	C111.563,266.894,115.221,263.237,115.221,258.723z"/>
<path d="M291.404,176.135V81.227c3.171-1.123,5.447-4.14,5.447-7.695c0-4.513-3.657-8.17-8.17-8.17h-2.723V8.17
	c0-4.513-3.657-8.17-8.17-8.17h-43.574c-4.513,0-8.17,3.657-8.17,8.17v57.191h-2.723c-4.513,0-8.17,3.657-8.17,8.17
	c0,3.557,2.276,6.573,5.447,7.695v94.907c-32.807,14.066-54.468,46.548-54.468,82.589V503.83c0,4.513,3.657,8.17,8.17,8.17h163.404
	c4.513,0,8.17-3.657,8.17-8.17V258.723C345.872,222.683,324.211,190.2,291.404,176.135z M269.617,16.34v49.021h-27.234V16.34
	H269.617z M329.532,439.372H182.468V314.09h147.064V439.372z M182.468,495.66v-39.947h147.064v39.947H182.468z M329.532,297.75
	H182.468v-39.026c0-31.089,19.7-58.942,49.021-69.311c3.265-1.155,5.447-4.241,5.447-7.703V81.702h38.128V181.71
	c0,3.463,2.182,6.549,5.447,7.703c29.321,10.369,49.021,38.221,49.021,69.311V297.75z"/>
</svg>