<?xml version="1.0" encoding="UTF-8"?>
<svg id="a" data-name="Layer 1" xmlns="http://www.w3.org/2000/svg" xmlns:xlink="http://www.w3.org/1999/xlink" viewBox="0 0 14.00992 32">
  <defs>
    <linearGradient id="b" x1="-.75868" y1="2.45926" x2="15.84897" y2="2.45926" gradientUnits="userSpaceOnUse">
      <stop offset=".08561" stop-color="#987636"/>
      <stop offset=".9298" stop-color="#977a38"/>
    </linearGradient>
    <linearGradient id="c" x1="7.00497" y1="3.34609" x2="7.00497" y2="6.72895" gradientUnits="userSpaceOnUse">
      <stop offset=".28425" stop-color="#fdfeff"/>
      <stop offset=".67654" stop-color="#bcbec0"/>
    </linearGradient>
    <linearGradient id="d" x1="-8.98259" y1="18.73564" x2="22.99128" y2="18.73564" gradientUnits="userSpaceOnUse">
      <stop offset=".05334" stop-color="#feffff"/>
      <stop offset=".97201" stop-color="#cacac8"/>
    </linearGradient>
    <linearGradient id="e" x1="1.78558" y1="16.93794" x2="11.87009" y2="16.93794" gradientUnits="userSpaceOnUse">
      <stop offset=".08561" stop-color="#654e1c"/>
      <stop offset=".9298" stop-color="#977a38"/>
    </linearGradient>
  </defs>
  <path d="m9.03491.47179v4.25295c0,.04386-.02138.08497-.05729.11015l-.11923.08362c-.62091-.05111-1.23872-.07587-1.85343-.07432-.61936,0-1.23872.02476-1.85344.07432l-.11923-.08362c-.03591-.02518-.05729-.06629-.05729-.11015V.47179c0-.16548.11934-.30906.28282-.33471C6.42258-.04569,7.58734-.04569,8.7521.13708c.16348.02565.28282.16923.28282.33471Z" style="fill: url(#b);"/>
  <path d="m9.21143,5.13217v.24776c0,.06192-.03562.12078-.09136.14864-.00774.0031-.01394.00775-.02013.0124-.70142-.04801-1.39975-.06969-2.09498-.06969-.70143,0-1.39976.02478-2.09499.06969-.00619-.00465-.01239-.0093-.02013-.0124-.05574-.02786-.09135-.08672-.09135-.14864v-.24776c0-.07742.05264-.14554.13006-.16257l.22297-.05109c.61472-.04956,1.23408-.07432,1.85344-.07432.61471-.00155,1.23252.02321,1.85343.07432l.22297.05109c.07587.01703.13007.08515.13007.16257Z" style="fill: url(#c);"/>
  <path d="m14.00992,14.96451c-.10684,4.73502-1.1195,10.30305-2.59357,16.15756-.03716.14399-.13317.26942-.26942.33134-.86711.3995-2.49293.52338-4.14197.54659-1.64905-.02321-3.27487-.14709-4.14352-.54659-.13471-.06192-.23071-.18735-.26788-.33134C1.1195,25.26756.10684,19.69953,0,14.96451,0,10.69095,4.31539,6.70535,4.31539,6.70535c.50788-.34219.63485-.78968.66582-1.00181.00155-.00773.00155-.01703.00155-.02478,0-.05574-.02788-.10683-.07278-.13779.69523-.04491,1.39356-.06969,2.09499-.06969.69523,0,1.39356.02168,2.09498.06969-.0449.03096-.07277.08205-.07277.13779,0,.00775,0,.01705.00154.02478.03097.21213.15794.65962.66582,1.00181,0,0,4.31539,3.9856,4.31539,8.25916Z" style="fill: url(#d);"/>
  <path d="m1.78558,16.93794c3.35739-.21187,6.72716-.21356,10.08451-.00003-3.35734.2136-6.72712.21191-10.08451.00003h0Z" style="fill: url(#e);"/>
</svg>