<?xml version="1.0" encoding="UTF-8"?>
<svg id="a" data-name="Layer 1" xmlns="http://www.w3.org/2000/svg" xmlns:xlink="http://www.w3.org/1999/xlink" viewBox="0 0 7.45369 32">
  <defs>
    <linearGradient id="b" x1="-7.057" y1="20.417" x2="15.30408" y2="20.417" gradientUnits="userSpaceOnUse">
      <stop offset="0" stop-color="#d1d3d4"/>
      <stop offset="1" stop-color="#e6e7e8"/>
    </linearGradient>
    <linearGradient id="c" x1="1.78502" y1="23.38801" x2="4.53663" y2="26.13962" gradientUnits="userSpaceOnUse">
      <stop offset="0" stop-color="#fdba74"/>
      <stop offset=".07961" stop-color="#fcb36a"/>
      <stop offset=".32743" stop-color="#fba050"/>
      <stop offset=".55207" stop-color="#fb9541"/>
      <stop offset=".7315" stop-color="#fb923c"/>
    </linearGradient>
    <linearGradient id="d" x1="4.09549" y1="24.76836" x2="4.31617" y2="24.98904" gradientUnits="userSpaceOnUse">
      <stop offset="0" stop-color="#fdba74"/>
      <stop offset=".10637" stop-color="#fcb36a"/>
      <stop offset=".43749" stop-color="#fba050"/>
      <stop offset=".73765" stop-color="#fb9541"/>
      <stop offset=".97739" stop-color="#fb923c"/>
    </linearGradient>
    <linearGradient id="e" x1="2.19527" y1="4.70042" x2="5.25843" y2="4.70042" xlink:href="#b"/>
  </defs>
  <path d="m7.15173,28.82936v2.02556c0,.19844-.0951.38447-.25216.5002-.63249.4506-1.90572.54567-3.17481.64488-1.26495-.09921-2.53816-.19428-3.17064-.64488-.16123-.11573-.25216-.30176-.25216-.5002v-2.02556C.30196,28.75081.0002,12.47177.0002,12.47177c-.00828-.52914.23974-1.02932.66968-1.33936l1.16574-.83918c.1612-.11573.2563-.30176.26041-.50018l.01655-.74411c1.07479-.28524,2.15371-.28935,3.22852.00414l.01653.73997c.00414.19842.09921.38444.26043.50018l1.16574.83918c.42991.31004.67795.81022.66968,1.33936,0,0-.30176,16.27904-.30176,16.35759Z" style="fill: url(#b);"/>
  <path d="m5.74928,26.6839c-.13229.11987-.2811.22736-.44232.31418-.20255.1116-.42163.20669-.65727.28524-.70276.23974-1.42618.28935-2.07933.16948-.95078-.24802-1.46494-.8729-1.7874-1.71208-.57872-1.49645.22896-3.17825,2.12637-3.79419.59527-.19428,1.20296-.2563,1.77341-.20255.27793.02507.5474.08923.79989.18714.53204.2063.96208.6387,1.16446,1.17224.00113.00297.00225.00594.00336.00892.00414.00414.00414.00828.00828.01241.46713,1.27734.07027,2.64978-.90945,3.55923Z" style="fill: #f2f2f2;"/>
  <path d="m4.2707,22.30997h0c.11928,0,.23727.00525.35475.0155.23674.0199.46881.07043.68982.15027.42786.15442.7793.4823.94417.88696l.02429.05835.00223.00208c.35808.97864.05115,2.04053-.8067,2.78186-.11345.0957-.23627.177-.36731.2428-.17792.09119-.37378.17029-.58391.2356-.40341.12805-.81754.19299-1.23083.19299-.21117,0-.41997-.01733-.60039-.04749-.72957-.17725-1.1942-.59375-1.50679-1.3512-.21419-.51562-.20209-1.07446.03404-1.57373.30652-.64819.95062-1.1488,1.81404-1.40979.40233-.12219.81703-.1842,1.23259-.1842m0-.29993c-.43242,0-.8797.06348-1.31981.19714-1.81848.54968-2.59258,2.05029-2.03792,3.38562.30904.74878.80182,1.30627,1.71304,1.52759.21686.03711.44179.05603.67119.05603.43279,0,.88145-.06738,1.32164-.20715.22583-.07019.43581-.15503.62993-.25452.15453-.07751.29715-.17346.42392-.2804.93896-.81152,1.31932-2.03613.87163-3.1759-.00397-.00366-.00397-.00732-.00793-.01111-.00107-.00256-.00214-.00525-.00322-.00793-.19395-.47607-.60612-.86182-1.11603-1.0459-.24197-.0874-.50024-.14465-.76662-.16699-.12497-.01099-.25169-.01648-.37982-.01648h0Z" style="fill: #d6b372;"/>
  <g>
    <path d="m3.94856,23.98075c.13058.1061.23281.23479.30456.38692.09887.20962.12969.42955.09391.65842-.03156.20186-.11303.38253-.24542.53728-.23216.27138-.52922.40574-.8867.39973-.23078-.00388-.44016-.07656-.62673-.21281-.2216-.16183-.36599-.37698-.42884-.64332-.06809-.2886-.03006-.56555.12175-.82115.18371-.3093.45719-.48995.81337-.54429.00222-.00034.00439-.00094.00658-.00142.00919.00194.01055.01007.01263.017.0054.01799.01066.03604.01589.05406.00623.0215.00251.03528-.01799.04626-.01741.00933-.03398.02289-.0313.04552.00262.0221.02126.0335.03982.03899.06645.01965.13134.01551.19043-.02341.03527-.02324.03155-.06277-.00877-.07479-.03374-.01006-.04796-.02869-.05155-.0611-.00139-.01256-.00754-.02443-.01014-.03694-.00136-.00652-.00704-.01461.00326-.01952.01498.00299.02403.01489.03497.02373.08917.07205.18387.13525.29003.17969.07659.03206.15754.04312.23981.04709.03909.00188.0781-.00099.11715-.00091.00809.00002.0167-.00223.02326.00498Z" style="fill: url(#c);"/>
    <path d="m3.94856,23.98075c-.06467.00222-.12927.00461-.19395-.00132-.11149-.01023-.21358-.04625-.30894-.10481-.072-.04421-.14006-.09338-.20502-.14714-.01626-.00142-.02258-.01561-.03253-.0252-.01948-.01876-.03629-.03956-.04866-.06369-.01544-.03011-.01191-.04912.01322-.07387.00267.00103.00504.00332.00829.0012.07896-.05164.16814-.06253.25926-.06296.1228-.00059.23884.02509.34203.09552.07561.05161.14145.11424.20328.18135.04536.04924.08725.10128.12719.15498.01008.01355.01029.01836-.00812.02212-.05166.01054-.10391.01666-.15603.02383Z" style="fill: #5c903b;"/>
    <path d="m2.33447,23.79076c.05107-.0015.10208-.00287.15357-.01068.08875-.01346.17134-.04641.24973-.09645.05918-.03778.1155-.0792.16959-.12402.01294-.00191.01865-.0132.027-.02111.01635-.01548.03069-.0324.04168-.05168.01372-.02406.01187-.03858-.00678-.05648-.00216.00093-.00415.00282-.00662.00134-.05992-.03601-.12996-.03999-.20206-.03579-.09716.00566-.19028.0313-.27545.09092-.06242.04369-.11764.0954-.16991.15039-.03835.04034-.07409.08268-.10838.12621-.00865.01098-.00906.01472.00533.01671.04036.00558.08141.00771.12231.01066Z" style="fill: #5c903b;"/>
    <path d="m3.17268,23.56472c-.0001.00148.00038.00344-.00039.00436-.03283.03927-.00929.07061.01519.10069.01648.02025.03537.03854.05318.0577.00755.02821.01574.05626.02231.08469.00241.01041.00683.01536.0171.01731.01481.00281.02893.00788.04112.01731.02549.01972.02703.04714.00336.06907-.0157.01454-.03475.02381-.05479.03028-.04372.0141-.08836.01683-.13339.00698-.00945-.00207-.01895-.00515-.02759-.00945-.04624-.02302-.04903-.06217-.00453-.08865.02057-.01224.02776-.02288.01901-.04665-.00822-.02233-.01302-.04604-.02218-.06824-.03973-.11365-.10185-.21516-.17006-.31336-.02014-.02899-.04168-.05687-.06413-.08413-.02833-.03439-.02915-.07448-.00311-.09975.03037-.02946.07512-.02597.1049.00972.02308.02765.04546.05603.06619.08547.051.07242.09857.14704.13781.22666Z" style="fill: #662113;"/>
    <g>
      <path d="m5.32685,24.84071c0,.06649-.00831.11637-.01662.18276-.0332.20759-.10795.38194-.24079.53976-.23253.27399-.53145.40688-.88851.39856-.23253,0-.44012-.07481-.63109-.20759-.21591-.16603-.36537-.38194-.4235-.64772-.02488-.09133-.0332-.17435-.0332-.26578h.28235c0,.08312,0,.22422.01657.27409.04151.19097.14946.34048.29892.45675.13289.09133.34048.1411.49826.1411.2491.00831.53145-.08302.68923-.27399.09133-.11626.14115-.23253.16603-.37373.00831-.04146.00831-.14941.00831-.22422h.27404Z" style="fill: #fdc475;"/>
      <path d="m4.15599,25.01515v.69749c-.14946-.00831-.34874-.05808-.47327-.1411-.14951-.11626-.25741-.26578-.29897-.45675-.01657-.04987-.01657-.19097-.01657-.27409h.65598c0,.08312.05813.15782.13284.17445Z" style="fill: #faa827;"/>
      <path d="m5.0445,24.84071c0,.07481,0,.18276-.00826.22422-.02494.1412-.07476.25747-.16609.37373-.1412.16614-.38199.25736-.60621.26568v-.69749c.07476-.01662.12458-.08302.12458-.16614h.65598Z" style="fill: #faa827;"/>
      <path d="m4.38852,24.84071c0,.08312-.04982.14951-.12458.16614-.01657.01662-.04151.01662-.05808.01662-.01662,0-.03325,0-.04987-.00831-.07471-.01662-.13284-.09133-.13284-.17445h.36537Z" style="fill: url(#d);"/>
      <path d="m4.26394,25.00684v.7058h-.10795v-.69749c.01662.00831.03325.00831.04987.00831.01657,0,.04151,0,.05808-.01662Z" style="fill: #e37626;"/>
      <path d="m4.09289,24.98202l-.59971.37215-.05692-.09173.59265-.36777c.0017.01851.01047.03263.01923.04676.00874.01408.02189.03527.04475.04059Z" style="fill: #e37626;"/>
      <path d="m4.32023,24.98202l.59971.37215.05692-.09173-.59265-.36777c-.0017.01851-.01047.03263-.01923.04676-.00874.01408-.02189.03527-.04475.04059Z" style="fill: #e37626;"/>
    </g>
  </g>
  <path d="m5.2419,4.41493c-1.00866-.26871-2.01731-.26871-3.03011-.00414l.03308-1.53366c0-.06199.03305-.11987.08679-.15709l.08268-.05374c.03308-.02066.02894-.07027-.00414-.09093l-.10335-.05788c-.03719-.03719-.06199-.08679-.06199-.14054V.32243c.30176-.21494.86396-.2811,1.47989-.32243.62008.04133,1.1823.10748,1.48406.32243v2.05453c0,.05374-.0248.10335-.06202.14054l-.10335.05788c-.03305.02066-.03719.07027-.00411.09093l.08266.05374c.05374.03722.08682.0951.08682.15709l.03308,1.5378Z" style="fill: #2a2b46;"/>
  <path d="m5.25843,5.18796c-1.02104-.27696-2.03798-.27285-3.06316-.00414l.01653-.77302c1.01279-.26457,2.02145-.26457,3.03011.00414l.01653.77302Z" style="fill: url(#e);"/>
  <path d="m5.34111,9.05308c-1.07481-.29349-2.15374-.28937-3.22852-.00414l.08268-3.86512c1.02518-.26871,2.04212-.27282,3.06316.00414l.08268,3.86512Z" style="fill: #cec8ca;"/>
  <path d="m.52103,12.03948c.86045.08059,1.58765.34265,2.38478.58191,1.36022.11676,2.72214-.47231,4.02686-.53725-1.09941,1.07376-2.6724.92078-4.04478.69823-.79812.03878-1.89018-.07545-2.36686-.74289h0Z" style="fill: #c2c4c6;"/>
</svg>