<svg width="64" height="64" viewBox="0 0 64 64" fill="none" xmlns="http://www.w3.org/2000/svg">
<path d="M21.8347 32.1942C16.9827 33.3487 8.7821 31.6413 8.7821 31.6413L10.1054 45.9305L11.6693 61.1127H52.331L53.6715 45.9305L55.2182 29.8552C55.2182 29.8552 46.1516 30.9511 38.5909 32.1942C32.1314 33.2561 28.2058 30.6782 21.8347 32.1942Z" fill="url(#paint0_linear_402_706)"/>
<path fill-rule="evenodd" clip-rule="evenodd" d="M7.2185 4.46156C6.43507 4.46156 5.76787 4.69664 5.35159 5.00468C5.0306 5.24222 4.94266 5.44741 4.91997 5.55609L6.18407 16.0692L13.4103 59.0075H50.1515L57.8179 16.0589L59.0807 5.55609C59.058 5.4474 58.9701 5.24221 58.6491 5.00468C58.2328 4.69664 57.5656 4.46156 56.7822 4.46156H7.2185ZM2.84701 1.62007C4.08526 0.703779 5.66208 0.251038 7.2185 0.251038H56.7822C58.3386 0.251038 59.9154 0.703779 61.1537 1.62007C62.403 2.54455 63.2987 3.95679 63.2987 5.62055C63.2987 5.70455 63.2936 5.78847 63.2836 5.87187L61.9911 16.621C61.9864 16.6607 61.9805 16.7003 61.9734 16.7397L53.9868 61.4827C53.8075 62.4868 52.9343 63.218 51.9143 63.218H11.6297C10.6018 63.218 9.72423 62.4758 9.55364 61.4621L2.02371 16.7191C2.01822 16.6865 2.01351 16.6538 2.00957 16.621L0.717082 5.87188C0.707054 5.78848 0.702026 5.70455 0.702026 5.62055C0.702026 3.95678 1.5977 2.54455 2.84701 1.62007Z" fill="#E1E4E7"/>
<defs>
<linearGradient id="paint0_linear_402_706" x1="51.9959" y1="27.0909" x2="24.6911" y2="60.7108" gradientUnits="userSpaceOnUse">
<stop stop-color="#EFF6FF"/>
<stop offset="1" stop-color="#F1F5F9"/>
</linearGradient>
</defs>
</svg>
