<?xml version="1.0" encoding="UTF-8"?>
<svg id="a" data-name="Layer 1" xmlns="http://www.w3.org/2000/svg" xmlns:xlink="http://www.w3.org/1999/xlink" viewBox="0 0 9.13719 32">
  <defs>
    <linearGradient id="b" x1="-7.60594" y1="18.94054" x2="16.66792" y2="18.94054" gradientUnits="userSpaceOnUse">
      <stop offset=".00529" stop-color="#b6262f"/>
      <stop offset="1" stop-color="#af1619"/>
    </linearGradient>
    <linearGradient id="c" x1="-.97913" y1="3.5995" x2="9.62376" y2="3.5995" gradientUnits="userSpaceOnUse">
      <stop offset=".13688" stop-color="#e6e7e8"/>
      <stop offset="1" stop-color="#d1d3d4"/>
    </linearGradient>
  </defs>
  <path d="m4.56896,5.44271h-.00073" style="fill: none; stroke: #0b4a52; stroke-miterlimit: 10;"/>
  <path d="m8.07643,7.95552c-.55367-.4237-.9054-1.10147-1.13231-1.93344h-.00074c-2.31822-.31722-4.75025,0-4.75025,0-.22763.83198-.57937,1.50975-1.13304,1.93344C.13119,8.75298-.12288,9.77441.05115,10.93902c.04846.3297.08004.66161.08004.99499v17.70717c0,1.15507.91716,2.11187,2.09793,2.18971,1.5595.22551,3.11918.22546,4.67903,0,1.18077-.07784,2.09719-1.03464,2.09719-2.18971V11.93401c0-.33337.03157-.66528.08077-.99499.17403-1.16462-.08077-2.18604-1.00968-2.9835Zm-5.36561,3.40793h3.71488v9.74064h-3.71488v-9.74064Zm1.85781,14.39175c-1.13084,0-2.04799-.91715-2.04799-2.04798s.91715-2.04726,2.04799-2.04726,2.04725.91642,2.04725,2.04726-.91642,2.04798-2.04725,2.04798Z" style="fill: url(#b);"/>
  <path d="m6.79312,1.44219c-.76515-.30842-2.28811-.26289-2.28811-.26289-1.09926,0-1.73371.19679-2.08691.38184-.00147-.00074-.0022-.00147-.00367-.0022-.05287-.03305-.08077-.09473-.06903-.15714l.13585-.72917c.03966-.21149.19239-.37304.38698-.47437C3.37564-.06609,5.90607-.06609,6.26882.19826c.1777.12924.34806.26288.38698.47437l.13658.72917c.00221.01321.00294.02717.00074.04039Z" style="fill: #4fcb1d;"/>
  <path d="m6.94372,6.02207c-2.31822-.31722-4.75025,0-4.75025,0,.26803-.98029.36569-2.17575.42149-3.42261.01249-.04407.00514-.09105-.02056-.12924l-.20781-.30915c-.03965-.05874-.03451-.13585.01248-.18871l.12483-.14246c.02643-.03011.03892-.06609.03892-.10207,0-.06388-.03966-.1263-.10941-.14907-.01249-.00367-.02423-.00954-.03525-.01762.3532-.18505.98765-.38184,2.08691-.38184,0,0,1.52296-.04553,2.28811.26289-.00441.06094-.04626.11602-.10868.13657-.06976.02277-.11015.08519-.11015.14907,0,.03598.01322.07196.03965.10207l.12483.14246c.04626.05287.05213.12997.01175.18871l-.20781.30915c-.02496.03819-.03304.08517-.01982.12924.05507,1.24686.152,2.44232.42076,3.42261Z" style="fill: url(#c);"/>
  <rect x="2.71115" y="11.36345" width="3.71488" height="9.74064" style="fill: #f8fff9;"/>
  <path d="m6.61622,23.70721c0,1.13083-.91642,2.04798-2.04725,2.04798s-2.04799-.91715-2.04799-2.04798.91715-2.04726,2.04799-2.04726,2.04725.91642,2.04725,2.04726Z" style="fill: #f8fff9;"/>
  <path d="m2.01283,7.31985c1.62476-.5344,3.49532-.59485,5.11153-.00003-.85565-.08006-1.69797-.13696-2.55329-.12616-.85536.00371-1.70041.07498-2.55824.12619h0Z" style="fill: #c13e45;"/>
</svg>