<?xml version="1.0" encoding="iso-8859-1"?>
<!-- Uploaded to: SVG Repo, www.svgrepo.com, Generator: SVG Repo Mixer Tools -->
<svg height="800px" width="800px" version="1.1" id="Layer_1" xmlns="http://www.w3.org/2000/svg" xmlns:xlink="http://www.w3.org/1999/xlink" 
	 viewBox="0 0 512 512" xml:space="preserve">
<path style="fill:#B5E6F8;" d="M209.504,269.655L193.362,8.17h-32.744l-54.405,174.298L128,356.766
	c45.122,0,81.702-36.58,81.702-81.702C209.702,273.245,209.622,271.445,209.504,269.655z"/>
<path style="fill:#DBFFF5;" d="M62.638,8.17L46.496,269.655c-0.117,1.79-0.198,3.589-0.198,5.409
	c0,45.122,36.58,81.702,81.702,81.702V182.468L95.382,8.17H62.638z"/>
<path style="fill:#B5E6F8;" d="M128,454.809l52.243,49.021h32.681C195.971,474.526,164.289,454.809,128,454.809z"/>
<path style="fill:#DBFFF5;" d="M128,454.809c-36.289,0-67.971,19.717-84.923,49.021h137.166
	C169.814,474.526,150.324,454.809,128,454.809z"/>
<polygon style="fill:#FFECBA;" points="160.618,8.17 138.873,8.17 127.979,138.894 166.671,106.213 "/>
<polygon style="fill:#FFFFFF;" points="138.873,8.17 95.382,8.17 89.329,106.213 140.89,138.894 "/>
<path style="fill:#FFA46E;" d="M166.671,106.213H140.89L128,324.085c27.03,0,49.021-21.991,49.021-49.021
	c0-0.898-0.041-1.939-0.129-3.277L166.671,106.213z"/>
<path style="fill:#FFD875;" d="M140.89,106.213H89.329L79.106,271.787c-0.087,1.339-0.129,2.38-0.129,3.277
	c0,27.03,21.991,49.021,49.021,49.021c9.01,0,16.34-21.991,16.34-49.021c0-0.898-0.014-1.939-0.042-3.277L140.89,106.213z"/>
<path style="fill:#B5E6F8;" d="M465.504,269.655L449.362,8.17h-32.744l-54.405,174.298L384,356.766
	c45.122,0,81.702-36.58,81.702-81.702C465.702,273.245,465.622,271.445,465.504,269.655z"/>
<path style="fill:#DBFFF5;" d="M318.638,8.17l-16.142,261.485c-0.117,1.79-0.198,3.589-0.198,5.409
	c0,45.122,36.58,81.702,81.702,81.702V182.468L351.382,8.17H318.638z"/>
<path style="fill:#B5E6F8;" d="M384,454.809l52.243,49.021h32.681C451.971,474.526,420.289,454.809,384,454.809z"/>
<path style="fill:#DBFFF5;" d="M384,454.809c-36.289,0-67.971,19.717-84.923,49.021h137.166
	C425.814,474.526,406.324,454.809,384,454.809z"/>
<polygon style="fill:#FFECBA;" points="416.618,8.17 394.873,8.17 383.979,138.894 422.671,106.213 "/>
<polygon style="fill:#FFFFFF;" points="394.873,8.17 351.382,8.17 345.329,106.213 396.89,138.894 "/>
<path style="fill:#FFA46E;" d="M422.671,106.213H396.89L384,324.085c27.03,0,49.021-21.991,49.021-49.021
	c0-0.898-0.041-1.939-0.129-3.277L422.671,106.213z"/>
<path style="fill:#FFD875;" d="M396.89,106.213H345.33l-10.223,165.574c-0.087,1.339-0.129,2.38-0.129,3.277
	c0,27.03,21.991,49.021,49.021,49.021c9.01,0,16.34-21.991,16.34-49.021c0-0.898-0.014-1.939-0.042-3.277L396.89,106.213z"/>
<path d="M239.66,495.66h-22.165c-17.972-28.053-48.255-46.117-81.324-48.691v-82.42c45.739-4.144,81.702-42.683,81.702-89.485
	c0-1.807-0.069-3.695-0.216-5.942c-0.05-0.856-0.109-1.813-0.175-2.906L201.517,7.666C201.25,3.359,197.678,0,193.362,0H62.638
	c-4.316,0-7.888,3.359-8.155,7.666L38.315,269.22c-0.097,1.832-0.187,3.807-0.187,5.843c0,46.8,35.963,85.341,81.702,89.485v82.42
	c-33.069,2.574-63.352,20.638-81.324,48.691H16.34c-4.512,0-8.17,3.658-8.17,8.17s3.658,8.17,8.17,8.17h196.566
	c0.049,0,26.754,0,26.754,0c4.512,0,8.17-3.658,8.17-8.17S244.172,495.66,239.66,495.66z M87.262,272.29l9.749-157.907h61.979
	l9.751,157.935c0.075,1.16,0.111,2.033,0.111,2.746c0,22.526-18.325,40.851-40.851,40.851s-40.852-18.325-40.852-40.851
	C87.149,274.351,87.184,273.479,87.262,272.29z M54.468,275.064c0-1.654,0.08-3.368,0.16-4.904L70.319,16.34h82.617l5.045,81.702
	H98.02l3.5-56.688c0.278-4.503-3.148-8.38-7.652-8.658c-4.493-0.279-8.379,3.148-8.658,7.651L70.955,271.255
	c-0.1,1.523-0.146,2.733-0.146,3.808c0,31.536,25.656,57.191,57.191,57.191s57.191-25.656,57.191-57.191
	c0-1.075-0.046-2.285-0.144-3.78L169.308,16.34h16.373c2.646,42.81,15.453,250.006,15.663,253.711
	c0.002,0.046,0.004,0.09,0.008,0.136c0.123,1.884,0.181,3.433,0.181,4.876c0,40.546-32.986,73.532-73.532,73.532
	S54.468,315.61,54.468,275.064z M128,462.979c26.958,0,52.387,12.236,69.315,32.681H58.685
	C75.613,475.214,101.042,462.979,128,462.979z"/>
<circle cx="128" cy="217.872" r="8.17"/>
<circle cx="128" cy="283.234" r="8.17"/>
<path d="M495.66,495.66h-22.165c-17.972-28.053-48.255-46.117-81.324-48.691v-82.42c45.739-4.144,81.702-42.683,81.702-89.485
	c0-1.807-0.069-3.695-0.216-5.942c-0.05-0.856-0.109-1.813-0.175-2.906L457.517,7.666C457.25,3.359,453.678,0,449.362,0H318.638
	c-4.316,0-7.888,3.359-8.155,7.666L294.315,269.22c-0.097,1.832-0.187,3.807-0.187,5.843c0,46.8,35.963,85.341,81.702,89.485v82.42
	c-33.069,2.574-63.352,20.638-81.324,48.691H272.34c-4.512,0-8.17,3.658-8.17,8.17c0,4.512,3.658,8.17,8.17,8.17h196.565
	c0.049,0,26.754,0,26.754,0c4.512,0,8.17-3.658,8.17-8.17C503.83,499.318,500.172,495.66,495.66,495.66z M343.262,272.29
	l9.749-157.907h61.978l9.751,157.935c0.075,1.16,0.111,2.033,0.111,2.746c0,22.526-18.325,40.851-40.851,40.851
	c-22.526,0-40.851-18.325-40.851-40.851C343.149,274.351,343.184,273.479,343.262,272.29z M413.98,98.043H354.02l5.044-81.702
	h49.872L413.98,98.043z M310.468,275.064c0-1.654,0.08-3.368,0.16-4.904L326.319,16.34h16.373l-15.738,254.915
	c-0.099,1.523-0.146,2.733-0.146,3.808c0,31.536,25.656,57.191,57.191,57.191s57.191-25.656,57.191-57.191
	c0-1.075-0.046-2.285-0.144-3.78L425.308,16.34h16.373c2.646,42.81,15.453,250.006,15.663,253.711
	c0.002,0.046,0.004,0.09,0.008,0.136c0.123,1.884,0.181,3.433,0.181,4.876c0,40.546-32.986,73.532-73.532,73.532
	S310.468,315.61,310.468,275.064z M384,462.979c26.958,0,52.387,12.236,69.315,32.681h-138.63
	C331.613,475.214,357.042,462.979,384,462.979z"/>
<circle cx="384" cy="217.872" r="8.17"/>
<circle cx="384" cy="283.234" r="8.17"/>
</svg>