<?xml version="1.0" encoding="UTF-8"?>
<svg id="a" data-name="Layer 1" xmlns="http://www.w3.org/2000/svg" xmlns:xlink="http://www.w3.org/1999/xlink" viewBox="0 0 13.59902 32">
  <defs>
    <linearGradient id="b" x1="-5.40381" y1="18.41593" x2="20.09697" y2="18.41593" gradientUnits="userSpaceOnUse">
      <stop offset=".01953" stop-color="#fd4a5c"/>
      <stop offset=".09556" stop-color="#f64153"/>
      <stop offset=".47475" stop-color="#dc1e30"/>
      <stop offset=".78375" stop-color="#cb081a"/>
      <stop offset=".98215" stop-color="#c60012"/>
    </linearGradient>
    <linearGradient id="c" x1="7.95615" y1="21.0232" x2="8.84325" y2="22.84173" gradientUnits="userSpaceOnUse">
      <stop offset="0" stop-color="#d76a28"/>
      <stop offset=".23971" stop-color="#d95f25"/>
      <stop offset=".65448" stop-color="#df431d"/>
      <stop offset=".96264" stop-color="#e52a17"/>
    </linearGradient>
    <linearGradient id="d" x1="4.78981" y1="22.50254" x2="5.6769" y2="24.32108" xlink:href="#c"/>
    <linearGradient id="e" x1="6.614" y1="22.50254" x2="7.50109" y2="24.32108" xlink:href="#c"/>
    <linearGradient id="f" x1="7.58678" y1="18.38733" x2="7.61283" y2="19.44646" gradientUnits="userSpaceOnUse">
      <stop offset="0" stop-color="#8bc404"/>
      <stop offset=".65743" stop-color="#5fc404"/>
      <stop offset=".99553" stop-color="#4fc404"/>
    </linearGradient>
    <linearGradient id="g" x1="-343.74781" y1="157.66991" x2="-343.75541" y2="158.6956" gradientTransform="translate(-461.53996 7.21001) rotate(156.76082) scale(1.09076 -1.23366) skewX(-16.09415)" xlink:href="#f"/>
  </defs>
  <path d="m13.59902,13.08128v16.77885c0,1.17991-.95989,2.13986-2.1398,2.13986H2.13986c-1.17991,0-2.13986-.95995-2.13986-2.13986V13.09129c0-.84992.16997-1.70984.49996-2.48982l2.41981-5.76962h7.77948l2.3998,5.76962c.32999.77997.49996,1.62989.49996,2.47981Z" style="fill: url(#b);"/>
  <path d="m10.68925,4.83186H2.90977c.36997-.88989.58999-1.83984.63997-2.8098h6.39958l.03998.31998c.09997.75996.28996,1.49989.57998,2.19986l.11999.28996Z" style="fill: #d9e1e7;"/>
  <path d="m10.88658.55134v.91678c0,.30772-.25004.55776-.55776.55776H3.2702c-.30772,0-.55776-.25004-.55776-.55776v-.91678c0-.30134.25004-.55134.55776-.55134h7.05862c.30772,0,.55776.25.55776.55134Z" style="fill: #4f4f3c;"/>
  <path d="m12.6826,25.01255c-3.92206.63375-7.84412.63375-11.76618,0-.12202-.01972-.21296-.12666-.21296-.25026v-7.91319c0-.15082.13331-.26392.28245-.24148,3.87573.58329,7.75147.58329,11.6272,0,.14914-.02245.28245.09066.28245.24148v7.91319c0,.12361-.09093.23055-.21296.25026Z" style="fill: #fff;"/>
  <g>
    <ellipse cx="8.391" cy="21.91464" rx=".80193" ry="1.10437" style="fill: url(#c);"/>
    <ellipse cx="5.22466" cy="23.39398" rx=".80193" ry="1.10437" style="fill: url(#d);"/>
    <ellipse cx="7.04885" cy="23.39398" rx=".80193" ry="1.10437" style="fill: url(#e);"/>
    <polyline points="6.56279 19.41303 6.87016 21.50736 6.95043 22.6389" style="fill: none; stroke: #8fc902; stroke-linecap: round; stroke-linejoin: round; stroke-width: .75px;"/>
    <line x1="5.22466" y1="22.48823" x2="6.79951" y2="21.02597" style="fill: none; stroke: #8fc902; stroke-linecap: round; stroke-linejoin: round; stroke-width: .75px;"/>
    <line x1="8.33732" y1="20.9404" x2="6.56279" y2="19.41303" style="fill: none; stroke: #8fc902; stroke-linecap: round; stroke-linejoin: round; stroke-width: .75px;"/>
    <path d="m7.82505,19.42689c-.44035.13534-.91679.08648-1.28634-.09866.09873-.32907.39928-.61755.83963-.75289s.9181-.08606,1.28672.09937c-.09966.32935-.39966.61684-.84001.75218Z" style="fill: url(#f);"/>
    <path d="m5.61395,19.22572c.31258.13878.65538.17242.92475.11066-.06304-.20935-.27176-.42108-.58434-.55986s-.65633-.17234-.92504-.11028c.0637.20964.27204.42071.58463.55949Z" style="fill: url(#g);"/>
  </g>
</svg>