<?xml version="1.0" encoding="UTF-8"?>
<svg id="a" data-name="Layer 1" xmlns="http://www.w3.org/2000/svg" xmlns:xlink="http://www.w3.org/1999/xlink" viewBox="0 0 10.22452 32">
  <defs>
    <linearGradient id="b" x1="-4.43709" y1="19.42495" x2="13.43261" y2="19.42495" gradientUnits="userSpaceOnUse">
      <stop offset="0" stop-color="#e6e7e8"/>
      <stop offset="1" stop-color="#d1d3d4"/>
    </linearGradient>
  </defs>
  <path d="m7.20949.29663v2.55518c0,.15092-.03501.29947-.10266.4343-.06718.13483-.10219.28338-.10219.43382v3.47914c-1.28351-.44282-2.54714-.48776-3.78428,0v-3.47914c0-.15044-.03501-.29899-.10266-.43382-.06718-.13484-.10219-.28338-.10219-.4343V.29663C3.042.00614,4.11025.0123,5.11226,0c1.00201.0123,2.07026.00614,2.09723.29663Z" style="fill: #22352f;"/>
  <path d="m10.22452,12.77687v17.87399c0,.28717-.13341.56157-.3676.72763-.94477.67037-2.99043.62069-4.74467.62069s-3.7999.04968-4.74419-.62069c-.23418-.16606-.36807-.44045-.36807-.72763V12.77687c.02697-1.48741.79149-2.44732,2.39339-2.80782l.25594-.15139c.35387-.21005.57103-.59089.57103-1.00202v-1.61656c1.23714-.48776,2.50078-.44282,3.78428,0v1.61656c0,.41112.21668.79197.57103,1.00202l.25547.15139c1.60237.36049,2.36689,1.3204,2.39339,2.80782Z" style="fill: url(#b);"/>
  <path d="m3.36051,9.69365c.26983-.13349.56678-.19976.8655-.20059.22181.01113.44278.05551.66548.03185.29458-.03396.58965-.07211.8865-.05655.37145.01234.73919.08613,1.08563.22518,0,0-.00326.02344-.00326.02344-.07538.0109-.14976.01636-.22371.01968-.2925.01392-.58471.00936-.87507-.02107l-.2166-.02472c-.2904-.02267-.57907-.11221-.87171-.08406-.14577.01121-.28934.05613-.43229.08299-.21566.03474-.4333.0407-.65182.04023-.07384-.00202-.14773-.00266-.22417-.01315l-.00448-.02323h0Z" style="fill: #abacae;"/>
  <path d="m9.58577,26.07709c-3.04121.25755-6.02348.25755-8.94679,0v-12.31735c2.98226-.15598,5.96452-.15598,8.94679,0v12.31735Z" style="fill: #274b49;"/>
  <path d="m5.06817,25.32408c-1.16426,0-2.33221-.03142-3.483-.09356v-8.12826c1.17495-.03769,2.35757-.05676,3.52721-.05676s2.35224.01906,3.52719.05676v8.12659c-1.19905.06324-2.39668.09523-3.5714.09523Z" style="fill: #ffefe1;"/>
  <path d="m.63898,26.27026c2.92331.25755,5.90558.25755,8.94679,0v3.18122c-3.04121.25755-6.02348.25755-8.94679,0v-3.18122Z" style="fill: #274b49;"/>
</svg>