<?xml version="1.0" encoding="iso-8859-1"?>
<!-- Uploaded to: SVG Repo, www.svgrepo.com, Generator: SVG Repo Mixer Tools -->
<svg height="800px" width="800px" version="1.1" id="Layer_1" xmlns="http://www.w3.org/2000/svg" xmlns:xlink="http://www.w3.org/1999/xlink" 
	 viewBox="0 0 512 512" xml:space="preserve">
<g transform="translate(-1)">
	<g>
		<path style="fill:#F9D70B;" d="M495.345,264.828c0,4.873-3.955,8.828-8.828,8.828c-4.873,0-8.828-3.955-8.828-8.828
			s3.955-8.828,8.828-8.828C491.39,256,495.345,259.955,495.345,264.828"/>
		<path style="fill:#F9D70B;" d="M451.207,229.517c0,4.873-3.955,8.828-8.828,8.828s-8.828-3.955-8.828-8.828
			c0-4.873,3.955-8.828,8.828-8.828S451.207,224.644,451.207,229.517"/>
		<path style="fill:#F9D70B;" d="M451.207,167.724c0,4.873-3.955,8.828-8.828,8.828s-8.828-3.955-8.828-8.828
			c0-4.873,3.955-8.828,8.828-8.828S451.207,162.851,451.207,167.724"/>
		<path style="fill:#F9D70B;" d="M486.517,211.862c0,4.873-3.955,8.828-8.828,8.828c-4.873,0-8.828-3.955-8.828-8.828
			s3.955-8.828,8.828-8.828C482.562,203.034,486.517,206.989,486.517,211.862"/>
	</g>
	<path style="fill:#F4C44E;" d="M362.931,467.862c82.882,0,150.069-67.187,150.069-150.069H212.862
		C212.862,400.675,280.049,467.862,362.931,467.862"/>
	<path style="fill:#F9EB80;" d="M362.931,432.552c63.276,0,114.759-51.483,114.759-114.759H248.172
		C248.172,381.069,299.655,432.552,362.931,432.552"/>
	<path style="fill:#F9D70B;" d="M212.862,317.793h185.379V83.121C359.965,58.827,310.769,44.138,257,44.138
		c-110.036,0-201.216,61.21-217.918,141.259l-11.599-0.018C12.855,185.379,1,197.235,1,211.862s11.855,26.483,26.483,26.483h11.608
		c15.078,72.218,90.836,128.927,186.289,139.361C217.364,359.345,212.862,339.103,212.862,317.793"/>
	<g>
		<path style="fill:#F4C44E;" d="M437.5,404.845c4.476-3.84,8.642-8.007,12.482-12.482l-74.567-74.567h-21.31
			c0,2.251,0.856,4.511,2.586,6.241L437.5,404.845z"/>
		<path style="fill:#F4C44E;" d="M362.931,432.552c2.984,0,5.906-0.221,8.828-0.45V317.793h-17.655v114.308
			C357.025,432.331,359.947,432.552,362.931,432.552"/>
		<path style="fill:#F4C44E;" d="M275.879,392.363c3.84,4.476,8.007,8.642,12.482,12.482l80.808-80.808
			c1.73-1.73,2.587-3.99,2.587-6.241h-21.31L275.879,392.363z"/>
	</g>
</g>
</svg>