<?xml version="1.0" encoding="UTF-8"?>
<svg id="a" data-name="Layer 1" xmlns="http://www.w3.org/2000/svg" xmlns:xlink="http://www.w3.org/1999/xlink" viewBox="0 0 7.84728 32">
  <defs>
    <linearGradient id="b" x1="-1.73294" y1="3.06846" x2="9.90223" y2="3.06846" gradientUnits="userSpaceOnUse">
      <stop offset=".20361" stop-color="#b62c2a"/>
      <stop offset=".29695" stop-color="#aa2a26"/>
      <stop offset=".79291" stop-color="#702117"/>
    </linearGradient>
    <linearGradient id="c" x1="-2.33819" y1="20.51267" x2="10.1454" y2="20.51267" gradientUnits="userSpaceOnUse">
      <stop offset=".02834" stop-color="#bcbbb6"/>
      <stop offset=".98272" stop-color="#e6e7e0"/>
    </linearGradient>
    <linearGradient id="d" x1="1.05342" y1="20.52602" x2="6.79377" y2="20.52602" gradientUnits="userSpaceOnUse">
      <stop offset=".02834" stop-color="#a17f24"/>
      <stop offset=".55445" stop-color="#d0a747"/>
      <stop offset=".99224" stop-color="#a17f24"/>
    </linearGradient>
  </defs>
  <path d="m5.48723.46105v5.67587h-3.12718V.46105c0-.25565.20543-.46105.46113-.46105h2.20495c.2557,0,.4611.2054.4611.46105Z" style="fill: url(#b);"/>
  <path d="m7.84728,14.12674v16.86408c0,.4611-.37728.83838-.83838.83838-2.05679.22773-4.11364.22773-6.17052,0-.4611,0-.83838-.37728-.83838-.83838V14.12674c0-1.24079.28088-2.48163.90547-3.55054.09221-.15515.18864-.306.29344-.44437.7168-.96836,1.16114-2.11694,1.16114-3.32416v-.67075h3.12718v.67075c0,1.20722.44434,2.3558,1.16117,3.32416.1048.13837.2012.28922.29341.44437.62462,1.06891.90547,2.30975.90547,3.55054Z" style="fill: #101012;"/>
  <path d="m7.22756,27.1903c-2.20262.34902-4.40526.34902-6.60793,0-.04275,0-.0774-.03465-.0774-.0774v-13.27242c0-.04275.03465-.07741.0774-.07741,2.20264-.25307,4.40529-.25307,6.60793,0,.04275,0,.0774.03466.0774.07741v13.27242c0,.04275-.03465.0774-.0774.0774Z" style="fill: url(#c);"/>
  <path d="m6.5899,26.64189c-1.82617.28437-3.60576.29596-5.33282,0-.11237,0-.20366-.07616-.20366-.17008v-11.93378c0-.09393.09129-.1701.20366-.1701,1.89896-.23391,3.67658-.23393,5.33282,0,.11237,0,.20387.07617.20387.1701v11.93378c0,.09393-.09149.17008-.20387.17008ZM1.25708,14.45538c-.05445,0-.09886.03723-.09886.08265v11.93378c0,.04543.04441.08267.09886.08267,1.77766.28573,3.55526.28576,5.33282,0,.05465,0,.09907-.03724.09907-.08267v-11.93378c0-.04543-.04442-.08265-.09907-.08265-1.78773-.19907-3.56632-.20365-5.33282,0Z" style="fill: url(#d);"/>
</svg>