<?xml version="1.0" encoding="UTF-8"?>
<svg id="a" data-name="Layer 1" xmlns="http://www.w3.org/2000/svg" xmlns:xlink="http://www.w3.org/1999/xlink" viewBox="0 0 7.82887 32">
  <defs>
    <linearGradient id="b" x1="-5.22391" y1="19.87419" x2="13.74554" y2="19.87419" gradientUnits="userSpaceOnUse">
      <stop offset=".02834" stop-color="#bcbbb6"/>
      <stop offset=".98272" stop-color="#e6e7e0"/>
    </linearGradient>
    <linearGradient id="c" x1="-.87238" y1="3.76061" x2="8.56327" y2="3.76061" gradientUnits="userSpaceOnUse">
      <stop offset=".02834" stop-color="#4a0c08"/>
      <stop offset=".98272" stop-color="#702117"/>
    </linearGradient>
    <linearGradient id="d" x1="-2.88577" y1="26.12947" x2="12.93788" y2="26.12947" gradientUnits="userSpaceOnUse">
      <stop offset=".14255" stop-color="#821112"/>
      <stop offset=".3066" stop-color="#900c12"/>
      <stop offset=".63922" stop-color="#a70412"/>
      <stop offset=".84717" stop-color="#b00212"/>
    </linearGradient>
  </defs>
  <path d="m7.82887,13.62032v17.20996c0,.50349-.37826.9222-.8661.95743-2.05831.27912-4.09183.28696-6.09667,0-.48914-.03522-.8661-.45394-.8661-.95743V13.62294c0-.28306.02087-.56742.08087-.84394.08218-.37436.21392-.7148.39783-1.02132.18391-.30654.41871-.57914.70697-.81654.40436-.40697.65611-.94959.70828-1.53134l.1787-1.99179c1.20134.14088,2.43006.13435,3.68357,0l.1787,1.99179c.05217.58175.30391,1.12437.70828,1.53134.28826.23741.52306.51.70697.81654.17739.2961.30653.6235.3887.9822.06652.28826.09.58436.09.88046Z" style="fill: #101012;"/>
  <path d="m7.28864,24.01922c-2.30359.37277-4.55345.37294-6.7496.00052-.04804-.00815-.08323-.04917-.08323-.09675v-8.37683c0-.0572.05032-.10165.10867-.09626,2.23322.20648,4.46644.20648,6.69966,0,.05835-.0054.10867.03906.10867.09626v8.37622c0,.04785-.03579.08901-.08416.09684Z" style="fill: url(#b);"/>
  <path d="m5.75622,7.418c-1.25351.13435-2.48224.14088-3.68357,0l.34697-3.88444c.00131-.00912.00131-.01955.00131-.02869,0-.07697-.02609-.15131-.07435-.2087-.0887-.10956-.11217-.25697-.03913-.37697l.05217-.08479c.02609-.04565.04305-.09522.04566-.1474L2.56962.11087C2.57484.04826,2.62441,0,2.68571,0h2.45745C5.20446,0,5.25534.04826,5.25925.11087l.16434,2.57615c.00392.05218.01957.10175.04566.1474l.05217.08479c.07304.11999.04957.27002-.04044.37956-.04696.0574-.07304.13044-.07304.2061,0,.00914,0,.01957.00131.02869l.34697,3.88444Z" style="fill: url(#c);"/>
  <path d="m6.92745,23.34968c-2.057.31256-4.06604.3127-6.02711.00043-.0429-.00683-.07432-.04123-.07432-.08112v-7.02373c0-.04796.04493-.08523.09704-.08071,1.99417.17313,3.98834.17313,5.98251,0,.05211-.00452.09704.03275.09704.08071v7.02322c0,.04012-.03195.07464-.07515.0812Z" style="fill: none; stroke: #a7a9ac; stroke-miterlimit: 10; stroke-width: .25px;"/>
  <path d="m7.3728,27.33621c-2.30567.51196-4.61133.51196-6.91699,0v-2.79745c2.30567.40224,4.61133.40224,6.91699,0v2.79745Z" style="fill: url(#d);"/>
  <path d="m2.39289,3.08537c1.06174.10345,1.98095.09968,3.04285-.00005-.89237.56881-2.15046.56859-3.04285.00005h0Z" style="fill: #702117;"/>
</svg>