<?xml version="1.0" encoding="UTF-8"?><svg id="_Слой_1" xmlns="http://www.w3.org/2000/svg" viewBox="0 0 700 275">
<defs>
<style>
.cls-1,.cls-2,.cls-3,.cls-4{stroke-width:0px;}
.cls-1,.cls-2,.cls-3,.cls-5{fill:#fff;}
.cls-2{opacity:.8;}.cls-3{opacity:.5;}
.cls-4{fill:#000;}
.cls-5{font-family:Georgia-Italic, Georgia;font-size:39.53px;font-style:italic;}</style>
</defs>
<rect class="cls-1" x="229.03" y="137.52" width="470.97" height="2.92"/>
<text class="cls-5" transform="translate(229.04 179.02)">
<tspan x="0" y="0">make your perfect cocktail</tspan>
</text>
<path class="cls-1" d="M318.83,123.46h-32.02v-3.63c1.16-.03,2.65-.15,4.47-.36,1.82-.2,3.07-.49,3.75-.87,1.05-.65,1.83-1.39,2.32-2.22.49-.83.74-1.88.74-3.14v-52.71h-.77l-24.72,61.75h-2.55l-23.55-63.03h-.66v43.26c0,4.19.26,7.37.79,9.55.53,2.18,1.34,3.75,2.43,4.7.75.71,2.3,1.4,4.65,2.04,2.35.65,3.88.99,4.6,1.02v3.63h-29.27v-3.63c1.53-.14,3.14-.39,4.83-.77,1.69-.37,2.99-.94,3.91-1.69,1.19-.95,2.01-2.42,2.45-4.39.44-1.97.66-5.28.66-9.91v-37.08c0-2.15-.26-3.9-.77-5.26-.51-1.36-1.24-2.47-2.2-3.32-1.06-.92-2.35-1.6-3.88-2.04-1.53-.44-3.05-.7-4.55-.77v-3.63h24.71l20.76,54.4,17.72-45.51c.65-1.67,1.2-3.42,1.66-5.24.46-1.82.71-3.04.74-3.65h23.63v3.63c-.95.03-2.17.19-3.65.46-1.48.27-2.56.53-3.24.77-1.16.41-1.94,1.09-2.35,2.04-.41.95-.61,1.99-.61,3.12v52.25c0,1.19.2,2.2.61,3.01.41.82,1.19,1.53,2.35,2.15.61.34,1.7.66,3.27.94,1.57.29,2.81.45,3.73.49v3.63Z"/>
<path class="cls-1" d="M389.51,102.11l-1.38,21.35h-60.17v-3.63c1.02-.07,2.38-.21,4.09-.43,1.7-.22,2.81-.45,3.32-.69,1.09-.51,1.85-1.17,2.27-1.99.43-.82.64-1.86.64-3.12v-52.1c0-1.12-.19-2.12-.56-2.99-.37-.87-1.16-1.57-2.35-2.12-.92-.44-2.15-.83-3.7-1.17-1.55-.34-2.78-.54-3.7-.61v-3.63h56.08v17.47h-3.83c-.68-2.59-2.15-5.34-4.42-8.25-2.26-2.91-4.42-4.5-6.46-4.78-1.06-.14-2.32-.24-3.78-.31-1.46-.07-3.13-.1-5.01-.1h-11.39v28.81h8.17c2.62,0,4.54-.25,5.75-.74,1.21-.49,2.27-1.32,3.19-2.48.75-.99,1.39-2.31,1.92-3.96.53-1.65.88-3.21,1.05-4.67h3.83v28.4h-3.83c-.14-1.63-.5-3.36-1.1-5.18-.6-1.82-1.22-3.14-1.86-3.96-1.06-1.33-2.26-2.2-3.6-2.6-1.35-.41-3.12-.61-5.34-.61h-8.17v21.72c0,2.18.15,3.89.46,5.15.31,1.26.9,2.21,1.79,2.86.89.65,2.09,1.06,3.63,1.25,1.53.19,3.71.28,6.54.28h4.44c1.84,0,3.39-.07,4.65-.2,1.29-.14,2.63-.38,4.01-.74s2.36-.84,2.94-1.46c1.57-1.63,3.21-4.11,4.93-7.43,1.72-3.32,2.82-5.76,3.29-7.33h3.68Z"/>
<path class="cls-1" d="M428.59,123.46h-32.64v-3.63c.92-.07,2.25-.17,3.98-.31,1.74-.14,2.96-.34,3.68-.61,1.12-.44,1.94-1.05,2.45-1.81.51-.77.77-1.83.77-3.19v-52.51c0-1.19-.19-2.19-.56-2.99-.37-.8-1.26-1.47-2.66-2.02-1.02-.41-2.31-.79-3.86-1.15-1.55-.36-2.82-.57-3.81-.64v-3.63h32.64v3.63c-1.06.03-2.32.16-3.78.38-1.46.22-2.74.5-3.83.84-1.29.41-2.16,1.07-2.61,1.99-.44.92-.66,1.94-.66,3.06v52.45c0,1.12.25,2.12.74,2.99.49.87,1.34,1.56,2.53,2.07.71.27,1.88.57,3.5.89,1.62.32,2.99.5,4.11.54v3.63Z"/>
<path class="cls-1" d="M482.78,90.21c1.53,1.7,2.66,3.57,3.4,5.59.73,2.03,1.1,4.38,1.1,7.07,0,6.4-2.37,11.68-7.1,15.83-4.73,4.15-10.61,6.23-17.62,6.23-3.24,0-6.47-.5-9.7-1.51-3.24-1-6.03-2.22-8.38-3.65l-2.2,3.73h-4.09l-.72-24.82h4.14c.85,3.06,1.85,5.83,2.99,8.3,1.14,2.47,2.65,4.78,4.52,6.92,1.77,2.01,3.84,3.61,6.21,4.8,2.37,1.19,5.12,1.79,8.25,1.79,2.35,0,4.4-.31,6.15-.92,1.75-.61,3.17-1.48,4.26-2.61,1.09-1.13,1.9-2.45,2.43-3.96.53-1.52.79-3.26.79-5.24,0-2.9-.82-5.6-2.45-8.11-1.63-2.51-4.07-4.41-7.3-5.7-2.21-.88-4.75-1.86-7.61-2.92-2.86-1.07-5.33-2.08-7.41-3.03-4.09-1.84-7.26-4.25-9.53-7.22-2.26-2.98-3.4-6.87-3.4-11.67,0-2.76.56-5.33,1.69-7.71,1.12-2.38,2.72-4.51,4.8-6.38,1.97-1.77,4.31-3.16,7-4.16,2.69-1,5.5-1.51,8.43-1.51,3.34,0,6.32.51,8.96,1.53,2.64,1.02,5.05,2.21,7.23,3.58l2.09-3.47h4.09l.41,24.06h-4.14c-.75-2.76-1.59-5.4-2.53-7.92-.94-2.52-2.15-4.8-3.65-6.84-1.46-1.97-3.25-3.55-5.36-4.72-2.11-1.17-4.7-1.76-7.76-1.76-3.24,0-5.99,1.04-8.27,3.12-2.28,2.08-3.42,4.61-3.42,7.61s.73,5.73,2.2,7.79c1.46,2.06,3.59,3.75,6.38,5.08,2.48,1.19,4.93,2.22,7.33,3.09,2.4.87,4.72,1.8,6.97,2.78,2.04.89,4.01,1.89,5.9,3.01s3.53,2.43,4.93,3.93Z"/>
<path class="cls-1" d="M555.3,70.65h-3.52c-.31-1.23-.86-2.68-1.66-4.37-.8-1.69-1.7-3.28-2.69-4.78-1.02-1.57-2.14-2.94-3.35-4.11-1.21-1.17-2.38-1.85-3.51-2.02-1.06-.14-2.39-.24-3.99-.31-1.6-.07-3.09-.1-4.45-.1h-2.97v57.97c0,1.12.24,2.15.72,3.09.48.94,1.31,1.66,2.5,2.17.61.24,1.9.56,3.86.97,1.96.41,3.48.63,4.57.66v3.63h-34.22v-3.63c.95-.07,2.41-.2,4.37-.41,1.96-.2,3.31-.46,4.06-.77,1.12-.44,1.95-1.08,2.48-1.92.53-.83.79-1.95.79-3.35v-58.43h-2.96c-1.06,0-2.37.03-3.93.08-1.57.05-3.06.16-4.49.33-1.12.14-2.29.81-3.5,2.02-1.21,1.21-2.32,2.58-3.35,4.11-1.02,1.53-1.92,3.16-2.71,4.88-.78,1.72-1.33,3.14-1.63,4.26h-3.58v-19.66h63.18v19.66Z"/>
<path class="cls-1" d="M622.01,102.11l-1.38,21.35h-60.17v-3.63c1.02-.07,2.38-.21,4.09-.43,1.7-.22,2.81-.45,3.32-.69,1.09-.51,1.85-1.17,2.27-1.99.43-.82.64-1.86.64-3.12v-52.1c0-1.12-.19-2.12-.56-2.99-.37-.87-1.16-1.57-2.35-2.12-.92-.44-2.15-.83-3.7-1.17-1.55-.34-2.78-.54-3.7-.61v-3.63h56.08v17.47h-3.83c-.68-2.59-2.15-5.34-4.42-8.25-2.26-2.91-4.42-4.5-6.46-4.78-1.06-.14-2.32-.24-3.78-.31-1.46-.07-3.13-.1-5.01-.1h-11.39v28.81h8.17c2.62,0,4.54-.25,5.75-.74,1.21-.49,2.27-1.32,3.19-2.48.75-.99,1.39-2.31,1.92-3.96.53-1.65.88-3.21,1.05-4.67h3.83v28.4h-3.83c-.14-1.63-.5-3.36-1.1-5.18-.6-1.82-1.22-3.14-1.86-3.96-1.06-1.33-2.26-2.2-3.6-2.6-1.35-.41-3.12-.61-5.34-.61h-8.17v21.72c0,2.18.15,3.89.46,5.15.31,1.26.9,2.21,1.79,2.86.89.65,2.09,1.06,3.63,1.25,1.53.19,3.71.28,6.54.28h4.44c1.84,0,3.39-.07,4.65-.2,1.29-.14,2.63-.38,4.01-.74s2.36-.84,2.94-1.46c1.57-1.63,3.21-4.11,4.93-7.43,1.72-3.32,2.82-5.76,3.29-7.33h3.68Z"/>
<path class="cls-1" d="M700,123.46h-19.52c-4.32-6.78-8.22-12.63-11.71-17.57-3.49-4.94-7.27-10.03-11.35-15.27h-7.42v22.98c0,1.19.19,2.24.56,3.14.37.9,1.17,1.59,2.4,2.07.61.24,1.69.46,3.22.66,1.53.2,2.83.32,3.88.36v3.63h-30.64v-3.63c.82-.07,2-.19,3.55-.36,1.55-.17,2.63-.39,3.24-.66,1.02-.44,1.76-1.09,2.22-1.94.46-.85.69-1.94.69-3.27v-52.4c0-1.19-.17-2.25-.51-3.17-.34-.92-1.14-1.62-2.4-2.09-.85-.31-1.96-.59-3.32-.84-1.36-.26-2.52-.42-3.47-.49v-3.63h33.45c3.06,0,5.94.32,8.63.94,2.69.63,5.12,1.64,7.3,3.04,2.11,1.36,3.8,3.14,5.06,5.34,1.26,2.2,1.89,4.84,1.89,7.94,0,2.79-.43,5.26-1.28,7.41-.85,2.15-2.11,4-3.78,5.57-1.53,1.46-3.37,2.73-5.52,3.81s-4.51,1.98-7.1,2.73c3.58,4.73,6.55,8.72,8.91,11.95,2.37,3.24,5.27,7.17,8.71,11.8,1.5,2.04,2.85,3.55,4.06,4.52,1.21.97,2.41,1.76,3.6,2.37.88.44,1.99.78,3.32,1.02,1.33.24,2.43.37,3.32.41v3.63ZM673.13,69.45c0-4.39-1.26-7.86-3.78-10.43-2.52-2.57-6.08-3.85-10.67-3.85h-8.68v31.05h6.69c4.7,0,8.61-1.5,11.75-4.51,3.13-3.01,4.7-7.1,4.7-12.26Z"/>
<path class="cls-1" d="M197.55,196.06h-59.01s-20.08-69.6-10.32-138.55v-.24l.05-4.75s6.62-1.36,7.8-5.75c1.18-4.39-1.76-11.04,6.76-15.58l8.98-3.48V6.22c0-3.34,2.62-6.04,5.87-6.04h20.73c3.24,0,5.87,2.7,5.87,6.04v21.49h.01s8.96,3.48,8.96,3.48c8.53,4.54,5.59,11.2,6.77,15.58,1.18,4.39,7.79,5.75,7.79,5.75v.25s.05,4.5.05,4.5v.04s0,.2,0,.2c9.76,68.95-10.32,138.55-10.32,138.55Z"/>
<path class="cls-3" d="M185.08,226.15l-33.39,48.66s-68.75-22.82-120.08-69.88l-.2-.13-3.89-2.73s2.63-6.23-.32-9.68c-2.95-3.46-10.11-4.79-9.02-14.39l2.21-9.37-17.72-12.16c-2.76-1.88-3.49-5.58-1.66-8.25l11.73-17.1c1.83-2.67,5.54-3.31,8.29-1.42l17.72,12.16h.01s7.93-5.43,7.93-5.43c8.57-4.46,12.4,1.73,16.68,3.24,4.28,1.51,9.15-3.18,9.15-3.18l.18.12.04.02,3.74,2.5.04.02.16.11c62.37,30.96,108.41,86.89,108.41,86.89Z"/>
<path class="cls-2" d="M193.26,211.09l-51.82,28.23s-50.93-51.51-75.35-116.73l-.12-.21-2.22-4.2s5.17-4.36,4.1-8.77c-1.06-4.41-6.83-8.85-1.51-16.92l6.22-7.35-10.28-18.88c-1.59-2.92-.59-6.55,2.26-8.11l18.2-9.91c2.84-1.55,6.44-.44,8.04,2.49l10.28,18.88h.01l9.53-1.24c9.67-.09,10.27,7.15,13.4,10.45,3.13,3.29,9.59,1.31,9.59,1.31l.1.19.03.03,2.2,3.93.03.03.09.18c41.55,55.88,57.22,126.61,57.22,126.61Z"/>
<path class="cls-4" d="M169.82,149.58c.85-1.34,1.97-2.45,3.35-3.34,1.38-.89,3.05-1.33,5.02-1.33s3.76.47,5.24,1.4c1.48.93,2.7,2.14,3.65,3.63.93,1.45,1.64,3.09,2.13,4.92.49,1.83.73,3.72.73,5.66v21.8h-2.16c-.04-.52-.13-1.28-.26-2.27-.13-.99-.29-1.71-.47-2.14-.28-.67-.66-1.15-1.14-1.43-.48-.28-1.09-.42-1.84-.42h-31.05c-.69,0-1.3.12-1.83.37-.53.25-.95.74-1.28,1.48-.3.65-.54,1.37-.7,2.17-.16.8-.26,1.47-.3,2.01h-2.16v-21.25c0-1.64.15-3.22.46-4.72.3-1.5.84-2.94,1.61-4.3.71-1.28,1.67-2.33,2.89-3.15,1.22-.82,2.7-1.23,4.45-1.23,1.52,0,2.88.29,4.06.88s2.21,1.41,3.06,2.47c.81,1,1.5,2.14,2.06,3.42.56,1.29.99,2.68,1.29,4.17h.27c.14-1.32.45-2.8.93-4.43.48-1.63,1.14-3.09,1.99-4.36ZM163.3,157.43c-.87-.8-1.83-1.35-2.87-1.67-1.04-.31-2.27-.47-3.69-.47-2.38,0-4.24.69-5.6,2.07-1.35,1.38-2.03,3.56-2.03,6.54,0,.69.02,1.56.05,2.61.03,1.05.06,1.93.08,2.64h16.62v-4.11c0-1.77-.21-3.29-.64-4.55s-1.07-2.28-1.92-3.06ZM177.09,152.92c-2.56,0-4.66.91-6.3,2.74-1.64,1.83-2.47,4.44-2.47,7.84,0,1.38.02,2.55.05,3.5.03.95.06,1.67.08,2.14h15.22c1.28,0,2.24-.55,2.89-1.66.65-1.1.97-2.64.97-4.61,0-3.22-.88-5.69-2.65-7.4-1.77-1.71-4.36-2.56-7.79-2.56Z"/>
<path class="cls-4" d="M189.94,95.85v19.14h-2.16c-.1-1.69-.3-3.09-.61-4.2-.3-1.11-.68-1.67-1.13-1.67-.18,0-.41.02-.67.06-.26.04-.5.11-.7.19l-9.68,3.81v16.16c1.42.61,2.66,1.1,3.71,1.48,1.06.38,2.03.72,2.92,1.02.87.28,1.58.48,2.13.59.55.11.99.16,1.34.16.81,0,1.44-.68,1.89-2.04s.71-2.9.79-4.61h2.16v17.34h-2.16c-.04-.56-.16-1.27-.35-2.11-.19-.84-.45-1.54-.78-2.08-.55-.86-1.12-1.54-1.72-2.01-.6-.48-1.43-.94-2.48-1.4-5.42-2.31-11.51-4.87-18.27-7.66-6.76-2.79-12.78-5.28-18.05-7.46v-2.6l37.26-15.35c.79-.32,1.43-.69,1.92-1.1.49-.41.96-.98,1.43-1.72.28-.5.52-1.15.72-1.95.19-.8.3-1.47.32-2.01h2.16ZM172.28,114.37l-16.76,6.97,16.76,6.87v-13.85Z"/>
<path class="cls-4" d="M189.94,49.35v12.4c-4.04,2.74-7.53,5.22-10.47,7.44-2.94,2.21-5.98,4.62-9.1,7.21v4.72h13.7c.71,0,1.33-.12,1.87-.36.54-.24.95-.75,1.23-1.52.14-.39.27-1.07.4-2.04s.19-1.8.21-2.47h2.16v19.47h-2.16c-.04-.52-.11-1.27-.21-2.26-.1-.98-.23-1.67-.4-2.06-.26-.65-.65-1.12-1.16-1.41s-1.16-.44-1.95-.44h-31.24c-.71,0-1.34.11-1.89.32-.55.22-.96.73-1.25,1.52-.18.54-.35,1.24-.5,2.11-.15.87-.25,1.6-.29,2.21h-2.16v-21.25c0-1.95.19-3.77.56-5.48.38-1.71.98-3.26,1.81-4.64.81-1.34,1.87-2.41,3.18-3.21,1.31-.8,2.89-1.2,4.73-1.2,1.66,0,3.14.27,4.41.81,1.28.54,2.39,1.34,3.32,2.4.87.97,1.63,2.14,2.27,3.5s1.18,2.87,1.63,4.51c2.82-2.27,5.2-4.16,7.12-5.66,1.93-1.5,4.27-3.35,7.03-5.53,1.22-.95,2.12-1.81,2.69-2.58.58-.77,1.05-1.53,1.42-2.29.26-.56.47-1.27.61-2.11.14-.84.22-1.55.24-2.11h2.16ZM157.75,66.42c-2.61,0-4.69.8-6.22,2.4-1.53,1.6-2.29,3.86-2.29,6.78v5.52h18.51v-4.25c0-2.99-.9-5.47-2.69-7.46-1.79-1.99-4.23-2.99-7.31-2.99Z"/>
</svg>