<svg aria-hidden="true" style="position: absolute; width: 0; height: 0; overflow: hidden;" version="1.1" xmlns="http://www.w3.org/2000/svg" xmlns:xlink="http://www.w3.org/1999/xlink">
<defs>
<symbol id="icon-glass" viewBox="0 0 23 32">
<path d="M22.802 7.661c0-2.253-0.687-5.534-1.999-7.444-0.093-0.136-0.247-0.217-0.412-0.217h-17.98c-0.165 0-0.319 0.081-0.412 0.217-1.312 1.912-1.999 5.192-1.999 7.444 0 5.932 4.73 12.529 11 12.869v8.47h-4.099c-1.141-0.075-2 0.784-2 1.925v0.575c0 0.276 0.224 0.5 0.5 0.5h12c0.276 0 0.5-0.224 0.5-0.5v-0.5c0-1.164-0.879-2.075-2-2h-3.901v-8.47c6.27-0.34 10.802-6.937 10.802-12.869zM16.901 31h-11v-0.075c0-0.589 0.411-1 1-1h9c0.571 0 1 0.462 1 1.075zM2.682 1h17.438c1.053 1.692 1.631 4.47 1.673 6.428-0.845-0.196-1.746-0.31-2.77-0.31-3.161 0-4.759 0.921-6.305 1.812-1.497 0.863-2.911 1.678-5.804 1.678s-4.305-0.817-5.801-1.68l-0.030-0.018c-0.050-0.419-0.083-0.837-0.083-1.249 0-1.963 0.588-4.902 1.682-6.661zM1.311 10.188c1.357 0.749 2.913 1.418 5.604 1.418 3.16 0 4.758-0.921 6.304-1.812 1.497-0.862 2.911-1.678 5.805-1.678 1.025 0 1.919 0.11 2.739 0.32-0.397 5.312-4.777 11.125-10.361 11.125-4.974 0.001-8.989-4.612-10.091-9.373z"></path>
</symbol>
<symbol id="icon-beaker" viewBox="0 0 27 32">
<path d="M17.5 1c0.276 0 0.5-0.224 0.5-0.5s-0.224-0.5-0.5-0.5h-9c-0.276 0-0.5 0.224-0.5 0.5s0.224 0.5 0.5 0.5h9zM0.99 27.635c-1.074 1.511-0.954 2.498-0.664 3.060 0.307 0.595 1.107 1.305 3.174 1.305h20c2.067 0 2.867-0.71 3.174-1.306 0.29-0.562 0.41-1.549-0.648-3.034l-6.219-9.95-0.088-0.124c-0.447-0.638-2.719-4.564-2.719-7.836v-7.25c0-0.276-0.224-0.5-0.5-0.5h-7c-0.276 0-0.5 0.224-0.5 0.5v7.25c0 3.491-2.465 7.957-2.493 8.005l-5.517 9.88zM25.786 30.235c-0.251 0.487-1.084 0.765-2.286 0.765h-20c-1.202 0-2.035-0.278-2.286-0.765-0.229-0.444-0.020-1.162 0.62-2.066l4.999-8.948 0.007 0.004c0.91 0.525 1.851 1.068 3.719 1.068s2.81-0.542 3.719-1.066c0.833-0.48 1.619-0.934 3.22-0.934 0.607 0 1.133 0.075 1.617 0.21l6.080 9.712c0.611 0.858 0.82 1.576 0.591 2.020zM10 9.75v-6.75h6v6.75c0 2.84 1.516 6.042 2.404 7.602-0.29-0.033-0.585-0.059-0.905-0.059-1.869 0-2.81 0.542-3.719 1.066-0.833 0.48-1.619 0.934-3.22 0.934s-2.387-0.454-3.219-0.934l-0.019-0.011 0.046-0.082c0.025-0.040 2.632-4.686 2.632-8.516z"></path>
</symbol>
<symbol id="icon-user" viewBox="0 0 32 32">
<path d="M16 4.718c-2.47 0-4.473 1.99-4.473 4.444s2.003 4.444 4.473 4.444c2.47 0 4.473-1.99 4.473-4.444s-2.003-4.444-4.473-4.444zM9.462 9.162c0-3.588 2.927-6.496 6.538-6.496s6.538 2.908 6.538 6.496c0 3.587-2.927 6.496-6.538 6.496s-6.538-2.908-6.538-6.496z"></path>
<path d="M12.622 20.444c-2.885 0-5.224 2.324-5.224 5.19 0 0.151 0.028 0.257 0.057 0.319 0.024 0.052 0.046 0.067 0.063 0.077 0.802 0.434 3.051 1.252 8.482 1.252s7.68-0.818 8.482-1.252c0.017-0.009 0.039-0.024 0.063-0.077 0.029-0.062 0.057-0.168 0.057-0.319 0-2.867-2.339-5.19-5.224-5.19h-6.757zM5.333 25.635c0-3.999 3.263-7.241 7.288-7.241h6.757c4.025 0 7.288 3.242 7.288 7.241 0 0.734-0.267 1.694-1.197 2.197-1.232 0.666-3.875 1.502-9.469 1.502s-8.237-0.836-9.469-1.502c-0.93-0.503-1.197-1.463-1.197-2.197z"></path>
</symbol>
<symbol id="icon-home" viewBox="0 0 32 32">
<path d="M15.182 1.614c0.481-0.374 1.156-0.374 1.637 0l12 9.333c0.325 0.253 0.515 0.641 0.515 1.052v14.667c0 1.061-0.421 2.078-1.172 2.828s-1.767 1.172-2.828 1.172h-18.667c-1.061 0-2.078-0.421-2.828-1.172s-1.172-1.767-1.172-2.828v-14.667c0-0.411 0.19-0.8 0.515-1.052l12-9.333zM5.334 12.652v14.014c0 0.354 0.14 0.693 0.391 0.943s0.589 0.391 0.943 0.391h18.667c0.354 0 0.693-0.14 0.943-0.391s0.391-0.589 0.391-0.943v-14.014l-10.667-8.296-10.667 8.296z"></path>
<path d="M10.667 16c0-0.736 0.597-1.333 1.333-1.333h8c0.736 0 1.333 0.597 1.333 1.333v13.333c0 0.736-0.597 1.333-1.333 1.333s-1.333-0.597-1.333-1.333v-12h-5.333v12c0 0.736-0.597 1.333-1.333 1.333s-1.333-0.597-1.333-1.333v-13.333z"></path>
</symbol>
<symbol id="icon-search" viewBox="0 0 32 32">
<path d="M3.81 14.476c0 5.891 4.776 10.667 10.667 10.667 2.874 0 5.482-1.136 7.4-2.984 0.040-0.052 0.084-0.102 0.132-0.15s0.098-0.092 0.15-0.132c1.848-1.918 2.985-4.526 2.985-7.4 0-5.891-4.776-10.667-10.667-10.667s-10.667 4.776-10.667 10.667zM23.037 25.192c-2.346 1.877-5.322 2.999-8.56 2.999-7.574 0-13.714-6.14-13.714-13.714s6.14-13.714 13.714-13.714c7.574 0 13.714 6.14 13.714 13.714 0 3.238-1.122 6.214-2.999 8.56l5.6 5.6c0.595 0.595 0.595 1.56 0 2.155s-1.56 0.595-2.155 0l-5.6-5.6z"></path>
</symbol>
<symbol id="icon-menu" viewBox="0 0 45 32">
<path d="M0 4.8c0-1.325 1.254-2.4 2.8-2.4h39.2c1.546 0 2.8 1.075 2.8 2.4s-1.254 2.4-2.8 2.4h-39.2c-1.546 0-2.8-1.075-2.8-2.4z"></path>
<path d="M0 16c0-1.325 1.254-2.4 2.8-2.4h39.2c1.546 0 2.8 1.075 2.8 2.4s-1.254 2.4-2.8 2.4h-39.2c-1.546 0-2.8-1.075-2.8-2.4z"></path>
<path d="M2.8 24.8c-1.546 0-2.8 1.075-2.8 2.4s1.254 2.4 2.8 2.4h39.2c1.546 0 2.8-1.075 2.8-2.4s-1.254-2.4-2.8-2.4h-39.2z"></path>
</symbol>
<symbol id="icon-close" viewBox="0 0 32 32">
<path d="M26.667 3.448l-10.667 10.667-10.667-10.667-1.886 1.885 10.667 10.667-10.667 10.667 1.886 1.885 10.667-10.667 10.667 10.667 1.885-1.885-10.667-10.667 10.667-10.667-1.885-1.885z"></path>
</symbol>
<symbol id="icon-heart" viewBox="0 0 37 32">
<path d="M27 0c-2.476 0-4.856 0.921-6.704 2.595-0.702 0.635-1.303 1.357-1.796 2.154-0.493-0.797-1.094-1.519-1.796-2.155-1.848-1.673-4.228-2.594-6.704-2.594-5.514 0-10 4.486-10 10 0 3.722 1.158 6.66 3.871 9.825 3.942 4.6 13.919 11.62 14.342 11.917 0.086 0.061 0.187 0.091 0.287 0.091s0.201-0.030 0.287-0.091c0.423-0.297 10.4-7.317 14.343-11.917 2.712-3.165 3.87-6.103 3.87-9.825 0-5.514-4.486-10-10-10zM32.371 19.175c-3.495 4.076-12.18 10.341-13.871 11.545-1.691-1.204-10.376-7.469-13.87-11.545-2.545-2.969-3.63-5.713-3.63-9.175 0-4.963 4.038-9 9-9 2.227 0 4.37 0.829 6.032 2.335 0.838 0.76 1.518 1.656 2.020 2.664 0.17 0.34 0.726 0.34 0.896 0 0.502-1.008 1.182-1.904 2.020-2.663 1.662-1.507 3.805-2.336 6.032-2.336 4.962 0 9 4.037 9 9 0 3.462-1.085 6.206-3.629 9.175z"></path>
</symbol>
<symbol id="icon-logout" viewBox="0 0 32 32">
<path d="M6.769 7.902c0-2.050 1.684-3.712 3.761-3.712h5.47c0.566 0 1.026 0.453 1.026 1.012s-0.459 1.012-1.026 1.012h-5.47c-0.944 0-1.709 0.755-1.709 1.687v1.35c0 0.559-0.459 1.012-1.026 1.012s-1.026-0.453-1.026-1.012v-1.35zM7.795 21.736c0.566 0 1.026 0.453 1.026 1.012v1.35c0 0.932 0.765 1.687 1.709 1.687h5.47c0.566 0 1.026 0.453 1.026 1.012s-0.459 1.012-1.026 1.012h-5.47c-2.077 0-3.761-1.662-3.761-3.712v-1.35c0-0.559 0.459-1.012 1.026-1.012z"></path>
<path d="M17.026 6.382c0-1.175 1.187-1.99 2.303-1.582l6.838 2.499c0.671 0.245 1.116 0.876 1.116 1.582v14.238c0 0.706-0.445 1.337-1.116 1.582l-6.838 2.499c-1.117 0.408-2.303-0.407-2.303-1.582v-19.237zM20.041 2.901c-2.456-0.898-5.067 0.896-5.067 3.481v19.237c0 2.585 2.611 4.378 5.067 3.481l6.838-2.499c1.475-0.539 2.455-1.928 2.455-3.481v-14.238c0-1.553-0.979-2.941-2.455-3.481l-6.838-2.499z"></path>
<path d="M7.153 12.585c-0.401-0.395-1.050-0.395-1.45 0l-2.735 2.699c-0.401 0.395-0.401 1.036 0 1.431l2.735 2.699c0.401 0.395 1.050 0.395 1.45 0s0.401-1.036 0-1.431l-0.984-0.971h5.729c0.566 0 1.026-0.453 1.026-1.012s-0.459-1.012-1.026-1.012h-5.729l0.984-0.971c0.401-0.395 0.401-1.036 0-1.431z"></path>
</symbol>
<symbol id="icon-minus" viewBox="0 0 192 32">
<path d="M10.664 16c0-5.891 4.776-10.667 10.667-10.667h149.333c5.891 0 10.667 4.776 10.667 10.667s-4.776 10.667-10.667 10.667h-149.333c-5.891 0-10.667-4.776-10.667-10.667z"></path>
</symbol>
<symbol id="icon-plus" viewBox="0 0 32 32">
<path d="M17.777 3.556c0-0.982-0.796-1.778-1.778-1.778s-1.778 0.796-1.778 1.778v10.667h-10.667c-0.982 0-1.778 0.796-1.778 1.778s0.796 1.778 1.778 1.778h10.667v10.667c0 0.982 0.796 1.778 1.778 1.778s1.778-0.796 1.778-1.778v-10.667h10.667c0.982 0 1.778-0.796 1.778-1.778s-0.796-1.778-1.778-1.778h-10.667v-10.667z"></path>
</symbol>
<symbol id="icon-arrow-left" viewBox="0 0 19 32">
<path d="M17.509 1.692c-0.833-0.833-2.184-0.833-3.017 0l-12.8 12.8c-0.833 0.833-0.833 2.184 0 3.017l12.8 12.8c0.833 0.833 2.184 0.833 3.017 0s0.833-2.184 0-3.017l-11.292-11.292 11.292-11.292c0.833-0.833 0.833-2.184 0-3.017z"></path>
</symbol>
<symbol id="icon-arrow-right" viewBox="0 0 19 32">
<path d="M1.692 1.692c0.833-0.833 2.184-0.833 3.017 0l12.8 12.8c0.833 0.833 0.833 2.184 0 3.017l-12.8 12.8c-0.833 0.833-2.184 0.833-3.017 0s-0.833-2.184 0-3.017l11.291-11.292-11.291-11.292c-0.833-0.833-0.833-2.184 0-3.017z"></path>
</symbol>
<symbol id="icon-arrow-down" viewBox="0 0 53 32">
<path d="M50.515 2.819c1.389 1.389 1.389 3.64 0 5.028l-21.333 21.333c-1.389 1.389-3.64 1.389-5.028 0l-21.333-21.333c-1.389-1.389-1.389-3.64 0-5.028s3.64-1.389 5.028 0l18.819 18.819 18.819-18.819c1.389-1.389 3.64-1.389 5.028 0z"></path>
</symbol>
<symbol id="icon-arrow-up" viewBox="0 0 53 32">
<path d="M2.82 29.181c-1.389-1.389-1.389-3.64 0-5.028l21.333-21.333c1.389-1.389 3.64-1.389 5.028 0l21.333 21.333c1.389 1.389 1.389 3.64 0 5.028s-3.64 1.388-5.028-0l-18.819-18.819-18.819 18.819c-1.389 1.389-3.64 1.389-5.028 0z"></path>
</symbol>
<symbol id="icon-instagram" viewBox="0 0 32 32">
<path d="M16 2.881c4.275 0 4.781 0.019 6.462 0.094 1.563 0.069 2.406 0.331 2.969 0.55 0.744 0.288 1.281 0.638 1.837 1.194 0.563 0.563 0.906 1.094 1.2 1.838 0.219 0.563 0.481 1.412 0.55 2.969 0.075 1.688 0.094 2.194 0.094 6.463s-0.019 4.781-0.094 6.463c-0.069 1.563-0.331 2.406-0.55 2.969-0.288 0.744-0.637 1.281-1.194 1.837-0.563 0.563-1.094 0.906-1.837 1.2-0.563 0.219-1.413 0.481-2.969 0.55-1.688 0.075-2.194 0.094-6.463 0.094s-4.781-0.019-6.463-0.094c-1.563-0.069-2.406-0.331-2.969-0.55-0.744-0.288-1.281-0.637-1.838-1.194-0.563-0.563-0.906-1.094-1.2-1.837-0.219-0.563-0.481-1.413-0.55-2.969-0.075-1.688-0.094-2.194-0.094-6.463s0.019-4.781 0.094-6.463c0.069-1.563 0.331-2.406 0.55-2.969 0.288-0.744 0.638-1.281 1.194-1.838 0.563-0.563 1.094-0.906 1.838-1.2 0.563-0.219 1.412-0.481 2.969-0.55 1.681-0.075 2.188-0.094 6.463-0.094zM16 0c-4.344 0-4.887 0.019-6.594 0.094-1.7 0.075-2.869 0.35-3.881 0.744-1.056 0.412-1.95 0.956-2.837 1.85-0.894 0.888-1.438 1.781-1.85 2.831-0.394 1.019-0.669 2.181-0.744 3.881-0.075 1.713-0.094 2.256-0.094 6.6s0.019 4.887 0.094 6.594c0.075 1.7 0.35 2.869 0.744 3.881 0.413 1.056 0.956 1.95 1.85 2.837 0.887 0.887 1.781 1.438 2.831 1.844 1.019 0.394 2.181 0.669 3.881 0.744 1.706 0.075 2.25 0.094 6.594 0.094s4.888-0.019 6.594-0.094c1.7-0.075 2.869-0.35 3.881-0.744 1.050-0.406 1.944-0.956 2.831-1.844s1.438-1.781 1.844-2.831c0.394-1.019 0.669-2.181 0.744-3.881 0.075-1.706 0.094-2.25 0.094-6.594s-0.019-4.887-0.094-6.594c-0.075-1.7-0.35-2.869-0.744-3.881-0.394-1.063-0.938-1.956-1.831-2.844-0.887-0.887-1.781-1.438-2.831-1.844-1.019-0.394-2.181-0.669-3.881-0.744-1.712-0.081-2.256-0.1-6.6-0.1v0z"></path>
<path d="M16 7.781c-4.537 0-8.219 3.681-8.219 8.219s3.681 8.219 8.219 8.219 8.219-3.681 8.219-8.219c0-4.537-3.681-8.219-8.219-8.219zM16 21.331c-2.944 0-5.331-2.387-5.331-5.331s2.387-5.331 5.331-5.331c2.944 0 5.331 2.387 5.331 5.331s-2.387 5.331-5.331 5.331z"></path>
<path d="M26.462 7.456c0 1.060-0.859 1.919-1.919 1.919s-1.919-0.859-1.919-1.919c0-1.060 0.859-1.919 1.919-1.919s1.919 0.859 1.919 1.919z"></path>
</symbol>
<symbol id="icon-footer-heart" viewBox="0 0 32 32">
<path d="M23.6 2c-3.363 0-6.258 2.736-7.599 5.594-1.342-2.858-4.237-5.594-7.601-5.594-4.637 0-8.4 3.764-8.4 8.401 0 9.433 9.516 11.906 16.001 21.232 6.13-9.268 15.999-12.1 15.999-21.232 0-4.637-3.763-8.401-8.4-8.401z"></path>
</symbol>
<symbol id="icon-facebook2" viewBox="0 0 32 32">
<path d="M29 0h-26c-1.65 0-3 1.35-3 3v26c0 1.65 1.35 3 3 3h13v-14h-4v-4h4v-2c0-3.306 2.694-6 6-6h4v4h-4c-1.1 0-2 0.9-2 2v2h6l-1 4h-5v14h9c1.65 0 3-1.35 3-3v-26c0-1.65-1.35-3-3-3z"></path>
</symbol>
<symbol id="icon-pinterest2" viewBox="0 0 32 32">
<path d="M16 0c-8.825 0-16 7.175-16 16s7.175 16 16 16 16-7.175 16-16-7.175-16-16-16zM16 29.863c-1.431 0-2.806-0.219-4.106-0.619 0.563-0.919 1.412-2.431 1.725-3.631 0.169-0.65 0.863-3.294 0.863-3.294 0.45 0.863 1.775 1.594 3.175 1.594 4.181 0 7.194-3.844 7.194-8.625 0-4.581-3.738-8.006-8.544-8.006-5.981 0-9.156 4.019-9.156 8.387 0 2.031 1.081 4.563 2.813 5.369 0.262 0.125 0.4 0.069 0.463-0.188 0.044-0.194 0.281-1.131 0.387-1.575 0.031-0.137 0.019-0.262-0.094-0.4-0.575-0.694-1.031-1.975-1.031-3.162 0-3.056 2.313-6.019 6.256-6.019 3.406 0 5.788 2.319 5.788 5.637 0 3.75-1.894 6.35-4.356 6.35-1.363 0-2.381-1.125-2.050-2.506 0.394-1.65 1.15-3.425 1.15-4.613 0-1.063-0.569-1.95-1.756-1.95-1.394 0-2.506 1.438-2.506 3.369 0 1.225 0.412 2.056 0.412 2.056s-1.375 5.806-1.625 6.887c-0.281 1.2-0.169 2.881-0.050 3.975-5.156-2.012-8.813-7.025-8.813-12.9 0-7.656 6.206-13.863 13.862-13.863s13.863 6.206 13.863 13.863c0 7.656-6.206 13.863-13.863 13.863z"></path>
</symbol>
<symbol id="icon-twitter" viewBox="0 0 32 32">
<path d="M32 7.075c-1.175 0.525-2.444 0.875-3.769 1.031 1.356-0.813 2.394-2.1 2.887-3.631-1.269 0.75-2.675 1.3-4.169 1.594-1.2-1.275-2.906-2.069-4.794-2.069-3.625 0-6.563 2.938-6.563 6.563 0 0.512 0.056 1.012 0.169 1.494-5.456-0.275-10.294-2.888-13.531-6.862-0.563 0.969-0.887 2.1-0.887 3.3 0 2.275 1.156 4.287 2.919 5.463-1.075-0.031-2.087-0.331-2.975-0.819 0 0.025 0 0.056 0 0.081 0 3.181 2.263 5.838 5.269 6.437-0.55 0.15-1.131 0.231-1.731 0.231-0.425 0-0.831-0.044-1.237-0.119 0.838 2.606 3.263 4.506 6.131 4.563-2.25 1.762-5.075 2.813-8.156 2.813-0.531 0-1.050-0.031-1.569-0.094 2.913 1.869 6.362 2.95 10.069 2.95 12.075 0 18.681-10.006 18.681-18.681 0-0.287-0.006-0.569-0.019-0.85 1.281-0.919 2.394-2.075 3.275-3.394z"></path>
</symbol>
<symbol id="cherry" viewBox="0 0 1024 1024">
  <path d="M883.2 629.333c-87.467-264.533-288-70.4-288-70.4s-27.733 2.134-59.733 12.8C467.2 505.6 339.2 546.133 339.2 546.133s-236.8-78.933-209.067 185.6C142.933 844.8 230.4 917.333 352 917.333c61.867 0 115.2-19.2 153.6-51.2 64 57.6 157.867 68.267 251.733 25.6 115.2-51.2 162.134-153.6 125.867-262.4z" fill="#FF1744"/><path d="M633.6 753.067c-8.533-83.2 57.6-234.667 113.067-262.4-76.8-2.134-151.467 68.266-151.467 68.266s-25.6 2.134-57.6 12.8c-2.133-2.133-4.267-2.133-6.4-2.133 29.867 27.733 49.067 78.933 40.533 162.133C565.333 787.2 541.867 832 505.6 864c32 29.867 108.8 85.333 251.733 27.733-66.133-12.8-115.2-55.466-123.733-138.666z" fill="#D50000"/><path d="M215.467 744.533c-8.534 0-19.2-6.4-21.334-17.066C172.8 640 224 603.733 245.333 590.933c10.667-6.4 23.467-2.133 27.734 8.534 6.4 10.666 2.133 23.466-8.534 27.733-21.333 10.667-42.666 34.133-29.866 87.467 2.133 10.666-4.267 23.466-14.934 25.6-2.133 4.266-2.133 4.266-4.266 4.266z" fill="#FFCDD2"/><path d="M614.4 518.4c-2.133-6.4-4.267-10.667-6.4-17.067 0-2.133-2.133-4.266-2.133-6.4-2.134-4.266-2.134-8.533-4.267-10.666-2.133-4.267-2.133-6.4-4.267-10.667s-2.133-6.4-2.133-10.667c-2.133-4.266-2.133-8.533-4.267-10.666-2.133-4.267-2.133-8.534-4.266-12.8 0-2.134-2.134-4.267-2.134-6.4-2.133-4.267-2.133-8.534-2.133-12.8 0-2.134 0-4.267-2.133-6.4 0-4.267-2.134-8.534-2.134-12.8 0-2.134 0-4.267-2.133-6.4 0-4.267-2.133-8.534-2.133-12.8V285.867c0-2.134 0-4.267 2.133-8.534v-4.266c0-2.134 2.133-6.4 2.133-8.534v-4.266c0-4.267 2.134-6.4 2.134-10.667v-2.133c0-4.267 2.133-6.4 2.133-10.667 12.8-44.8 34.133-74.667 42.667-85.333 2.133 0 4.266-2.134 4.266-2.134C640 145.067 644.267 132.267 640 121.6s-10.667-19.2-21.333-14.933c0 0-2.134 0-2.134 2.133-2.133 0-4.266 0-6.4 2.133-2.133 0-2.133 2.134-4.266 4.267C309.333 249.6 320 573.867 320 576c0 10.667 10.667 21.333 21.333 21.333 12.8 0 21.334-10.666 21.334-21.333 0-2.133-8.534-249.6 196.266-388.267-32 78.934-57.6 215.467 40.534 398.934 4.266 6.4 10.666 10.666 19.2 10.666 4.266 0 6.4 0 10.666-2.133 8.534-4.267 12.8-12.8 10.667-21.333 0-2.134-2.133-6.4-2.133-8.534-4.267-8.533-8.534-17.066-12.8-23.466v-2.134c-4.267-6.4-8.534-14.933-10.667-21.333z" fill="#795548"/><path d="M810.667 384c-38.4-40.533 61.866-277.333-192-277.333-145.067 281.6 192 277.333 192 277.333z" fill="#4CAF50"/>
</symbol>
<symbol id="icon-star" viewBox="0 0 26 28">
<path d="M17.766 15.687l4.781-4.641-6.594-0.969-2.953-5.969-2.953 5.969-6.594 0.969 4.781 4.641-1.141 6.578 5.906-3.109 5.891 3.109zM26 10.109c0 0.281-0.203 0.547-0.406 0.75l-5.672 5.531 1.344 7.812c0.016 0.109 0.016 0.203 0.016 0.313 0 0.422-0.187 0.781-0.641 0.781-0.219 0-0.438-0.078-0.625-0.187l-7.016-3.687-7.016 3.687c-0.203 0.109-0.406 0.187-0.625 0.187-0.453 0-0.656-0.375-0.656-0.781 0-0.109 0.016-0.203 0.031-0.313l1.344-7.812-5.688-5.531c-0.187-0.203-0.391-0.469-0.391-0.75 0-0.469 0.484-0.656 0.875-0.719l7.844-1.141 3.516-7.109c0.141-0.297 0.406-0.641 0.766-0.641s0.625 0.344 0.766 0.641l3.516 7.109 7.844 1.141c0.375 0.063 0.875 0.25 0.875 0.719z"></path>
</symbol>
</defs>
</svg>